<?xml version="1.0" standalone="no"?>
<!DOCTYPE svg PUBLIC "-//W3C//DTD SVG 1.1//EN" "http://www.w3.org/Graphics/SVG/1.1/DTD/svg11.dtd" >
<svg>
<metadata>
Created by FontForge 20120731 at Thu Sep 19 16:53:02 2019
 By www-data
Copyright \(c\) 2003, 2007, 2008 Carter &#38; Cone Type Inc.  All rights reserved. Rev 4.
</metadata>
<defs>
<font id="YaleNew-Roman" horiz-adv-x="314" >
  <font-face 
    font-family="YaleNew"
    font-weight="400"
    font-stretch="normal"
    units-per-em="1000"
    panose-1="2 0 6 2 5 0 0 2 0 3"
    ascent="728"
    descent="-272"
    x-height="429"
    cap-height="635"
    bbox="-191 -276 4158 917"
    underline-thickness="20"
    underline-position="-103"
    stemh="22"
    stemv="79"
    unicode-range="U+0020-FB04"
  />
<missing-glyph horiz-adv-x="500" 
d="M50 0v635h400v-635h-400zM100 585v-535h300v535h-300z" />
    <glyph glyph-name="fi" unicode="fi" horiz-adv-x="554" 
d="M532 24v-24h-210v24c49 4 55 13 65 30l1 287c0 22 -25 41 -62 41h-150l3 -319c22 -40 55 -37 90 -38v-25h-237v23c47 3 57 13 66 30l1 327h-78v25l76 21c2 46 7 97 31 140c52 93 136 145 226 145c61 0 106 -36 106 -57c-4 -18 -26 -47 -44 -52c-34 22 -86 55 -132 58
c-70 -3 -104 -58 -107 -237h208l66 22h14v-391c11 -20 17 -25 67 -30z" />
    <glyph glyph-name="fl" unicode="fl" horiz-adv-x="559" 
d="M541 23v-23h-221v24c48 3 60 12 69 29v573c-18 16 -45 38 -106 38c-67 0 -104 -78 -105 -244h131v-42h-132l3 -315c22 -40 47 -37 83 -38v-25h-230v23c47 3 57 15 66 32l1 325h-79v25l76 21c1 21 5 99 37 150c51 82 133 136 215 136c22 0 61 -10 74 -22l47 16h15v-14
l-16 -31v-608c10 -20 22 -25 72 -30z" />
    <glyph glyph-name="f_f" unicode="ff" horiz-adv-x="602" 
d="M733 656c-4 -18 -24 -44 -42 -49c-31 23 -73 50 -120 53c-67 -3 -98 -59 -101 -237h132v-41h-133l3 -319c21 -40 67 -37 102 -38v-25h-249v23c44 3 57 13 65 30l2 329h-216l3 -319c22 -40 60 -37 90 -38v-25h-245v23c48 3 65 13 74 30l1 327h-78v25l76 21
c1 28 4 84 23 122c41 81 111 150 223 150c58 0 100 -41 121 -67c34 37 87 80 174 80c58 0 95 -34 95 -55zM421 571c-29 33 -75 80 -140 79c-71 -2 -100 -60 -104 -227h214c3 45 6 101 30 148z" />
    <glyph glyph-name="f_f_i" unicode="ffi" horiz-adv-x="847" 
d="M825 24v-24h-210v24c49 4 55 13 65 30l1 281c0 25 -23 47 -67 47h-145l3 -319c22 -40 55 -37 90 -38v-25h-237v23c47 3 57 13 66 30l1 329h-216l3 -319c22 -40 60 -37 90 -38v-25h-245v23c48 3 65 13 74 30l1 327h-78v25l76 21c1 26 4 83 23 121c40 80 111 151 223 151
c58 0 101 -42 122 -68c35 37 92 81 182 81c61 0 106 -36 106 -57c-4 -18 -26 -47 -44 -52c-34 22 -86 55 -132 58c-70 -3 -104 -58 -107 -237h207l67 22h14v-391c11 -20 17 -25 67 -30zM421 571c-29 33 -75 80 -140 79c-71 -2 -100 -60 -104 -227h214c2 46 10 110 30 148z
" />
    <glyph glyph-name="f_f_l" unicode="ffl" horiz-adv-x="851" 
d="M833 23v-23h-221v24c48 3 60 12 69 29v573c-18 16 -45 38 -106 38c-67 0 -104 -78 -105 -244h132v-42h-133l3 -315c22 -40 47 -37 83 -38v-25h-230v23c47 3 57 13 66 30v325h-215l3 -315c22 -40 60 -37 90 -38v-25h-245v23c48 3 65 13 74 30l1 327h-78v25l76 21
c1 27 4 82 23 121c38 80 111 151 223 151c58 0 101 -42 122 -68c34 37 94 82 176 82c22 0 61 -10 74 -22l47 16h15v-14l-16 -31v-608c10 -20 22 -25 72 -30zM421 571c-29 33 -75 80 -140 79c-71 -2 -100 -59 -104 -230h214c1 21 3 103 30 151z" />
    <glyph glyph-name="f_b" unicode="fb" horiz-adv-x="829" 
d="M797 240c0 -143 -96 -250 -264 -250c-72 0 -105 17 -146 38c2 414 2 302 2 598c-18 16 -45 38 -106 38c-67 0 -104 -78 -105 -244h131v-42h-132l3 -315c22 -40 49 -37 85 -38v-25h-232v23c47 3 57 15 66 32l1 325h-79v25l76 21c1 21 5 99 37 150c51 82 133 136 215 136
c22 0 61 -10 74 -22l50 18h14v-14l-19 -35v-278c45 33 101 62 147 62c91 0 182 -62 182 -203zM713 209c0 96 -62 179 -159 179c-25 0 -59 -13 -86 -26v-246c13 -65 69 -93 110 -93c81 0 135 89 135 186z" />
    <glyph glyph-name="f_f_b" unicode="ffb" horiz-adv-x="1121" 
d="M1089 240c0 -143 -96 -250 -264 -250c-72 0 -145 38 -145 38c0 416 0 304 1 598c-18 16 -45 38 -106 38c-67 0 -104 -78 -105 -244h132v-42h-133l3 -315c22 -40 49 -37 85 -38v-25h-232v23c47 3 57 13 66 30v325h-215l3 -315c22 -40 60 -37 90 -38v-25h-245v23
c48 3 65 13 74 30l1 327h-78v25l76 21c1 27 4 82 23 121c38 80 111 151 223 151c58 0 101 -42 122 -68c34 37 94 82 176 82c22 0 61 -10 74 -22l50 18h14v-14l-19 -35v-278c45 33 101 62 147 62c91 0 182 -62 182 -203zM1005 209c0 96 -62 179 -159 179
c-25 0 -59 -13 -86 -26v-246c13 -65 69 -93 110 -93c81 0 135 89 135 186zM421 571c-29 33 -75 80 -140 79c-71 -2 -100 -59 -104 -230h214c1 21 3 103 30 151z" />
    <glyph glyph-name="f_h" unicode="fh" horiz-adv-x="836" 
d="M825 23v-23h-229v23c49 3 56 15 66 34c5 29 11 94 11 164c0 100 -12 167 -109 167c-25 0 -68 -17 -95 -29v-306c10 -20 15 -25 63 -30v-23h-209v23c48 3 58 13 66 30v573c-18 16 -45 38 -106 38c-67 0 -104 -78 -105 -244h131v-42h-132l3 -315c22 -40 47 -37 83 -38v-25
h-230v23c47 3 57 15 66 32l1 325h-79v25l76 21c1 21 5 99 37 150c51 82 133 136 215 136c22 0 61 -10 74 -22l48 18h16v-14l-19 -34v-282c44 33 112 65 149 65c129 0 139 -109 139 -217c0 -86 -14 -188 -14 -188c19 -7 51 -12 83 -15z" />
    <glyph glyph-name="f_f_h" unicode="ffh" horiz-adv-x="1128" 
d="M1117 23v-23h-229v23c49 3 56 15 66 34c5 29 11 94 11 164c0 100 -12 167 -109 167c-25 0 -68 -17 -95 -29v-306c10 -20 15 -25 63 -30v-23h-209v23c48 3 58 13 66 30v573c-18 16 -45 38 -106 38c-67 0 -104 -78 -105 -244h132v-42h-133l3 -315c22 -40 49 -37 85 -38v-25
h-232v23c47 3 57 13 66 30v325h-215l3 -315c22 -40 60 -37 90 -38v-25h-245v23c48 3 65 13 74 30l1 327h-78v25l76 21c1 27 4 82 23 121c38 80 111 151 223 151c58 0 101 -42 122 -68c34 37 94 82 176 82c22 0 62 -10 75 -22l47 18h16v-14l-18 -34v-282c44 33 111 65 148 65
c129 0 139 -109 139 -217c0 -86 -14 -188 -14 -188c19 -7 51 -12 83 -15zM421 571c-29 33 -75 80 -140 79c-71 -2 -100 -59 -104 -230h214c1 21 3 103 30 151z" />
    <glyph glyph-name="f_j" unicode="fj" horiz-adv-x="539" 
d="M477 442v-13l-16 -36l4 -415c2 -160 -89 -232 -233 -235v26c88 6 152 61 152 216v336c0 33 -2 61 -46 61h-162l3 -319c22 -40 55 -37 90 -38v-25h-237v23c47 3 57 13 66 30l1 327h-78v25l76 21c2 46 7 97 31 140c52 93 136 145 226 145c61 0 106 -36 106 -57
c-4 -18 -26 -47 -44 -52c-34 22 -86 55 -132 58c-70 -3 -104 -58 -107 -237h213l71 19h16z" />
    <glyph glyph-name="f_f_j" unicode="ffj" horiz-adv-x="832" 
d="M770 442v-13l-16 -36l4 -415c2 -160 -89 -232 -233 -235v26c88 6 152 61 152 216v336c0 33 -2 61 -46 61h-162l3 -319c22 -40 55 -37 90 -38v-25h-237v23c47 3 57 13 66 30l1 329h-216l3 -319c22 -40 60 -37 90 -38v-25h-245v23c48 3 65 13 74 30l1 327h-78v25l76 21
c1 26 4 83 23 121c40 80 111 151 223 151c58 0 101 -42 122 -68c35 37 92 81 182 81c61 0 106 -36 106 -57c-4 -18 -26 -47 -44 -52c-34 22 -86 55 -132 58c-70 -3 -104 -58 -107 -237h212l72 19h16zM421 571c-29 33 -75 80 -140 79c-71 -2 -100 -60 -104 -227h214
c2 46 10 110 30 148z" />
    <glyph glyph-name="f_k" unicode="fk" horiz-adv-x="789" 
d="M814 23v-23h-228v23c32 1 48 5 55 13l-156 185l155 164c-7 8 -35 16 -65 20v24h210v-24c-46 -3 -86 -14 -113 -41l-109 -110l150 -183c25 -31 56 -46 101 -48zM529 23v-23h-206v23c48 3 58 13 66 30v573c-18 16 -45 38 -106 38c-67 0 -104 -78 -105 -244h131v-42h-132
l3 -315c22 -40 47 -37 83 -38v-25h-230v23c47 3 57 15 66 32l1 325h-79v25l76 21c1 21 5 99 37 150c51 82 133 136 215 136c22 0 61 -10 74 -22l51 18h16v-14l-21 -34v-607c10 -18 11 -25 60 -30z" />
    <glyph glyph-name="f_f_k" unicode="ffk" horiz-adv-x="1081" 
d="M1106 23v-23h-228v23c32 1 48 5 55 13l-156 185l155 164c-7 8 -35 16 -65 20v24h210v-24c-46 -3 -86 -14 -113 -41l-109 -110l150 -183c25 -31 56 -46 101 -48zM821 23v-23h-206v23c48 3 58 13 66 30v573c-18 16 -45 38 -106 38c-67 0 -104 -78 -105 -244h132v-42h-133
l3 -315c22 -40 49 -37 85 -38v-25h-232v23c47 3 57 13 66 30v325h-215l3 -315c22 -40 60 -37 90 -38v-25h-245v23c48 3 65 13 74 30l1 327h-78v25l76 21c1 27 4 82 23 121c38 80 111 151 223 151c58 0 101 -42 122 -68c34 37 94 82 176 82c22 0 61 -10 74 -22l51 18h16v-14
l-21 -34v-607c10 -18 11 -25 60 -30zM421 571c-29 33 -75 80 -140 79c-71 -2 -100 -59 -104 -230h214c1 21 3 103 30 151z" />
    <glyph glyph-name="f_t" unicode="ft" horiz-adv-x="616" 
d="M619 61v-20c-26 -21 -87 -49 -123 -49c-91 0 -118 49 -118 129c0 94 6 164 8 258h-210l3 -316c22 -40 67 -37 102 -38v-25h-257v23c48 3 65 13 74 30l1 327h-78v25l75 21c2 49 10 95 25 126c41 86 110 159 222 159c58 0 93 -34 93 -56c-4 -19 -25 -46 -42 -51
c-32 24 -73 52 -120 55c-67 -3 -94 -53 -97 -238h175l98 99h13l-1 -93h149v-47l-148 1c-2 -101 -4 -158 -4 -247c0 -56 35 -91 94 -91c23 0 56 14 66 18z" />
    <glyph glyph-name="f_f_t" unicode="fft" horiz-adv-x="909" 
d="M912 61v-20c-26 -21 -87 -49 -123 -49c-91 0 -120 49 -118 129c0 0 6 164 8 258h-210l3 -316c22 -40 55 -37 90 -38v-25h-237v23c47 3 57 13 66 30l1 327h-216l3 -317c22 -40 60 -37 90 -38v-25h-245v23c48 3 65 13 74 30l1 327h-78v25l76 21c1 26 4 83 23 121
c40 80 111 151 223 151c58 0 101 -42 122 -68c35 37 92 81 182 81c61 0 106 -36 106 -57c-4 -18 -26 -47 -44 -52c-34 22 -86 55 -132 58c-70 -3 -104 -60 -107 -239h175l98 99h13l-1 -93h149v-47l-148 1c-2 -101 -4 -158 -4 -247c0 -56 35 -91 94 -91c23 0 56 14 66 18z
M421 571c-29 33 -75 80 -140 79c-71 -2 -100 -62 -104 -229h214c2 46 10 112 30 150z" />
    <glyph glyph-name=".notdef" horiz-adv-x="500" 
d="M50 0v635h400v-635h-400zM100 585v-535h300v535h-300z" />
    <glyph glyph-name="space" unicode=" " horiz-adv-x="230" 
 />
    <glyph glyph-name="space" unicode="&#xa0;" horiz-adv-x="230" 
 />
    <glyph glyph-name="A" unicode="A" horiz-adv-x="620" 
d="M650 23v-23h-282v23c47 2 86 13 96 34l-71 207h-197l-70 -195c11 -24 51 -44 97 -46v-23h-257v23c46 2 76 10 96 36c27 66 61 149 91 230c41 111 81 220 104 289c12 35 11 47 13 66h103c3 -31 3 -45 13 -77c33 -106 61 -190 89 -274c24 -71 48 -140 80 -226
c11 -30 49 -42 95 -44zM211 308h167l-64 206l-13 55h-4l-15 -55z" />
    <glyph glyph-name="B" unicode="B" horiz-adv-x="600" 
d="M545 205c0 -138 -90 -205 -258 -205h-284v23c46 2 106 13 120 46v509c-9 20 -51 33 -98 35v22c131 1 187 5 268 5c151 0 216 -60 216 -132c0 -62 -24 -101 -115 -140c96 -25 151 -89 151 -163zM415 492c0 66 -56 113 -153 113h-48v-229c27 2 54 2 79 2c26 0 49 -2 68 -2
c40 31 54 67 54 116zM446 198c0 93 -94 145 -187 145c-18 0 -34 -1 -45 -2v-263c17 -34 36 -46 84 -46c101 0 148 71 148 166z" />
    <glyph glyph-name="C" unicode="C" horiz-adv-x="662" 
d="M612 183l24 -6l-35 -155c-73 -23 -99 -35 -214 -35c-201 0 -348 147 -348 336c0 192 156 325 350 325c96 0 152 -18 226 -36v-165h-22c-4 45 -20 96 -59 120c-18 11 -64 43 -160 43c-145 0 -231 -121 -231 -263c0 -188 110 -322 279 -322c55 0 94 18 111 32
c40 32 69 79 79 126z" />
    <glyph glyph-name="D" unicode="D" horiz-adv-x="725" 
d="M686 339c0 -195 -148 -341 -344 -340l-317 1v23c46 2 89 15 98 35v519c-9 20 -57 34 -103 36v22c117 5 214 11 302 11c227 0 364 -117 364 -307zM584 303c0 204 -117 308 -306 308h-64v-546c12 -14 72 -31 113 -31c169 0 257 112 257 269z" />
    <glyph glyph-name="E" unicode="E" horiz-adv-x="584" 
d="M533 161v-161h-332l-207 -3v23c46 2 115 16 129 49v508c-9 20 -49 33 -95 35v22h389c29 0 47 3 60 7h19v-161h-21c-4 88 -42 109 -117 109h-144v-242h135c67 0 96 1 106 74h19v-203h-21c-8 81 -31 80 -104 80h-135v-220c3 -13 9 -27 27 -34l156 3c69 1 114 29 116 114h20
z" />
    <glyph glyph-name="F" unicode="F" horiz-adv-x="536" 
d="M493 641v-161h-21c-4 88 -42 109 -117 109h-141v-249l135 5c67 2 96 3 106 76h19v-210h-21c-8 81 -34 81 -104 82l-135 2v-222c14 -33 70 -48 116 -50v-23h-312v23c46 2 91 12 105 45v506c-10 23 -53 36 -99 38v22h390c23 0 46 2 60 7h19z" />
    <glyph glyph-name="G" unicode="G" horiz-adv-x="709" 
d="M696 279v-22c-46 -2 -69 -16 -80 -36v-172c-69 -33 -145 -64 -257 -64c-193 0 -320 153 -320 336c0 195 159 327 353 327c94 0 148 -17 221 -35v-164h-22c-3 30 -13 75 -50 107c-16 13 -62 54 -162 54c-152 0 -237 -133 -237 -275c0 -182 93 -313 254 -313
c58 0 115 35 132 56v143c-11 20 -69 34 -116 36v22h284z" />
    <glyph glyph-name="H" unicode="H" horiz-adv-x="793" 
d="M763 23v-23h-279v23c46 2 84 15 94 35v241h-364v-241c9 -20 48 -33 94 -35v-23h-279v23c46 2 85 15 94 35v519c-9 20 -48 34 -94 36v22h279v-22c-46 -2 -85 -16 -94 -36v-228h364v228c-10 20 -48 34 -94 36v22h279v-22c-46 -2 -84 -16 -94 -36v-519c10 -20 48 -33 94 -35
z" />
    <glyph glyph-name="I" unicode="I" horiz-adv-x="345" 
d="M318 23v-23h-291v23c47 2 91 15 100 35v519c-9 20 -53 34 -100 36v22h291v-22c-47 -2 -91 -16 -100 -36v-519c9 -20 53 -33 100 -35z" />
    <glyph glyph-name="J" unicode="J" horiz-adv-x="358" 
d="M337 635v-22c-46 -2 -90 -16 -100 -36v-537c0 -172 -100 -253 -270 -256v24c105 6 179 66 179 246v523c-10 20 -60 34 -106 36v22h297z" />
    <glyph glyph-name="K" unicode="K" horiz-adv-x="681" 
d="M696 23v-23h-298v23c50 2 60 13 72 25l-242 268l237 264c-11 13 -26 27 -72 33v22h264v-22c-70 -4 -121 -30 -160 -73l-177 -193l231 -257c42 -46 79 -65 145 -67zM304 23v-23h-271v23c46 2 81 15 90 35v519c-9 20 -44 34 -90 36v22h271v-22c-46 -2 -81 -16 -90 -36v-519
c9 -20 44 -33 90 -35z" />
    <glyph glyph-name="L" unicode="L" horiz-adv-x="553" 
d="M533 191v-191h-524v23c42 2 100 13 114 46v509c-9 20 -48 33 -94 35v22h290v-22c-46 -2 -96 -16 -105 -36v-533l182 5c69 2 114 58 116 142h21z" />
    <glyph glyph-name="M" unicode="M" horiz-adv-x="898" 
d="M883 23v-23h-287v23c46 2 94 15 102 35l-19 370l4 104l-29 -80l-219 -453h-32l-188 472l-21 78l1 -71l-29 -412c7 -20 55 -41 101 -43v-23h-255v23c46 2 86 23 98 43l28 364c3 37 8 108 8 113c0 13 0 25 -1 35c-10 16 -41 33 -87 35v22h184l34 -95l167 -417l196 408
l46 104h160v-22c-46 -2 -77 -17 -87 -33v-27s5 -90 7 -123l21 -372c12 -20 51 -33 97 -35z" />
    <glyph glyph-name="N" unicode="N" horiz-adv-x="777" 
d="M759 635v-22c-47 -2 -85 -24 -95 -44v-389c0 -53 3 -146 6 -188h-39l-402 473l-50 71h-3l3 -65v-233c0 -54 5 -130 6 -172c10 -20 66 -41 112 -43v-23h-271v23c47 2 88 23 97 43v364c0 50 1 104 -5 142c-10 20 -47 39 -93 41v22h176l57 -71l351 -413v247
c0 55 -4 140 -5 171c-10 20 -66 42 -112 44v22h267z" />
    <glyph glyph-name="O" unicode="O" horiz-adv-x="747" 
d="M708 326c0 -201 -159 -341 -356 -341c-198 0 -313 137 -313 329c0 195 158 335 355 335c201 0 314 -139 314 -323zM607 291c0 190 -104 318 -268 318c-101 0 -199 -109 -199 -264c0 -182 94 -319 261 -319c106 0 206 106 206 265z" />
    <glyph glyph-name="P" unicode="P" horiz-adv-x="552" 
d="M523 456c0 -114 -82 -201 -238 -201c-24 0 -40 5 -71 13v-195c14 -33 74 -48 120 -50v-23h-320v23c46 2 95 12 109 45v507c-10 23 -57 36 -103 38v22c111 0 207 3 253 3c170 0 250 -70 250 -182zM425 460c0 78 -52 142 -148 142c-16 0 -40 0 -63 -2v-307
c22 -4 37 -4 56 -4c101 0 155 69 155 171z" />
    <glyph glyph-name="Q" unicode="Q" horiz-adv-x="750" 
d="M796 -180v-22l-93 -7c-15 -1 -31 -2 -43 -2c-72 0 -94 16 -154 75c-38 37 -82 85 -116 122h-14c-197 0 -337 131 -337 331c0 195 152 332 349 332c201 0 320 -138 320 -328c0 -109 -74 -257 -219 -311l84 -88c49 -51 94 -74 117 -84c25 -11 77 -16 106 -18zM608 283
c0 196 -112 327 -275 327c-101 0 -194 -108 -194 -256c0 -186 102 -331 268 -331c106 0 201 110 201 260z" />
    <glyph glyph-name="Q.alt_long" horiz-adv-x="758" 
d="M1131 -145l11 -23c-86 -53 -157 -86 -238 -86c-157 0 -231 58 -357 150c-40 29 -91 66 -130 95c-30 -5 -49 -6 -49 -6c-198 4 -329 135 -329 332c0 195 152 332 349 332c201 0 320 -138 320 -328c0 -137 -85 -248 -191 -298c54 -41 115 -83 149 -105
c161 -102 222 -112 305 -112c44 0 90 15 160 49zM608 283c0 196 -112 327 -275 327c-101 0 -194 -108 -194 -256c0 -186 102 -331 268 -331c106 0 201 110 201 260z" />
    <glyph glyph-name="Q.alt_longer" horiz-adv-x="758" 
d="M1432 -135l13 -20c-89 -80 -186 -121 -333 -121c-117 0 -246 34 -333 73c-157 71 -290 138 -384 191l-27 -3c-198 4 -329 135 -329 332c0 195 152 332 348 332c201 0 321 -138 321 -328c0 -141 -84 -254 -196 -304c128 -67 295 -149 384 -180c137 -47 231 -54 300 -54
c88 0 152 19 236 82zM608 283c0 196 -112 327 -275 327c-101 0 -194 -108 -194 -256c0 -186 102 -331 268 -331c106 0 201 110 201 260z" />
    <glyph glyph-name="R" unicode="R" horiz-adv-x="701" 
d="M739 17l-3 -22l-88 1c-100 1 -100 -3 -165 71c-77 88 -119 147 -155 191h-114v-184c14 -33 63 -49 109 -51v-23h-304v23c46 2 90 13 104 46v506c-10 23 -57 36 -103 38v22c111 0 145 3 262 3c167 0 240 -51 240 -163c0 -63 -44 -137 -120 -171l152 -180
c36 -42 78 -76 89 -83c15 -10 70 -20 96 -24zM424 471c0 71 -48 132 -148 132c-16 0 -39 0 -62 -2v-305h68c111 0 142 69 142 175z" />
    <glyph glyph-name="S" unicode="S" horiz-adv-x="537" 
d="M482 174c0 -118 -103 -189 -237 -189c-77 0 -136 22 -174 39l-18 159h22c9 -44 37 -96 76 -122c26 -17 67 -38 112 -38c89 0 133 52 133 113c0 70 -43 104 -132 138c-132 51 -187 95 -187 190c0 110 103 185 244 185c66 0 113 -15 147 -30v-156h-22c-4 45 -19 95 -58 117
c-16 9 -47 29 -93 29c-94 0 -132 -50 -132 -104c0 -63 21 -94 141 -145c122 -52 178 -92 178 -186z" />
    <glyph glyph-name="T" unicode="T" horiz-adv-x="656" 
d="M626 641v-169h-20c-2 85 -47 115 -121 116l-112 1v-511c22 -47 75 -53 121 -55v-23h-335v23c46 2 109 11 123 41v525l-112 -1c-74 -1 -118 -31 -120 -116h-21v169h19c13 -4 27 -7 60 -7h439c25 0 47 3 60 7h19z" />
    <glyph glyph-name="U" unicode="U" horiz-adv-x="751" 
d="M730 635v-22c-45 -2 -83 -24 -93 -44v-320c0 -184 -113 -265 -268 -265c-159 0 -255 90 -255 247v346c-10 20 -48 34 -93 36v22h280v-22c-46 -2 -86 -16 -96 -36v-331c0 -127 67 -201 187 -201c127 0 190 77 190 221v130c0 55 -4 142 -5 173c-10 20 -64 42 -111 44v22
h264z" />
    <glyph glyph-name="V" unicode="V" horiz-adv-x="636" 
d="M668 635v-22c-46 -2 -92 -27 -104 -56l-237 -568h-55l-196 578c-8 25 -64 42 -110 46v22h298v-22c-46 -2 -87 -15 -96 -36l157 -471l182 460c-10 24 -55 45 -101 47v22h262z" />
    <glyph glyph-name="W" unicode="W" horiz-adv-x="991" 
d="M1019 635v-22c-46 -2 -94 -27 -105 -56l-222 -568h-53l-146 452l-166 -452h-55l-196 578c-8 25 -57 42 -100 46v22h284v-22c-46 -2 -83 -15 -92 -36l157 -471l145 402l-19 59c-8 25 -53 42 -99 46v22h281v-22c-46 -2 -85 -15 -95 -36l152 -471l168 460
c-10 24 -55 45 -101 47v22h262z" />
    <glyph glyph-name="X" unicode="X" horiz-adv-x="647" 
d="M657 635v-22c-67 -4 -113 -33 -141 -73l-145 -206l148 -244c27 -45 65 -65 131 -67v-23h-300v23c50 2 70 13 88 25l-127 222l-145 -215c15 -13 33 -28 78 -32v-23h-256v23c69 4 114 33 141 70l155 216l-144 236c-27 44 -60 65 -126 68v22h296v-22c-51 -3 -71 -15 -89 -26
l124 -214l133 207c-15 12 -23 26 -78 33v22h257z" />
    <glyph glyph-name="Y" unicode="Y" horiz-adv-x="603" 
d="M626 635v-22c-56 -3 -82 -21 -111 -69l-166 -273v-194c21 -47 67 -52 113 -54v-23h-319v23c46 2 101 10 116 40v199l-172 283c-29 47 -56 65 -111 68v22h276v-22c-53 -3 -69 -14 -84 -26l158 -268l156 266c-16 12 -31 25 -84 28v22h228z" />
    <glyph glyph-name="Z" unicode="Z" horiz-adv-x="597" 
d="M580 187v-187h-359c-56 0 -129 -1 -196 -3v20c34 32 65 70 92 108l323 466l-237 -4c-73 -1 -121 -43 -123 -131h-20v184h19c9 -3 23 -7 60 -7h291c38 0 99 0 142 4v-20c-27 -22 -56 -58 -91 -109l-324 -466l284 7c69 2 116 54 118 138h21z" />
    <glyph glyph-name="Agrave" unicode="&#xc0;" horiz-adv-x="620" 
d="M271 916l109 -202l-21 -13l-163 170c10 34 38 46 66 46c2 0 6 0 9 -1zM650 23v-23h-282v23c47 2 86 13 96 34l-71 207h-197l-70 -195c11 -24 51 -44 97 -46v-23h-257v23c46 2 76 10 96 36c27 66 61 149 91 230c41 111 81 220 104 289c12 35 11 47 13 66h103
c3 -31 3 -45 13 -77c33 -106 61 -190 89 -274c24 -71 48 -140 80 -226c11 -30 49 -42 95 -44zM211 308h167l-64 206l-13 55h-4l-15 -55z" />
    <glyph glyph-name="Aacute" unicode="&#xc1;" horiz-adv-x="620" 
d="M448 871l-163 -170l-22 13l109 202c3 1 7 1 10 1c27 0 56 -12 66 -46zM650 23v-23h-282v23c47 2 86 13 96 34l-71 207h-197l-70 -195c11 -24 51 -44 97 -46v-23h-257v23c46 2 76 10 96 36c27 66 61 149 91 230c41 111 81 220 104 289c12 35 11 47 13 66h103
c3 -31 3 -45 13 -77c33 -106 61 -190 89 -274c24 -71 48 -140 80 -226c11 -30 49 -42 95 -44zM211 308h167l-64 206l-13 55h-4l-15 -55z" />
    <glyph glyph-name="Acircumflex" unicode="&#xc2;" horiz-adv-x="620" 
d="M336 910l135 -203l-23 -13l-131 129l-132 -129l-22 13l135 203h38zM650 23v-23h-282v23c47 2 86 13 96 34l-71 207h-197l-70 -195c11 -24 51 -44 97 -46v-23h-257v23c46 2 76 10 96 36c27 66 61 149 91 230c41 111 81 220 104 289c12 35 11 47 13 66h103
c3 -31 3 -45 13 -77c33 -106 61 -190 89 -274c24 -71 48 -140 80 -226c11 -30 49 -42 95 -44zM211 308h167l-64 206l-13 55h-4l-15 -55z" />
    <glyph glyph-name="Atilde" unicode="&#xc3;" horiz-adv-x="620" 
d="M460 852h24c-8 -28 -48 -117 -113 -117c-30 0 -59 12 -76 18c-14 7 -48 18 -70 18c-24 -12 -42 -32 -52 -56h-24c5 30 47 119 110 119c31 0 64 -15 77 -20c16 -7 47 -16 71 -16c25 12 40 30 53 54zM650 23v-23h-282v23c47 2 86 13 96 34l-71 207h-197l-70 -195
c11 -24 51 -44 97 -46v-23h-257v23c46 2 76 10 96 36c27 66 61 149 91 230c41 111 81 220 104 289c12 35 11 47 13 66h103c3 -31 3 -45 13 -77c33 -106 61 -190 89 -274c24 -71 48 -140 80 -226c11 -30 49 -42 95 -44zM211 308h167l-64 206l-13 55h-4l-15 -55z" />
    <glyph glyph-name="Adieresis" unicode="&#xc4;" horiz-adv-x="620" 
d="M487 780c0 -25 -22 -51 -54 -51c-31 0 -53 26 -53 51c0 26 22 53 53 53c32 0 54 -27 54 -53zM263 780c0 -25 -21 -51 -52 -51s-54 26 -54 51c0 26 23 53 54 53s52 -27 52 -53zM650 23v-23h-282v23c47 2 86 13 96 34l-71 207h-197l-70 -195c11 -24 51 -44 97 -46v-23h-257
v23c46 2 76 10 96 36c27 66 61 149 91 230c41 111 81 220 104 289c12 35 11 47 13 66h103c3 -31 3 -45 13 -77c33 -106 61 -190 89 -274c24 -71 48 -140 80 -226c11 -30 49 -42 95 -44zM211 308h167l-64 206l-13 55h-4l-15 -55z" />
    <glyph glyph-name="Aring" unicode="&#xc5;" horiz-adv-x="620" 
d="M438 787c0 -62 -53 -108 -121 -108c-71 0 -119 41 -119 108c0 62 53 106 122 106c70 0 118 -42 118 -106zM650 23v-23h-282v23c47 2 86 13 96 34l-71 207h-197l-70 -195c11 -24 51 -44 97 -46v-23h-257v23c46 2 76 10 96 36c27 66 61 149 91 230c41 111 81 220 104 289
c12 35 11 47 13 66h103c3 -31 3 -45 13 -77c33 -106 61 -190 89 -274c24 -71 48 -140 80 -226c11 -30 49 -42 95 -44zM378 776c0 55 -23 95 -70 95c-30 0 -48 -39 -48 -73c0 -52 23 -97 67 -97c33 0 51 37 51 75zM211 308h167l-64 206l-13 55h-4l-15 -55z" />
    <glyph glyph-name="Amacron" unicode="&#x100;" horiz-adv-x="620" 
d="M472 809v-53h-316v53h316zM650 23v-23h-282v23c47 2 86 13 96 34l-71 207h-197l-70 -195c11 -24 51 -44 97 -46v-23h-257v23c46 2 76 10 96 36c27 66 61 149 91 230c41 111 81 220 104 289c12 35 11 47 13 66h103c3 -31 3 -45 13 -77c33 -106 61 -190 89 -274
c24 -71 48 -140 80 -226c11 -30 49 -42 95 -44zM211 308h167l-64 206l-13 55h-4l-15 -55z" />
    <glyph glyph-name="Abreve" unicode="&#x102;" horiz-adv-x="620" 
d="M421 885h30c0 -51 -9 -106 -37 -142c-20 -26 -57 -43 -95 -43c-42 0 -69 15 -90 37c-31 33 -43 94 -43 148h30c4 -74 46 -118 101 -118c56 0 100 45 104 118zM650 23v-23h-282v23c47 2 86 13 96 34l-71 207h-197l-70 -195c11 -24 51 -44 97 -46v-23h-257v23
c46 2 76 10 96 36c27 66 61 149 91 230c41 111 81 220 104 289c12 35 11 47 13 66h103c3 -31 3 -45 13 -77c33 -106 61 -190 89 -274c24 -71 48 -140 80 -226c11 -30 49 -42 95 -44zM211 308h167l-64 206l-13 55h-4l-15 -55z" />
    <glyph glyph-name="AE" unicode="&#xc6;" horiz-adv-x="932" 
d="M881 161v-161h-524v23c46 2 100 13 114 46v217h-215l-143 -217c4 -24 51 -44 97 -46v-23h-258v23c46 2 86 28 92 36l356 522c-16 13 -64 28 -100 31v22h465c29 0 47 3 60 7h19v-161h-21c-4 88 -42 109 -117 109h-144v-257h135c67 0 96 4 106 77h19v-201h-21
c-8 81 -31 80 -104 80h-135v-210c3 -13 9 -27 27 -34l156 3c69 1 114 29 116 114h20zM285 330h186v266h-17l-32 -62z" />
    <glyph glyph-name="Ccedilla" unicode="&#xc7;" horiz-adv-x="662" 
d="M612 183l24 -6l-35 -155c-63 -20 -91 -31 -170 -34c-22 -19 -41 -43 -41 -51c0 -14 15 -21 35 -38c28 -22 38 -34 38 -59c0 -16 -13 -43 -33 -64c-24 -24 -58 -49 -89 -49c-42 0 -74 18 -74 44c0 18 14 34 29 34c11 0 18 -4 28 -12c16 -11 32 -24 53 -24
c19 0 36 16 36 33c0 19 -18 28 -51 54c-21 16 -35 27 -35 44c0 22 28 52 71 87h-11c-201 0 -348 147 -348 336c0 192 156 325 350 325c96 0 152 -18 226 -36v-165h-22c-4 45 -19 95 -60 120c-18 11 -63 43 -159 43c-145 0 -231 -121 -231 -263c0 -188 110 -322 279 -322
c55 0 94 18 111 32c38 30 69 79 79 126z" />
    <glyph glyph-name="Ccaron" unicode="&#x10c;" horiz-adv-x="662" 
d="M493 904l22 -13l-125 -203h-38l-125 203l23 13l121 -129zM612 183l24 -6l-35 -155c-73 -23 -99 -35 -214 -35c-201 0 -348 147 -348 336c0 192 156 325 350 325c96 0 152 -18 226 -36v-165h-22c-4 45 -20 96 -59 120c-18 11 -64 43 -160 43c-145 0 -231 -121 -231 -263
c0 -188 110 -322 279 -322c55 0 94 18 111 32c40 32 69 79 79 126z" />
    <glyph glyph-name="Eth" unicode="&#xd0;" horiz-adv-x="725" 
d="M686 339c0 -195 -148 -341 -344 -340l-317 1v23c46 2 89 15 98 35v246h-99v41h99v232c-9 20 -57 34 -103 36v22c117 5 214 11 302 11c227 0 364 -117 364 -307zM584 303c0 204 -117 308 -306 308h-64v-266h189v-41h-189v-239c12 -14 72 -31 113 -31
c169 0 257 112 257 269z" />
    <glyph glyph-name="Egrave" unicode="&#xc8;" horiz-adv-x="584" 
d="M258 916l109 -202l-21 -13l-163 170c10 34 38 46 66 46c2 0 6 0 9 -1zM533 161v-161h-332l-207 -3v23c46 2 115 16 129 49v508c-9 20 -49 33 -95 35v22h389c29 0 47 3 60 7h19v-161h-21c-4 88 -42 109 -117 109h-144v-242h135c67 0 96 1 106 74h19v-203h-21
c-8 81 -31 80 -104 80h-135v-220c3 -13 9 -27 27 -34l156 3c69 1 114 29 116 114h20z" />
    <glyph glyph-name="Eacute" unicode="&#xc9;" horiz-adv-x="584" 
d="M429 871l-163 -170l-22 13l109 202c3 1 7 1 10 1c27 0 56 -12 66 -46zM533 161v-161h-332l-207 -3v23c46 2 115 16 129 49v508c-9 20 -49 33 -95 35v22h389c29 0 47 3 60 7h19v-161h-21c-4 88 -42 109 -117 109h-144v-242h135c67 0 96 1 106 74h19v-203h-21
c-8 81 -31 80 -104 80h-135v-220c3 -13 9 -27 27 -34l156 3c69 1 114 29 116 114h20z" />
    <glyph glyph-name="Ecircumflex" unicode="&#xca;" horiz-adv-x="584" 
d="M313 917l135 -203l-23 -13l-131 129l-132 -129l-22 13l135 203h38zM533 161v-161h-332l-207 -3v23c46 2 115 16 129 49v508c-9 20 -49 33 -95 35v22h389c29 0 47 3 60 7h19v-161h-21c-4 88 -42 109 -117 109h-144v-242h135c67 0 96 1 106 74h19v-203h-21
c-8 81 -31 80 -104 80h-135v-220c3 -13 9 -27 27 -34l156 3c69 1 114 29 116 114h20z" />
    <glyph glyph-name="Edieresis" unicode="&#xcb;" horiz-adv-x="584" 
d="M461 780c0 -25 -22 -51 -54 -51c-31 0 -53 26 -53 51c0 26 22 53 53 53c32 0 54 -27 54 -53zM237 780c0 -25 -21 -51 -52 -51s-54 26 -54 51c0 26 23 53 54 53s52 -27 52 -53zM533 161v-161h-332l-207 -3v23c46 2 115 16 129 49v508c-9 20 -49 33 -95 35v22h389
c29 0 47 3 60 7h19v-161h-21c-4 88 -42 109 -117 109h-144v-242h135c67 0 96 1 106 74h19v-203h-21c-8 81 -31 80 -104 80h-135v-220c3 -13 9 -27 27 -34l156 3c69 1 114 29 116 114h20z" />
    <glyph glyph-name="Emacron" unicode="&#x112;" horiz-adv-x="584" 
d="M453 809v-53h-316v53h316zM533 161v-161h-332l-207 -3v23c46 2 115 16 129 49v508c-9 20 -49 33 -95 35v22h389c29 0 47 3 60 7h19v-161h-21c-4 88 -42 109 -117 109h-144v-242h135c67 0 96 1 106 74h19v-203h-21c-8 81 -31 80 -104 80h-135v-220c3 -13 9 -27 27 -34
l156 3c69 1 114 29 116 114h20z" />
    <glyph glyph-name="Igrave" unicode="&#xcc;" horiz-adv-x="345" 
d="M145 916l109 -202l-21 -13l-163 170c10 34 38 46 66 46c2 0 6 0 9 -1zM318 23v-23h-291v23c47 2 91 15 100 35v519c-9 20 -53 34 -100 36v22h291v-22c-47 -2 -91 -16 -100 -36v-519c9 -20 53 -33 100 -35z" />
    <glyph glyph-name="Iacute" unicode="&#xcd;" horiz-adv-x="345" 
d="M285 871l-163 -170l-21 13l109 202c3 1 7 1 9 1c28 0 56 -12 66 -46zM318 23v-23h-291v23c47 2 91 15 100 35v519c-9 20 -53 34 -100 36v22h291v-22c-47 -2 -91 -16 -100 -36v-519c9 -20 53 -33 100 -35z" />
    <glyph glyph-name="Icircumflex" unicode="&#xce;" horiz-adv-x="345" 
d="M192 917l135 -203l-23 -13l-131 129l-132 -129l-22 13l135 203h38zM318 23v-23h-291v23c47 2 91 15 100 35v519c-9 20 -53 34 -100 36v22h291v-22c-47 -2 -91 -16 -100 -36v-519c9 -20 53 -33 100 -35z" />
    <glyph glyph-name="Idieresis" unicode="&#xcf;" horiz-adv-x="345" 
d="M327 780c0 -25 -22 -51 -54 -51c-31 0 -53 26 -53 51c0 26 22 53 53 53c32 0 54 -27 54 -53zM124 780c0 -25 -21 -51 -52 -51s-54 26 -54 51c0 26 23 53 54 53s52 -27 52 -53zM318 23v-23h-291v23c47 2 91 15 100 35v519c-9 20 -53 34 -100 36v22h291v-22
c-47 -2 -91 -16 -100 -36v-519c9 -20 53 -33 100 -35z" />
    <glyph glyph-name="Imacron" unicode="&#x12a;" horiz-adv-x="345" 
d="M324 809v-53h-302v53h302zM318 23v-23h-291v23c47 2 91 15 100 35v519c-9 20 -53 34 -100 36v22h291v-22c-47 -2 -91 -16 -100 -36v-519c9 -20 53 -33 100 -35z" />
    <glyph glyph-name="Lslash" unicode="&#x141;" horiz-adv-x="553" 
d="M533 191v-191h-524v23c42 2 100 13 114 46v213l-95 -36v43l95 35v254c-9 20 -48 33 -94 35v22h290v-22c-46 -2 -96 -16 -105 -36v-224l191 72v-44l-191 -70v-267l182 5c69 2 114 58 116 142h21z" />
    <glyph glyph-name="Ntilde" unicode="&#xd1;" horiz-adv-x="777" 
d="M556 859h24c-8 -28 -48 -117 -113 -117c-30 0 -59 12 -76 18c-14 7 -48 18 -70 18c-24 -12 -42 -32 -52 -56h-24c5 30 47 119 110 119c31 0 64 -15 77 -20c16 -7 47 -16 71 -16c25 12 40 30 53 54zM759 635v-22c-47 -2 -85 -24 -95 -44v-389c0 -53 3 -146 6 -188h-39
l-402 473l-50 71h-3l3 -65v-233c0 -54 5 -130 6 -172c10 -20 66 -41 112 -43v-23h-271v23c47 2 88 23 97 43v364c0 50 1 104 -5 142c-10 20 -47 39 -93 41v22h176l57 -71l351 -413v247c0 55 -4 140 -5 171c-10 20 -66 42 -112 44v22h267z" />
    <glyph glyph-name="Ograve" unicode="&#xd2;" horiz-adv-x="747" 
d="M356 916l109 -202l-21 -13l-163 170c10 34 38 46 66 46c2 0 6 0 9 -1zM708 326c0 -201 -159 -341 -356 -341c-198 0 -313 137 -313 329c0 195 158 335 355 335c201 0 314 -139 314 -323zM607 291c0 190 -104 318 -268 318c-101 0 -199 -109 -199 -264
c0 -182 94 -319 261 -319c106 0 206 106 206 265z" />
    <glyph glyph-name="Oacute" unicode="&#xd3;" horiz-adv-x="747" 
d="M508 871l-163 -170l-22 13l109 202c3 1 7 1 10 1c27 0 56 -12 66 -46zM708 326c0 -201 -159 -341 -356 -341c-198 0 -313 137 -313 329c0 195 158 335 355 335c201 0 314 -139 314 -323zM607 291c0 190 -104 318 -268 318c-101 0 -199 -109 -199 -264
c0 -182 94 -319 261 -319c106 0 206 106 206 265z" />
    <glyph glyph-name="Ocircumflex" unicode="&#xd4;" horiz-adv-x="747" 
d="M407 917l135 -203l-23 -13l-131 129l-132 -129l-22 13l135 203h38zM708 326c0 -201 -159 -341 -356 -341c-198 0 -313 137 -313 329c0 195 158 335 355 335c201 0 314 -139 314 -323zM607 291c0 190 -104 318 -268 318c-101 0 -199 -109 -199 -264
c0 -182 94 -319 261 -319c106 0 206 106 206 265z" />
    <glyph glyph-name="Otilde" unicode="&#xd5;" horiz-adv-x="747" 
d="M531 859h24c-8 -28 -48 -117 -113 -117c-30 0 -59 12 -76 18c-14 7 -48 18 -70 18c-24 -12 -42 -32 -52 -56h-24c5 30 47 119 110 119c31 0 64 -15 77 -20c16 -7 47 -16 71 -16c25 12 40 30 53 54zM708 326c0 -201 -159 -341 -356 -341c-198 0 -313 137 -313 329
c0 195 158 335 355 335c201 0 314 -139 314 -323zM607 291c0 190 -104 318 -268 318c-101 0 -199 -109 -199 -264c0 -182 94 -319 261 -319c106 0 206 106 206 265z" />
    <glyph glyph-name="Odieresis" unicode="&#xd6;" horiz-adv-x="747" 
d="M554 780c0 -25 -22 -51 -54 -51c-31 0 -53 26 -53 51c0 26 22 53 53 53c32 0 54 -27 54 -53zM330 780c0 -25 -21 -51 -52 -51s-54 26 -54 51c0 26 23 53 54 53s52 -27 52 -53zM708 326c0 -201 -159 -341 -356 -341c-198 0 -313 137 -313 329c0 195 158 335 355 335
c201 0 314 -139 314 -323zM607 291c0 190 -104 318 -268 318c-101 0 -199 -109 -199 -264c0 -182 94 -319 261 -319c106 0 206 106 206 265z" />
    <glyph glyph-name="Omacron" unicode="&#x14c;" horiz-adv-x="747" 
d="M534 809v-53h-316v53h316zM708 326c0 -201 -159 -341 -356 -341c-198 0 -313 137 -313 329c0 195 158 335 355 335c201 0 314 -139 314 -323zM607 291c0 190 -104 318 -268 318c-101 0 -199 -109 -199 -264c0 -182 94 -319 261 -319c106 0 206 106 206 265z" />
    <glyph glyph-name="Oslash" unicode="&#xd8;" horiz-adv-x="747" 
d="M708 326c0 -201 -159 -341 -356 -341c-50 0 -95 9 -135 27l-54 -95h-38l62 110c-93 55 -148 159 -148 287c0 195 158 335 355 335c49 0 94 -9 132 -25l47 81h40l-56 -97c96 -53 151 -158 151 -282zM610 291c0 107 -32 197 -90 253l-269 -473c40 -29 91 -45 151 -45
c108 0 208 106 208 265zM225 91l268 473c-42 29 -94 45 -155 45c-103 0 -201 -109 -201 -264c0 -105 30 -196 88 -254z" />
    <glyph glyph-name="OE" unicode="&#x152;" horiz-adv-x="970" 
d="M919 161v-161h-216c-118 0 -210 -11 -298 -11c-227 0 -366 128 -366 318c0 195 146 330 343 330c93 0 153 -3 240 -3h181c29 0 47 3 60 7h19v-161h-21c-4 88 -42 109 -117 109h-144v-242h135c67 0 96 1 106 74h19v-203h-21c-8 81 -31 80 -104 80h-135v-256l183 5
c69 2 114 29 116 114h20zM451 30h58v543c-12 13 -59 29 -112 29c-169 0 -256 -115 -256 -272c0 -204 120 -300 310 -300z" />
    <glyph glyph-name="Scaron" unicode="&#x160;" horiz-adv-x="537" 
d="M421 917l22 -13l-135 -203h-38l-135 203l23 13l131 -129zM482 174c0 -118 -103 -189 -237 -189c-77 0 -136 22 -174 39l-18 159h22c9 -44 37 -96 76 -122c26 -17 67 -38 112 -38c89 0 133 52 133 113c0 70 -43 104 -132 138c-132 51 -187 95 -187 190
c0 110 103 185 244 185c66 0 113 -15 147 -30v-156h-22c-4 45 -19 95 -58 117c-16 9 -47 29 -93 29c-94 0 -132 -50 -132 -104c0 -63 21 -94 141 -145c122 -52 178 -92 178 -186z" />
    <glyph glyph-name="Thorn" unicode="&#xde;" horiz-adv-x="565" 
d="M527 337c0 -114 -83 -203 -239 -203c-24 0 -43 5 -74 13v-76c14 -32 64 -46 110 -48v-23h-304v23c46 2 89 12 103 45v507c-10 23 -51 36 -97 38v22h287v-23c-46 -2 -85 -12 -99 -42v-50h61c177 0 252 -71 252 -183zM428 341c0 78 -53 143 -149 143c-16 0 -42 0 -65 -2
v-309c22 -4 39 -4 58 -4c101 0 156 70 156 172z" />
    <glyph glyph-name="Ugrave" unicode="&#xd9;" horiz-adv-x="751" 
d="M345 916l109 -202l-21 -13l-163 170c10 34 38 46 66 46c2 0 6 0 9 -1zM730 635v-22c-45 -2 -83 -24 -93 -44v-320c0 -184 -113 -265 -268 -265c-159 0 -255 90 -255 247v346c-10 20 -48 34 -93 36v22h280v-22c-46 -2 -86 -16 -96 -36v-331c0 -127 67 -201 187 -201
c127 0 190 77 190 221v130c0 55 -4 142 -5 173c-10 20 -64 42 -111 44v22h264z" />
    <glyph glyph-name="Uacute" unicode="&#xda;" horiz-adv-x="751" 
d="M508 871l-163 -170l-22 13l109 202c3 1 7 1 10 1c27 0 56 -12 66 -46zM730 635v-22c-45 -2 -83 -24 -93 -44v-320c0 -184 -113 -265 -268 -265c-159 0 -255 90 -255 247v346c-10 20 -48 34 -93 36v22h280v-22c-46 -2 -86 -16 -96 -36v-331c0 -127 67 -201 187 -201
c127 0 190 77 190 221v130c0 55 -4 142 -5 173c-10 20 -64 42 -111 44v22h264z" />
    <glyph glyph-name="Ucircumflex" unicode="&#xdb;" horiz-adv-x="751" 
d="M407 917l135 -203l-23 -13l-131 129l-132 -129l-22 13l135 203h38zM730 635v-22c-45 -2 -83 -24 -93 -44v-320c0 -184 -113 -265 -268 -265c-159 0 -255 90 -255 247v346c-10 20 -48 34 -93 36v22h280v-22c-46 -2 -86 -16 -96 -36v-331c0 -127 67 -201 187 -201
c127 0 190 77 190 221v130c0 55 -4 142 -5 173c-10 20 -64 42 -111 44v22h264z" />
    <glyph glyph-name="Udieresis" unicode="&#xdc;" horiz-adv-x="751" 
d="M556 780c0 -25 -22 -51 -54 -51c-31 0 -53 26 -53 51c0 26 22 53 53 53c32 0 54 -27 54 -53zM332 780c0 -25 -21 -51 -52 -51s-54 26 -54 51c0 26 23 53 54 53s52 -27 52 -53zM730 635v-22c-45 -2 -83 -24 -93 -44v-320c0 -184 -113 -265 -268 -265
c-159 0 -255 90 -255 247v346c-10 20 -48 34 -93 36v22h280v-22c-46 -2 -86 -16 -96 -36v-331c0 -127 67 -201 187 -201c127 0 190 77 190 221v130c0 55 -4 142 -5 173c-10 20 -64 42 -111 44v22h264z" />
    <glyph glyph-name="Umacron" unicode="&#x16a;" horiz-adv-x="751" 
d="M541 809v-53h-316v53h316zM730 635v-22c-45 -2 -83 -24 -93 -44v-320c0 -184 -113 -265 -268 -265c-159 0 -255 90 -255 247v346c-10 20 -48 34 -93 36v22h280v-22c-46 -2 -86 -16 -96 -36v-331c0 -127 67 -201 187 -201c127 0 190 77 190 221v130c0 55 -4 142 -5 173
c-10 20 -64 42 -111 44v22h264z" />
    <glyph glyph-name="Yacute" unicode="&#xdd;" horiz-adv-x="603" 
d="M438 871l-163 -170l-22 13l109 202c3 1 7 1 10 1c27 0 56 -12 66 -46zM626 635v-22c-56 -3 -82 -21 -111 -69l-166 -273v-194c21 -47 67 -52 113 -54v-23h-319v23c46 2 101 10 116 40v199l-172 283c-29 47 -56 65 -111 68v22h276v-22c-53 -3 -69 -14 -84 -26l158 -268
l156 266c-16 12 -31 25 -84 28v22h228z" />
    <glyph glyph-name="Ydieresis" unicode="&#x178;" horiz-adv-x="603" 
d="M484 780c0 -25 -22 -51 -54 -51c-31 0 -53 26 -53 51c0 26 22 53 53 53c32 0 54 -27 54 -53zM260 780c0 -25 -21 -51 -52 -51s-54 26 -54 51c0 26 23 53 54 53s52 -27 52 -53zM626 635v-22c-56 -3 -82 -21 -111 -69l-166 -273v-194c21 -47 67 -52 113 -54v-23h-319v23
c46 2 101 10 116 40v199l-172 283c-29 47 -56 65 -111 68v22h276v-22c-53 -3 -69 -14 -84 -26l158 -268l156 266c-16 12 -31 25 -84 28v22h228z" />
    <glyph glyph-name="Zacute" unicode="&#x179;" horiz-adv-x="597" 
d="M432 857l-153 -170l-22 13l98 202c3 1 7 1 10 1c27 0 57 -12 67 -46zM580 187v-187h-359c-56 0 -129 -1 -196 -3v20c34 32 65 70 92 108l323 466l-237 -4c-73 -1 -121 -43 -123 -131h-20v184h19c9 -3 23 -7 60 -7h291c38 0 99 0 142 4v-20c-27 -22 -56 -58 -91 -109
l-324 -466l284 7c69 2 116 54 118 138h21z" />
    <glyph glyph-name="Zcaron" unicode="&#x17d;" horiz-adv-x="597" 
d="M431 917l22 -13l-135 -203h-38l-135 203l23 13l131 -129zM580 187v-187h-359c-56 0 -129 -1 -196 -3v20c34 32 65 70 92 108l323 466l-237 -4c-73 -1 -121 -43 -123 -131h-20v184h19c9 -3 23 -7 60 -7h291c38 0 99 0 142 4v-20c-27 -22 -56 -58 -91 -109l-324 -466l284 7
c69 2 116 54 118 138h21z" />
    <glyph glyph-name="a" unicode="a" horiz-adv-x="431" 
d="M442 73v-26c-24 -25 -73 -56 -105 -56c-51 0 -72 41 -73 64c-35 -36 -90 -64 -127 -64c-49 0 -100 33 -100 91c0 27 4 61 20 84l207 73l1 70c1 46 -37 96 -83 96c-28 0 -52 -35 -54 -84l-81 -15v11c28 84 135 126 179 126c91 0 121 -48 120 -125l-4 -216
c-1 -41 21 -54 42 -54c22 0 35 9 58 25zM263 74l1 141c-26 -12 -102 -41 -131 -57c-4 -16 -7 -38 -7 -58c0 -30 17 -58 47 -58c40 0 59 10 90 32z" />
    <glyph glyph-name="b" unicode="b" horiz-adv-x="521" 
d="M489 240c0 -143 -96 -250 -264 -250c-72 0 -105 17 -146 38l3 561c0 37 2 49 -67 56v19l152 44h14v-14l-21 -35v-278c45 33 101 62 147 62c91 0 182 -62 182 -203zM405 209c0 96 -62 179 -159 179c-25 0 -59 -13 -86 -26v-246c13 -65 69 -93 110 -93c81 0 135 89 135 186
z" />
    <glyph glyph-name="c" unicode="c" horiz-adv-x="395" 
d="M371 110l18 -23c-55 -64 -113 -95 -176 -95c-104 0 -182 78 -182 199c0 154 110 251 237 251c73 0 111 -32 116 -51c-2 -14 -17 -50 -31 -58c-45 17 -76 54 -151 66c-51 -11 -87 -68 -87 -171c0 -111 62 -178 151 -178c46 0 80 26 105 60z" />
    <glyph glyph-name="d" unicode="d" horiz-adv-x="532" 
d="M536 61v-25l-152 -51h-13l-9 73c-45 -33 -105 -67 -152 -67c-90 0 -178 66 -178 207c0 137 93 245 256 245c28 0 57 -9 76 -14l-3 159c-1 41 -15 50 -84 56v19l164 45h16v-14l-19 -34l2 -572c0 -22 12 -35 15 -40zM362 77l-1 246c-18 56 -80 85 -120 85
c-76 0 -123 -87 -123 -180c0 -98 56 -181 153 -181c25 0 63 15 91 30z" />
    <glyph glyph-name="e" unicode="e" horiz-adv-x="418" 
d="M387 104l15 -23c-61 -56 -107 -89 -189 -89c-103 0 -182 83 -182 204c0 147 88 246 209 246c101 0 148 -53 148 -148v-17l-273 2c-1 -9 -2 -31 -2 -54c0 -105 70 -175 153 -175c57 0 78 17 121 54zM119 306l188 2c0 54 -40 104 -85 104c-53 0 -92 -40 -103 -106z" />
    <glyph glyph-name="f" unicode="f" horiz-adv-x="312" 
d="M374 671c-1 -14 -18 -48 -42 -58c-16 11 -62 47 -102 47c-11 0 -35 -26 -45 -96c-3 -20 -8 -94 -8 -141h132v-44h-133l3 -316c22 -40 67 -37 102 -38v-25h-257v23c48 3 65 13 74 30l1 327h-78v25l75 21c0 49 2 114 37 170c42 67 94 115 172 115c41 0 65 -21 69 -40z" />
    <glyph glyph-name="f.alt_long" horiz-adv-x="311" 
d="M436 655c-4 -19 -25 -46 -42 -51c-32 24 -73 52 -120 55c-67 -3 -94 -52 -97 -236h132v-44h-133l3 -316c22 -40 67 -37 102 -38v-25h-257v23c48 3 65 13 74 30l1 327h-78v25l75 21c2 49 10 95 25 126c41 86 110 159 222 159c58 0 93 -34 93 -56z" />
    <glyph glyph-name="g" unicode="g" horiz-adv-x="501" 
d="M501 409v-48l-126 3c10 -15 22 -43 22 -66c0 -100 -88 -158 -182 -158c-24 0 -36 3 -49 7c-17 -15 -29 -30 -36 -48c2 -30 43 -48 90 -49c29 -1 84 -1 140 -6c73 -7 117 -48 117 -111c0 -47 -22 -84 -69 -122c-58 -48 -124 -69 -184 -69c-108 0 -184 44 -184 120
c0 56 71 95 120 118v1c-32 8 -103 34 -103 100v11c25 19 53 38 90 61c-54 23 -97 62 -97 134c0 95 84 156 182 156c51 0 88 -13 125 -34h144zM314 283c0 72 -32 131 -95 131c-48 0 -87 -42 -87 -114c0 -77 47 -131 96 -131c50 0 86 47 86 114zM416 -106c0 44 -26 69 -62 75
c-48 7 -82 8 -160 9c-26 -13 -70 -40 -75 -100c8 -54 67 -84 152 -84c57 0 100 18 123 45c12 14 22 36 22 55z" />
    <glyph glyph-name="h" unicode="h" horiz-adv-x="537" 
d="M526 23v-23h-229v23c49 3 56 15 66 34c5 29 11 94 11 164c0 100 -12 167 -109 167c-25 0 -68 -17 -95 -29v-306c10 -20 15 -25 63 -30v-23h-207v23c48 3 56 13 64 30v535c0 36 2 49 -67 56v19l149 45h16v-14l-19 -34v-282c44 33 112 65 149 65c129 0 139 -109 139 -217
c0 -86 -14 -188 -14 -188c19 -7 51 -12 83 -15z" />
    <glyph glyph-name="i" unicode="i" horiz-adv-x="263" 
d="M187 620c0 -24 -22 -50 -53 -50c-32 0 -54 26 -54 50c0 25 22 52 54 52c31 0 53 -27 53 -52zM243 24v-24h-212v24c49 4 57 13 67 30l1 272c0 23 -13 41 -64 54v18l129 47h12v-391c11 -20 17 -25 67 -30z" />
    <glyph glyph-name="j" unicode="j" horiz-adv-x="252" 
d="M188 620c0 -24 -22 -50 -53 -50c-32 0 -54 26 -54 50c0 25 22 52 54 52c31 0 53 -27 53 -52zM193 442v-13l-16 -36l4 -415c2 -160 -89 -232 -233 -235v26c88 6 152 61 152 216v336c0 33 -11 50 -74 61v17l151 43h16z" />
    <glyph glyph-name="k" unicode="k" horiz-adv-x="490" 
d="M515 23v-23h-228v23c32 1 48 5 55 13l-156 185l155 164c-7 8 -35 16 -65 20v24h210v-24c-46 -3 -86 -14 -113 -41l-109 -110l150 -183c25 -31 56 -46 101 -48zM230 23v-23h-204v23c48 3 56 13 64 30v535c0 36 2 49 -67 56v19l152 45h16v-14l-21 -34v-607
c10 -20 11 -25 60 -30z" />
    <glyph glyph-name="l" unicode="l" horiz-adv-x="258" 
d="M242 23v-23h-220v23c48 3 60 13 68 30v536c0 34 2 48 -67 55v19l150 45h16v-14l-19 -34v-607c10 -20 22 -25 72 -30z" />
    <glyph glyph-name="m" unicode="m" horiz-adv-x="811" 
d="M808 27v-27c-30 1 -76 2 -126 2c-38 0 -73 -2 -98 -3v24c47 3 53 14 62 31l-3 232c-1 51 -31 99 -90 99c-28 0 -73 -15 -104 -35v-297c12 -20 15 -25 64 -30v-23h-204v23c48 3 53 13 60 30v234c0 46 -28 100 -88 100c-26 0 -74 -16 -105 -35v-299c11 -20 14 -25 64 -30
v-23h-205v23c49 3 54 13 63 30v269c0 21 -12 42 -58 57v16l125 50h11v-72c45 33 121 70 157 70c63 0 97 -30 112 -76c43 33 125 75 162 75c90 0 115 -54 116 -137l3 -259c20 -14 44 -16 82 -19z" />
    <glyph glyph-name="n" unicode="n" horiz-adv-x="539" 
d="M536 27v-27h-227v24c48 4 54 13 61 30v233c0 54 -38 100 -93 100c-27 0 -72 -17 -101 -33v-301c11 -20 16 -25 66 -30v-23h-209v23c49 3 56 13 65 30v270c0 20 -16 43 -63 55v19l130 47h11v-71c45 33 121 70 157 70c91 0 118 -55 118 -136v-260c20 -15 40 -16 85 -20z
" />
    <glyph glyph-name="o" unicode="o" horiz-adv-x="498" 
d="M466 217c0 -132 -95 -226 -223 -226c-132 0 -211 88 -211 230c0 130 94 222 224 222c131 0 210 -91 210 -226zM376 191c0 130 -53 220 -147 220c-60 0 -106 -82 -106 -165c0 -124 51 -223 142 -223c67 0 111 79 111 168z" />
    <glyph glyph-name="p" unicode="p" horiz-adv-x="528" 
d="M497 236c0 -142 -94 -245 -259 -245c-27 0 -52 12 -70 17l3 -219c19 -12 48 -15 96 -20v-26h-263v25c49 4 78 13 86 31v526c0 23 -13 42 -61 54v19l128 50h12v-70c44 32 103 64 150 64c91 0 178 -64 178 -206zM412 206c0 96 -58 181 -154 181c-26 0 -62 -14 -88 -27v-243
c16 -60 73 -91 113 -91c78 0 129 86 129 180z" />
    <glyph glyph-name="q" unicode="q" horiz-adv-x="515" 
d="M524 -232v-25h-261v26c48 4 76 9 97 21l1 267c-47 -32 -101 -66 -145 -66c-91 0 -184 67 -184 208c0 142 92 244 251 244c46 0 86 -16 116 -33l23 40h22l-6 -76v-575c9 -18 37 -27 86 -31zM360 77v238c-19 59 -71 94 -112 94c-77 0 -129 -87 -129 -181
c0 -105 62 -182 158 -182c32 0 55 14 83 31z" />
    <glyph glyph-name="r" unicode="r" horiz-adv-x="360" 
d="M366 420l-41 -82h-10c-31 18 -53 28 -79 28s-37 -15 -60 -36v-274c11 -20 49 -25 92 -31v-25h-233v24c49 4 54 13 63 30v275c0 20 -13 37 -63 49v19l127 47h10l2 -95c45 48 85 90 121 90c25 0 48 -8 71 -19z" />
    <glyph glyph-name="s" unicode="s" horiz-adv-x="380" 
d="M340 125c0 -72 -62 -135 -148 -135c-74 0 -117 16 -142 28l-12 111h25c31 -58 78 -109 99 -109c84 0 103 39 103 76c0 42 -35 64 -91 87c-83 34 -123 64 -123 133s68 126 156 126c53 0 95 -15 121 -27l5 -106h-22c-30 58 -70 105 -93 105c-81 0 -93 -43 -93 -69
c0 -42 17 -63 93 -94c78 -32 122 -60 122 -126z" />
    <glyph glyph-name="t" unicode="t" horiz-adv-x="316" 
d="M319 61v-20c-26 -21 -87 -49 -123 -49c-91 0 -118 49 -118 129c0 95 6 166 8 261l-55 -1v21l119 118h13l-1 -93h149v-47l-148 1c-2 -101 -4 -158 -4 -247c0 -56 35 -91 94 -91c23 0 56 14 66 18z" />
    <glyph glyph-name="u" unicode="u" horiz-adv-x="532" 
d="M526 60v-25l-148 -48h-12l-6 68c-45 -32 -122 -66 -158 -66c-89 0 -113 57 -113 139v207c0 35 -17 48 -66 61v20l136 25h11l-1 -296c0 -53 34 -101 93 -101c40 0 69 16 98 31v260c0 40 -14 53 -83 61v20l152 25h9v-353c0 -21 11 -36 20 -40z" />
    <glyph glyph-name="v" unicode="v" horiz-adv-x="465" 
d="M474 429v-23c-43 -2 -64 -30 -75 -56l-148 -350l-38 -8l-142 369c-10 26 -32 43 -76 45v23h217v-23c-35 -2 -50 -10 -64 -18l112 -295l106 278c-8 15 -33 33 -73 35v23h181z" />
    <glyph glyph-name="w" unicode="w" horiz-adv-x="720" 
d="M730 429v-23c-44 -2 -65 -29 -76 -56l-145 -349l-40 -6l-102 297l-114 -291l-39 -6l-143 366c-10 26 -32 43 -76 45v23h216v-23c-35 -2 -50 -10 -64 -18l113 -294l90 239l-10 28c-12 33 -35 43 -78 45v23h214v-23c-34 -2 -49 -10 -61 -18l100 -294l106 277
c-8 15 -32 33 -73 35v23h182z" />
    <glyph glyph-name="x" unicode="x" horiz-adv-x="470" 
d="M469 23v-23h-224v23c33 2 44 7 56 15l-85 139l-94 -133c9 -9 22 -19 52 -21v-23h-172v23c46 2 78 24 96 47l101 132l-101 160c-14 23 -47 42 -92 44v23h225v-23c-34 -2 -45 -9 -57 -17l81 -131l88 127c-11 7 -17 16 -53 21v23h173v-23c-45 -3 -76 -22 -96 -48l-96 -125
l107 -165c18 -28 47 -43 91 -45z" />
    <glyph glyph-name="y" unicode="y" horiz-adv-x="466" 
d="M478 429v-23c-43 -2 -66 -30 -77 -56l-125 -309c-36 -90 -78 -209 -101 -262c-8 -19 -27 -37 -55 -37c-31 0 -49 23 -49 46c0 24 17 45 49 45c9 0 25 -5 33 -8l65 157l-143 379c-9 25 -29 43 -72 45v23h216v-23c-35 -2 -52 -10 -66 -18l112 -300l103 283
c-6 15 -30 33 -70 35v23h180z" />
    <glyph glyph-name="z" unicode="z" horiz-adv-x="407" 
d="M396 134l17 -6c-11 -48 -30 -104 -43 -127h-216c-37 0 -86 -1 -131 -2v20c21 21 40 46 56 71l200 305l-136 -3c-50 -1 -82 -38 -84 -96h-20v139h18c11 -7 22 -9 44 -9h194c25 0 68 0 96 4v-19c-19 -16 -34 -39 -57 -74l-202 -305l154 5c46 1 90 43 110 97z" />
    <glyph glyph-name="agrave" unicode="&#xe0;" horiz-adv-x="431" 
d="M181 710l98 -202l-21 -13l-154 170c11 34 40 46 68 46c2 0 6 0 9 -1zM442 73v-26c-24 -25 -73 -56 -105 -56c-51 0 -72 41 -73 64c-35 -36 -90 -64 -127 -64c-49 0 -100 33 -100 91c0 27 4 61 20 84l207 73l1 70c1 46 -37 96 -83 96c-28 0 -52 -35 -54 -84l-81 -15v11
c28 84 135 126 179 126c91 0 121 -48 120 -125l-4 -216c-1 -41 21 -54 42 -54c22 0 35 9 58 25zM263 74l1 141c-26 -12 -102 -41 -131 -57c-4 -16 -7 -38 -7 -58c0 -30 17 -58 47 -58c40 0 59 10 90 32z" />
    <glyph glyph-name="aacute" unicode="&#xe1;" horiz-adv-x="431" 
d="M337 665l-154 -170l-21 13l98 202c3 1 7 1 10 1c27 0 56 -12 67 -46zM442 73v-26c-24 -25 -73 -56 -105 -56c-51 0 -72 41 -73 64c-35 -36 -90 -64 -127 -64c-49 0 -100 33 -100 91c0 27 4 61 20 84l207 73l1 70c1 46 -37 96 -83 96c-28 0 -52 -35 -54 -84l-81 -15v11
c28 84 135 126 179 126c91 0 121 -48 120 -125l-4 -216c-1 -41 21 -54 42 -54c22 0 35 9 58 25zM263 74l1 141c-26 -12 -102 -41 -131 -57c-4 -16 -7 -38 -7 -58c0 -30 17 -58 47 -58c40 0 59 10 90 32z" />
    <glyph glyph-name="acircumflex" unicode="&#xe2;" horiz-adv-x="431" 
d="M226 711l126 -203l-23 -13l-121 129l-122 -129l-22 13l125 203h37zM442 73v-26c-24 -25 -73 -56 -105 -56c-51 0 -72 41 -73 64c-35 -36 -90 -64 -127 -64c-49 0 -100 33 -100 91c0 27 4 61 20 84l207 73l1 70c1 46 -37 96 -83 96c-28 0 -52 -35 -54 -84l-81 -15v11
c28 84 135 126 179 126c91 0 121 -48 120 -125l-4 -216c-1 -41 21 -54 42 -54c22 0 35 9 58 25zM263 74l1 141c-26 -12 -102 -41 -131 -57c-4 -16 -7 -38 -7 -58c0 -30 17 -58 47 -58c40 0 59 10 90 32z" />
    <glyph glyph-name="atilde" unicode="&#xe3;" horiz-adv-x="431" 
d="M338 673h23c-6 -29 -40 -119 -101 -119c-28 0 -56 12 -72 19c-13 5 -44 18 -66 18c-23 -13 -35 -32 -45 -57h-23c6 30 41 120 100 120c29 0 60 -15 72 -20c15 -6 44 -17 67 -17c24 13 34 31 45 56zM442 73v-26c-24 -25 -73 -56 -105 -56c-51 0 -72 41 -73 64
c-35 -36 -90 -64 -127 -64c-49 0 -100 33 -100 91c0 27 4 61 20 84l207 73l1 70c1 46 -37 96 -83 96c-28 0 -52 -35 -54 -84l-81 -15v11c28 84 135 126 179 126c91 0 121 -48 120 -125l-4 -216c-1 -41 21 -54 42 -54c22 0 35 9 58 25zM263 74l1 141
c-26 -12 -102 -41 -131 -57c-4 -16 -7 -38 -7 -58c0 -30 17 -58 47 -58c40 0 59 10 90 32z" />
    <glyph glyph-name="adieresis" unicode="&#xe4;" horiz-adv-x="431" 
d="M364 587c0 -25 -21 -50 -52 -50s-53 25 -53 50c0 26 22 52 53 52s52 -26 52 -52zM158 587c0 -25 -21 -50 -52 -50s-53 25 -53 50c0 26 22 52 53 52s52 -26 52 -52zM442 73v-26c-24 -25 -73 -56 -105 -56c-51 0 -72 41 -73 64c-35 -36 -90 -64 -127 -64
c-49 0 -100 33 -100 91c0 27 4 61 20 84l207 73l1 70c1 46 -37 96 -83 96c-28 0 -52 -35 -54 -84l-81 -15v11c28 84 135 126 179 126c91 0 121 -48 120 -125l-4 -216c-1 -41 21 -54 42 -54c22 0 35 9 58 25zM263 74l1 141c-26 -12 -102 -41 -131 -57c-4 -16 -7 -38 -7 -58
c0 -30 17 -58 47 -58c40 0 59 10 90 32z" />
    <glyph glyph-name="aring" unicode="&#xe5;" horiz-adv-x="431" 
d="M328 605c0 -62 -51 -108 -117 -108c-69 0 -115 41 -115 108c0 62 51 106 118 106c68 0 114 -42 114 -106zM442 73v-26c-24 -25 -73 -56 -105 -56c-51 0 -72 41 -73 64c-35 -36 -90 -64 -127 -64c-49 0 -100 33 -100 91c0 27 4 61 20 84l207 73l1 70c1 46 -37 96 -83 96
c-28 0 -52 -35 -54 -84l-81 -15v11c28 84 135 126 179 126c91 0 121 -48 120 -125l-4 -216c-1 -41 21 -54 42 -54c22 0 35 9 58 25zM272 594c0 55 -23 95 -70 95c-30 0 -48 -39 -48 -73c0 -52 23 -97 67 -97c33 0 51 37 51 75zM263 74l1 141c-26 -12 -102 -41 -131 -57
c-4 -16 -7 -38 -7 -58c0 -30 17 -58 47 -58c40 0 59 10 90 32z" />
    <glyph glyph-name="amacron" unicode="&#x101;" horiz-adv-x="431" 
d="M358 616v-53h-296v53h296zM442 73v-26c-24 -25 -73 -56 -105 -56c-51 0 -72 41 -73 64c-35 -36 -90 -64 -127 -64c-49 0 -100 33 -100 91c0 27 4 61 20 84l207 73l1 70c1 46 -37 96 -83 96c-28 0 -52 -35 -54 -84l-81 -15v11c28 84 135 126 179 126
c91 0 121 -48 120 -125l-4 -216c-1 -41 21 -54 42 -54c22 0 35 9 58 25zM263 74l1 141c-26 -12 -102 -41 -131 -57c-4 -16 -7 -38 -7 -58c0 -30 17 -58 47 -58c40 0 59 10 90 32z" />
    <glyph glyph-name="abreve" unicode="&#x103;" horiz-adv-x="431" 
d="M313 693h30c0 -51 -9 -106 -37 -142c-20 -26 -57 -43 -95 -43c-42 0 -69 15 -90 37c-31 33 -43 94 -43 148h30c4 -74 46 -118 101 -118c56 0 100 45 104 118zM442 73v-26c-24 -25 -73 -56 -105 -56c-51 0 -72 41 -73 64c-35 -36 -90 -64 -127 -64c-49 0 -100 33 -100 91
c0 27 4 61 20 84l207 73l1 70c1 46 -37 96 -83 96c-28 0 -52 -35 -54 -84l-81 -15v11c28 84 135 126 179 126c91 0 121 -48 120 -125l-4 -216c-1 -41 21 -54 42 -54c22 0 35 9 58 25zM263 74l1 141c-26 -12 -102 -41 -131 -57c-4 -16 -7 -38 -7 -58c0 -30 17 -58 47 -58
c40 0 59 10 90 32z" />
    <glyph glyph-name="ae" unicode="&#xe6;" horiz-adv-x="630" 
d="M596 112l16 -24c-56 -65 -118 -94 -189 -94c-60 0 -109 29 -135 72c-42 -49 -111 -74 -151 -74c-49 0 -100 31 -100 88c0 27 4 60 20 83l211 72v68c0 55 -35 101 -88 101c-24 0 -51 -33 -52 -84l-82 -14v9c26 92 133 128 178 128c56 0 92 -24 110 -59c34 36 84 59 126 59
c101 0 134 -53 141 -143l-254 -76c0 -38 9 -84 18 -107c20 -51 58 -63 111 -63c40 0 80 19 120 58zM347 249l172 60c-5 44 -31 104 -79 104c-56 0 -91 -58 -93 -164zM281 85c-8 34 -13 82 -13 125c-25 -12 -107 -42 -136 -59c-4 -16 -6 -33 -6 -54c0 -29 18 -55 50 -55
c43 0 78 14 105 43z" />
    <glyph glyph-name="ccedilla" unicode="&#xe7;" horiz-adv-x="395" 
d="M371 110l18 -23c-35 -41 -57 -53 -88 -75c-42 -30 -61 -61 -61 -66c0 -15 18 -21 37 -37c27 -23 38 -35 38 -60c0 -14 -12 -41 -32 -62c-22 -24 -55 -48 -84 -48c-40 0 -71 17 -71 42c0 19 14 34 29 34c10 0 16 -4 26 -11c15 -11 30 -25 50 -25c18 0 34 18 34 35
c0 19 -16 28 -48 53c-19 16 -34 26 -34 43c0 22 32 57 74 91c-17 -6 -36 -8 -47 -8c-103 0 -181 76 -181 198c0 154 111 251 237 251c73 0 111 -32 116 -51c-2 -14 -17 -50 -31 -58c-45 17 -76 54 -151 66c-50 -11 -87 -68 -87 -171c0 -113 62 -177 150 -177
c49 0 81 25 106 59z" />
    <glyph glyph-name="ccaron" unicode="&#x10d;" horiz-adv-x="395" 
d="M352 712l22 -13l-125 -203h-38l-125 203l23 13l121 -129zM371 110l18 -23c-55 -64 -113 -95 -176 -95c-104 0 -182 78 -182 199c0 154 110 251 237 251c73 0 111 -32 116 -51c-2 -14 -17 -50 -31 -58c-45 17 -76 54 -151 66c-51 -11 -87 -68 -87 -171
c0 -111 62 -178 151 -178c46 0 80 26 105 60z" />
    <glyph glyph-name="eth" unicode="&#xf0;" horiz-adv-x="507" 
d="M469 266c0 -177 -89 -275 -225 -275c-132 0 -212 88 -212 230c0 130 101 222 231 222c19 0 59 -9 85 -17l1 2c-19 58 -48 101 -73 133l-124 -65v42l102 52c-26 32 -45 47 -58 54h-81v19l105 43h14c16 -7 50 -41 84 -83l118 62v-42l-96 -49c58 -78 129 -213 129 -328z
M388 233c0 44 -3 84 -18 126c-19 22 -78 52 -132 52c-60 0 -115 -82 -115 -165c0 -124 53 -223 144 -223c64 0 121 71 121 210z" />
    <glyph glyph-name="egrave" unicode="&#xe8;" horiz-adv-x="418" 
d="M200 710l98 -202l-22 -13l-154 170c11 34 41 46 68 46c3 0 7 0 10 -1zM387 104l15 -23c-61 -56 -107 -89 -189 -89c-103 0 -182 83 -182 204c0 147 88 246 209 246c101 0 148 -53 148 -148v-17l-273 2c-1 -9 -2 -31 -2 -54c0 -105 70 -175 153 -175c57 0 78 17 121 54z
M119 306l188 2c0 54 -40 104 -85 104c-53 0 -92 -40 -103 -106z" />
    <glyph glyph-name="eacute" unicode="&#xe9;" horiz-adv-x="418" 
d="M363 665l-154 -170l-22 13l98 202c3 1 7 1 10 1c27 0 57 -12 68 -46zM387 104l15 -23c-61 -56 -107 -89 -189 -89c-103 0 -182 83 -182 204c0 147 88 246 209 246c101 0 148 -53 148 -148v-17l-273 2c-1 -9 -2 -31 -2 -54c0 -105 70 -175 153 -175c57 0 78 17 121 54z
M119 306l188 2c0 54 -40 104 -85 104c-53 0 -92 -40 -103 -106z" />
    <glyph glyph-name="ecircumflex" unicode="&#xea;" horiz-adv-x="418" 
d="M251 711l125 -203l-22 -13l-122 129l-121 -129l-23 13l126 203h37zM387 104l15 -23c-61 -56 -107 -89 -189 -89c-103 0 -182 83 -182 204c0 147 88 246 209 246c101 0 148 -53 148 -148v-17l-273 2c-1 -9 -2 -31 -2 -54c0 -105 70 -175 153 -175c57 0 78 17 121 54z
M119 306l188 2c0 54 -40 104 -85 104c-53 0 -92 -40 -103 -106z" />
    <glyph glyph-name="edieresis" unicode="&#xeb;" horiz-adv-x="418" 
d="M390 587c0 -25 -21 -50 -52 -50c-30 0 -53 25 -53 50c0 26 23 52 53 52c31 0 52 -26 52 -52zM182 587c0 -25 -20 -50 -52 -50c-30 0 -53 25 -53 50c0 26 23 52 53 52c32 0 52 -26 52 -52zM387 104l15 -23c-61 -56 -107 -89 -189 -89c-103 0 -182 83 -182 204
c0 147 88 246 209 246c101 0 148 -53 148 -148v-17l-273 2c-1 -9 -2 -31 -2 -54c0 -105 70 -175 153 -175c57 0 78 17 121 54zM119 306l188 2c0 54 -40 104 -85 104c-53 0 -92 -40 -103 -106z" />
    <glyph glyph-name="emacron" unicode="&#x113;" horiz-adv-x="418" 
d="M380 616v-53h-296v53h296zM387 104l15 -23c-61 -56 -107 -89 -189 -89c-103 0 -182 83 -182 204c0 147 88 246 209 246c101 0 148 -53 148 -148v-17l-273 2c-1 -9 -2 -31 -2 -54c0 -105 70 -175 153 -175c57 0 78 17 121 54zM119 306l188 2c0 54 -40 104 -85 104
c-53 0 -92 -40 -103 -106z" />
    <glyph glyph-name="igrave" unicode="&#xec;" horiz-adv-x="263" 
d="M90 710l98 -202l-21 -13l-154 170c10 34 40 46 67 46c3 0 7 0 10 -1zM243 24v-24h-212v24c49 4 57 13 67 30l1 272c0 23 -13 41 -64 54v18l129 47h12v-391c11 -20 17 -25 67 -30z" />
    <glyph glyph-name="iacute" unicode="&#xed;" horiz-adv-x="263" 
d="M240 665l-154 -170l-21 13l98 202c3 1 7 1 9 1c28 0 57 -12 68 -46zM243 24v-24h-212v24c49 4 57 13 67 30l1 272c0 23 -13 41 -64 54v18l129 47h12v-391c11 -20 17 -25 67 -30z" />
    <glyph glyph-name="icircumflex" unicode="&#xee;" horiz-adv-x="263" 
d="M143 711l116 -203l-23 -13l-112 129l-111 -129l-23 13l116 203h37zM243 24v-24h-212v24c49 4 57 13 67 30l1 272c0 23 -13 41 -64 54v18l129 47h12v-391c11 -20 17 -25 67 -30z" />
    <glyph glyph-name="idieresis" unicode="&#xef;" horiz-adv-x="263" 
d="M275 587c0 -25 -20 -50 -52 -50c-30 0 -53 25 -53 50c0 26 23 52 53 52c32 0 52 -26 52 -52zM87 587c0 -25 -20 -50 -52 -50c-30 0 -53 25 -53 50c0 26 23 52 53 52c32 0 52 -26 52 -52zM243 24v-24h-212v24c49 4 57 13 67 30l1 272c0 23 -13 41 -64 54v18l129 47h12
v-391c11 -20 17 -25 67 -30z" />
    <glyph glyph-name="imacron" unicode="&#x12b;" horiz-adv-x="263" 
d="M261 616v-53h-259v53h259zM243 24v-24h-212v24c49 4 57 13 67 30l1 272c0 23 -13 41 -64 54v18l129 47h12v-391c11 -20 17 -25 67 -30z" />
    <glyph glyph-name="dotlessi" unicode="&#x131;" horiz-adv-x="263" 
d="M243 24v-24h-212v24c49 4 57 13 67 30l1 272c0 23 -13 41 -64 54v18l129 47h12v-391c11 -20 17 -25 67 -30z" />
    <glyph glyph-name="lslash" unicode="&#x142;" horiz-adv-x="266" 
d="M271 409v-42l-97 -36v-276c10 -20 22 -25 72 -30v-23h-220v23c48 3 60 13 68 30v250l-95 -36v42l95 35v245c0 34 2 48 -67 55v19l150 45h16v-14l-19 -34v-290z" />
    <glyph glyph-name="ntilde" unicode="&#xf1;" horiz-adv-x="539" 
d="M402 673h22c-6 -29 -41 -119 -102 -119c-27 0 -56 12 -72 19c-13 5 -45 18 -68 18c-22 -13 -35 -32 -46 -57h-22c6 30 42 120 101 120c29 0 60 -15 73 -20c15 -6 44 -17 68 -17c23 13 35 31 46 56zM536 27v-27h-227v24c48 4 54 13 61 30v233c0 54 -38 100 -93 100
c-27 0 -72 -17 -101 -33v-301c11 -20 16 -25 66 -30v-23h-209v23c49 3 56 13 65 30v270c0 20 -16 43 -63 55v19l130 47h11v-71c45 33 121 70 157 70c91 0 118 -55 118 -136v-260c20 -15 40 -16 85 -20z" />
    <glyph glyph-name="ograve" unicode="&#xf2;" horiz-adv-x="498" 
d="M230 710l98 -202l-21 -13l-154 170c11 34 40 46 68 46c2 0 6 0 9 -1zM466 217c0 -132 -95 -226 -223 -226c-132 0 -211 88 -211 230c0 130 94 222 224 222c131 0 210 -91 210 -226zM376 191c0 130 -53 220 -147 220c-60 0 -106 -82 -106 -165c0 -124 51 -223 142 -223
c67 0 111 79 111 168z" />
    <glyph glyph-name="oacute" unicode="&#xf3;" horiz-adv-x="498" 
d="M366 665l-154 -170l-22 13l98 202c3 1 7 1 10 1c27 0 57 -12 68 -46zM466 217c0 -132 -95 -226 -223 -226c-132 0 -211 88 -211 230c0 130 94 222 224 222c131 0 210 -91 210 -226zM376 191c0 130 -53 220 -147 220c-60 0 -106 -82 -106 -165c0 -124 51 -223 142 -223
c67 0 111 79 111 168z" />
    <glyph glyph-name="ocircumflex" unicode="&#xf4;" horiz-adv-x="498" 
d="M269 711l125 -203l-23 -13l-121 129l-122 -129l-22 13l125 203h38zM466 217c0 -132 -95 -226 -223 -226c-132 0 -211 88 -211 230c0 130 94 222 224 222c131 0 210 -91 210 -226zM376 191c0 130 -53 220 -147 220c-60 0 -106 -82 -106 -165c0 -124 51 -223 142 -223
c67 0 111 79 111 168z" />
    <glyph glyph-name="otilde" unicode="&#xf5;" horiz-adv-x="498" 
d="M386 673h23c-6 -29 -41 -119 -102 -119c-28 0 -57 12 -73 19c-13 5 -45 18 -67 18c-23 -13 -36 -32 -46 -57h-23c6 30 42 120 101 120c29 0 61 -15 73 -20c15 -6 45 -17 68 -17c24 13 35 31 46 56zM466 217c0 -132 -95 -226 -223 -226c-132 0 -211 88 -211 230
c0 130 94 222 224 222c131 0 210 -91 210 -226zM376 191c0 130 -53 220 -147 220c-60 0 -106 -82 -106 -165c0 -124 51 -223 142 -223c67 0 111 79 111 168z" />
    <glyph glyph-name="odieresis" unicode="&#xf6;" horiz-adv-x="498" 
d="M407 587c0 -25 -21 -50 -52 -50s-53 25 -53 50c0 26 22 52 53 52s52 -26 52 -52zM199 587c0 -25 -21 -50 -52 -50c-30 0 -53 25 -53 50c0 26 23 52 53 52c31 0 52 -26 52 -52zM466 217c0 -132 -95 -226 -223 -226c-132 0 -211 88 -211 230c0 130 94 222 224 222
c131 0 210 -91 210 -226zM376 191c0 130 -53 220 -147 220c-60 0 -106 -82 -106 -165c0 -124 51 -223 142 -223c67 0 111 79 111 168z" />
    <glyph glyph-name="omacron" unicode="&#x14d;" horiz-adv-x="498" 
d="M400 616v-53h-302v53h302zM466 217c0 -132 -95 -226 -223 -226c-132 0 -211 88 -211 230c0 130 94 222 224 222c131 0 210 -91 210 -226zM376 191c0 130 -53 220 -147 220c-60 0 -106 -82 -106 -165c0 -124 51 -223 142 -223c67 0 111 79 111 168z" />
    <glyph glyph-name="oslash" unicode="&#xf8;" horiz-adv-x="498" 
d="M466 217c0 -132 -95 -226 -223 -226c-36 0 -67 6 -94 19l-52 -90h-34l59 105c-57 39 -90 108 -90 196c0 130 94 222 224 222c34 0 65 -7 90 -19l45 80h36l-54 -94c59 -38 93 -108 93 -193zM381 191c0 71 -15 123 -41 162l-163 -292c23 -25 52 -38 88 -38
c69 0 116 79 116 168zM157 85l161 290c-25 26 -52 36 -89 36c-62 0 -111 -82 -111 -165c0 -72 14 -121 39 -161z" />
    <glyph glyph-name="oe" unicode="&#x153;" horiz-adv-x="742" 
d="M711 103l14 -24c-61 -55 -102 -87 -182 -87c-58 0 -114 33 -143 79c-39 -46 -94 -79 -162 -79c-130 0 -206 87 -206 229c0 131 92 222 219 222c72 0 125 -34 164 -85c37 51 93 85 158 85c97 0 139 -52 139 -145v-21l-262 2c-1 -8 -3 -33 -3 -51c0 -108 64 -177 147 -177
c58 0 74 15 117 52zM455 306l177 2c0 52 -31 105 -74 105c-52 0 -91 -40 -103 -107zM366 193c0 130 -48 217 -138 217c-56 0 -105 -74 -105 -165c0 -123 47 -221 133 -221c62 0 110 70 110 169z" />
    <glyph glyph-name="scaron" unicode="&#x161;" horiz-adv-x="380" 
d="M322 711l22 -13l-125 -203h-38l-125 203l23 13l121 -129zM340 125c0 -72 -62 -135 -148 -135c-74 0 -117 16 -142 28l-12 111h25c31 -58 78 -109 99 -109c84 0 103 39 103 76c0 42 -35 64 -91 87c-83 34 -123 64 -123 133s68 126 156 126c53 0 95 -15 121 -27l5 -106h-22
c-30 58 -70 105 -93 105c-81 0 -93 -43 -93 -69c0 -42 17 -63 93 -94c78 -32 122 -60 122 -126z" />
    <glyph glyph-name="germandbls" unicode="&#xdf;" horiz-adv-x="552" 
d="M526 141c0 -89 -78 -151 -155 -151c-38 0 -73 10 -100 23l-12 112h22c27 -66 74 -106 87 -106c50 0 86 35 86 81c0 52 -31 83 -76 115c-48 34 -106 57 -106 134c0 64 45 86 84 125c21 21 37 45 37 86c0 55 -51 107 -112 107c-81 0 -112 -99 -112 -220v-394
c14 -23 40 -27 68 -28v-25h-214v23c40 2 57 13 66 30v373c0 37 1 90 28 149c22 47 86 133 192 133c100 0 153 -60 153 -123c0 -56 -33 -82 -72 -119c-25 -25 -42 -45 -42 -80c0 -41 34 -69 71 -95c59 -41 107 -72 107 -150z" />
    <glyph glyph-name="thorn" unicode="&#xfe;" horiz-adv-x="520" 
d="M489 236c0 -142 -94 -245 -259 -245c-20 0 -50 14 -70 22l3 -224c19 -12 48 -15 96 -20v-26h-263v25c49 4 78 13 86 31v790c0 37 2 49 -67 56v19l153 44h14v-14l-21 -35l-1 -281c44 32 104 64 151 64c91 0 178 -64 178 -206zM404 206c0 96 -58 181 -154 181
c-26 0 -62 -14 -88 -27v-253c16 -60 73 -81 113 -81c78 0 129 86 129 180z" />
    <glyph glyph-name="ugrave" unicode="&#xf9;" horiz-adv-x="532" 
d="M232 710l98 -202l-21 -13l-154 170c11 34 40 46 67 46c3 0 7 0 10 -1zM526 60v-25l-148 -48h-12l-6 68c-45 -32 -122 -66 -158 -66c-89 0 -113 57 -113 139v207c0 35 -17 48 -66 61v20l136 25h11l-1 -296c0 -53 34 -101 93 -101c40 0 69 16 98 31v260c0 40 -14 53 -83 61
v20l152 25h9v-353c0 -21 11 -36 20 -40z" />
    <glyph glyph-name="uacute" unicode="&#xfa;" horiz-adv-x="532" 
d="M386 665l-154 -170l-21 13l98 202c3 1 7 1 9 1c28 0 57 -12 68 -46zM526 60v-25l-148 -48h-12l-6 68c-45 -32 -122 -66 -158 -66c-89 0 -113 57 -113 139v207c0 35 -17 48 -66 61v20l136 25h11l-1 -296c0 -53 34 -101 93 -101c40 0 69 16 98 31v260c0 40 -14 53 -83 61
v20l152 25h9v-353c0 -21 11 -36 20 -40z" />
    <glyph glyph-name="ucircumflex" unicode="&#xfb;" horiz-adv-x="532" 
d="M276 711l126 -203l-23 -13l-121 129l-122 -129l-22 13l125 203h37zM526 60v-25l-148 -48h-12l-6 68c-45 -32 -122 -66 -158 -66c-89 0 -113 57 -113 139v207c0 35 -17 48 -66 61v20l136 25h11l-1 -296c0 -53 34 -101 93 -101c40 0 69 16 98 31v260c0 40 -14 53 -83 61v20
l152 25h9v-353c0 -21 11 -36 20 -40z" />
    <glyph glyph-name="udieresis" unicode="&#xfc;" horiz-adv-x="532" 
d="M414 592c0 -25 -21 -50 -52 -50s-53 25 -53 50c0 26 22 52 53 52s52 -26 52 -52zM206 592c0 -25 -21 -50 -52 -50s-53 25 -53 50c0 26 22 52 53 52s52 -26 52 -52zM526 60v-25l-148 -48h-12l-6 68c-45 -32 -122 -66 -158 -66c-89 0 -113 57 -113 139v207
c0 35 -17 48 -66 61v20l136 25h11l-1 -296c0 -53 34 -101 93 -101c40 0 69 16 98 31v260c0 40 -14 53 -83 61v20l152 25h9v-353c0 -21 11 -36 20 -40z" />
    <glyph glyph-name="umacron" unicode="&#x16b;" horiz-adv-x="532" 
d="M411 616v-53h-302v53h302zM526 60v-25l-148 -48h-12l-6 68c-45 -32 -122 -66 -158 -66c-89 0 -113 57 -113 139v207c0 35 -17 48 -66 61v20l136 25h11l-1 -296c0 -53 34 -101 93 -101c40 0 69 16 98 31v260c0 40 -14 53 -83 61v20l152 25h9v-353c0 -21 11 -36 20 -40z
" />
    <glyph glyph-name="yacute" unicode="&#xfd;" horiz-adv-x="466" 
d="M362 665l-154 -170l-21 13l98 202c3 1 7 1 9 1c28 0 57 -12 68 -46zM478 429v-23c-43 -2 -66 -30 -77 -56l-125 -309c-36 -90 -78 -209 -101 -262c-8 -19 -27 -37 -55 -37c-31 0 -49 23 -49 46c0 24 17 45 49 45c9 0 25 -5 33 -8l65 157l-143 379c-9 25 -29 43 -72 45v23
h216v-23c-35 -2 -52 -10 -66 -18l112 -300l103 283c-6 15 -30 33 -70 35v23h180z" />
    <glyph glyph-name="ydieresis" unicode="&#xff;" horiz-adv-x="466" 
d="M408 592c0 -25 -21 -50 -52 -50s-53 25 -53 50c0 26 22 52 53 52s52 -26 52 -52zM200 592c0 -25 -21 -50 -52 -50c-30 0 -53 25 -53 50c0 26 23 52 53 52c31 0 52 -26 52 -52zM478 429v-23c-43 -2 -66 -30 -77 -56l-125 -309c-36 -90 -78 -209 -101 -262
c-8 -19 -27 -37 -55 -37c-31 0 -49 23 -49 46c0 24 17 45 49 45c9 0 25 -5 33 -8l65 157l-143 379c-9 25 -29 43 -72 45v23h216v-23c-35 -2 -52 -10 -66 -18l112 -300l103 283c-6 15 -30 33 -70 35v23h180z" />
    <glyph glyph-name="zacute" unicode="&#x17a;" horiz-adv-x="407" 
d="M339 665l-153 -170l-22 13l98 202c3 1 7 1 10 1c27 0 57 -12 67 -46zM396 134l17 -6c-11 -48 -30 -104 -43 -127h-216c-37 0 -86 -1 -131 -2v20c21 21 40 46 56 71l200 305l-136 -3c-50 -1 -82 -38 -84 -96h-20v139h18c11 -7 22 -9 44 -9h194c25 0 68 0 96 4v-19
c-19 -16 -34 -39 -57 -74l-202 -305l154 5c46 1 90 43 110 97z" />
    <glyph glyph-name="zcaron" unicode="&#x17e;" horiz-adv-x="407" 
d="M333 712l22 -13l-125 -203h-38l-125 203l23 13l121 -129zM396 134l17 -6c-11 -48 -30 -104 -43 -127h-216c-37 0 -86 -1 -131 -2v20c21 21 40 46 56 71l200 305l-136 -3c-50 -1 -82 -38 -84 -96h-20v139h18c11 -7 22 -9 44 -9h194c25 0 68 0 96 4v-19
c-19 -16 -34 -39 -57 -74l-202 -305l154 5c46 1 90 43 110 97z" />
    <glyph glyph-name="f_f.alt_short" horiz-adv-x="602" 
d="M667 671c-1 -14 -18 -48 -42 -58c-16 11 -62 47 -102 47c-11 0 -35 -26 -45 -96c-3 -20 -8 -94 -8 -141h132v-41h-133l3 -319c21 -40 67 -37 102 -38v-25h-249v23c44 3 57 13 65 30l2 329h-216l3 -319c22 -40 60 -37 90 -38v-25h-245v23c48 3 65 13 74 30l1 327h-78v25
l76 21c1 28 4 84 23 122c41 81 111 150 223 150c52 0 91 -33 114 -59c36 43 81 72 141 72c41 0 65 -21 69 -40zM416 577c-29 32 -74 74 -135 73c-71 -2 -100 -60 -104 -227h214c1 45 5 110 25 154z" />
    <glyph glyph-name="a.sc" horiz-adv-x="536" 
d="M538 22v-22h-233v22c35 2 64 10 72 26l-50 143h-156l-49 -134c8 -18 38 -33 72 -35v-22h-199v22c35 2 60 8 75 27c21 52 45 111 68 173c32 86 64 170 82 222c8 23 8 32 10 47h93c2 -24 4 -38 10 -58c26 -81 47 -144 69 -209c18 -54 37 -104 62 -169c8 -22 39 -31 74 -33z
M184 229h130l-50 157l-10 37h-4l-11 -37z" />
    <glyph glyph-name="b.sc" horiz-adv-x="525" 
d="M460 157c0 -106 -73 -157 -199 -157h-239v22c35 2 83 10 93 35v382c-6 15 -41 24 -76 26v21c98 1 166 4 227 4c113 0 168 -46 168 -101c0 -47 -21 -79 -89 -109c72 -19 115 -67 115 -123zM345 375c0 49 -42 85 -107 85h-37v-172c18 2 42 2 59 2s36 -2 48 -2
c27 22 37 52 37 87zM368 153c0 68 -67 106 -131 106c-12 0 -28 0 -36 -1v-198c10 -23 30 -32 63 -32c69 0 104 54 104 125z" />
    <glyph glyph-name="c.sc" horiz-adv-x="560" 
d="M495 146l23 -4l-27 -125c-58 -18 -77 -27 -168 -27c-158 0 -272 113 -272 257c0 147 121 249 274 249c76 0 118 -14 176 -28v-132h-21c-3 34 -17 72 -45 90c-14 10 -49 38 -117 38c-109 0 -171 -91 -171 -199c0 -142 80 -242 207 -242c41 0 70 17 83 28
c30 23 51 59 58 95z" />
    <glyph glyph-name="d.sc" horiz-adv-x="608" 
d="M557 259c0 -149 -114 -261 -264 -260l-254 1v22c34 1 70 11 76 26v391c-6 15 -45 25 -80 27v20c88 4 176 9 244 9c174 0 278 -90 278 -236zM462 232c0 156 -81 232 -215 232h-46v-411c9 -11 50 -23 79 -23c120 0 182 82 182 202z" />
    <glyph glyph-name="e.sc" horiz-adv-x="506" 
d="M448 127v-127h-257l-173 -2v21c35 2 87 12 97 37v383c-6 15 -39 24 -74 26v21h316c21 0 35 2 45 5h18v-128h-20c-3 67 -30 85 -88 85h-111v-181h104c52 0 73 1 80 57h19v-158h-20c-6 61 -23 62 -79 62h-104v-165c2 -10 6 -21 20 -26l121 2c51 1 85 23 87 88h19z" />
    <glyph glyph-name="f.sc" horiz-adv-x="476" 
d="M418 491v-128h-21c-3 67 -31 85 -88 85h-108v-189l104 4c50 2 72 3 79 59h20v-164h-21c-6 62 -26 63 -78 63l-104 1v-162c10 -25 54 -36 89 -38v-22h-256v22c34 2 71 9 81 34v380c-7 17 -42 27 -77 28v22h316c17 0 34 1 45 5h19z" />
    <glyph glyph-name="g.sc" horiz-adv-x="596" 
d="M567 214v-21c-34 -2 -54 -12 -62 -28v-127c-54 -26 -116 -49 -204 -49c-150 0 -250 117 -250 257c0 149 125 250 276 250c75 0 116 -14 173 -27v-131h-21c-2 21 -10 59 -38 82c-12 10 -46 44 -123 44c-116 0 -172 -101 -172 -209c0 -136 64 -234 179 -234
c42 0 84 25 97 41v103c-8 16 -54 26 -89 28v21h234z" />
    <glyph glyph-name="h.sc" horiz-adv-x="662" 
d="M621 22v-22h-234v22c35 1 66 11 74 26v180h-260v-180c6 -15 39 -25 73 -26v-22h-232v22c34 1 67 11 73 26v391c-6 15 -39 25 -73 27v20h232v-20c-34 -2 -67 -12 -73 -27v-170h260v170c-8 15 -39 25 -74 27v20h234v-20c-35 -2 -66 -12 -74 -27v-391c8 -15 39 -25 74 -26z
" />
    <glyph glyph-name="i.sc" horiz-adv-x="322" 
d="M282 22v-22h-242v22c36 2 72 12 78 27v389c-6 15 -42 25 -78 27v21h242v-21c-36 -2 -72 -12 -78 -27v-389c6 -15 42 -25 78 -27z" />
    <glyph glyph-name="j.sc" horiz-adv-x="328" 
d="M294 486v-21c-34 -2 -70 -12 -78 -27v-404c0 -129 -81 -194 -223 -196v23c77 4 137 51 137 189v388c-8 15 -48 25 -83 27v21h247z" />
    <glyph glyph-name="k.sc" horiz-adv-x="585" 
d="M580 22v-22h-249v22c37 2 51 10 60 19l-174 196l181 203c-8 10 -20 20 -54 25v21h205v-21c-53 -3 -95 -26 -122 -56l-129 -139l169 -197c30 -35 64 -49 113 -51zM271 22v-22h-226v22c34 2 64 12 70 27v389c-6 15 -36 25 -70 27v21h226v-21c-34 -2 -64 -12 -70 -27v-389
c6 -15 36 -25 70 -27z" />
    <glyph glyph-name="l.sc" horiz-adv-x="484" 
d="M447 156v-156h-420v22c31 2 78 10 88 35v382c-6 15 -39 24 -73 26v21h239v-21c-34 -2 -74 -12 -80 -27v-401l138 4c52 2 86 51 87 115h21z" />
    <glyph glyph-name="m.sc" horiz-adv-x="740" 
d="M708 22v-22h-237v22c35 2 74 12 80 27l-15 280l-1 80l-24 -61l-153 -349h-30l-133 363l-20 60l-2 -54l-21 -313c5 -15 42 -31 76 -33v-22h-199v22c35 2 68 18 77 33l21 274c2 28 6 82 6 85c0 5 0 16 -1 25c-8 12 -34 24 -68 26v21h171l25 -73l109 -301l125 294l33 80h153
v-21c-35 -2 -61 -13 -68 -25v-18c0 -8 4 -68 5 -93l16 -280c9 -15 41 -25 75 -27z" />
    <glyph glyph-name="n.sc" horiz-adv-x="638" 
d="M603 486v-21c-35 -2 -66 -18 -74 -34v-293c0 -41 2 -111 5 -144h-46l-297 364l-33 49l3 -45v-175c0 -42 4 -100 5 -132c7 -15 50 -31 85 -33v-22h-211v22c35 2 69 18 75 33v274c0 38 0 76 -3 104c-8 16 -39 30 -73 32v21h154l43 -55l248 -305v175c0 42 -3 107 -4 130
c-7 16 -51 32 -86 34v21h209z" />
    <glyph glyph-name="o.sc" horiz-adv-x="622" 
d="M571 249c0 -154 -123 -261 -277 -261s-243 106 -243 253c0 149 123 256 277 256c156 0 243 -107 243 -248zM478 221c0 147 -74 242 -192 242c-72 0 -142 -80 -142 -199c0 -140 67 -241 187 -241c76 0 147 77 147 198z" />
    <glyph glyph-name="p.sc" horiz-adv-x="488" 
d="M443 347c0 -87 -64 -156 -181 -156c-18 0 -38 4 -61 10v-141c10 -25 57 -36 92 -38v-22h-262v22c34 2 74 9 84 34v380c-7 18 -45 27 -80 29v21c83 0 183 3 218 3c127 0 190 -57 190 -142zM352 350c0 58 -38 108 -104 108c-11 0 -31 0 -47 -2v-232c15 -3 29 -3 43 -3
c68 0 108 53 108 129z" />
    <glyph glyph-name="q.sc" horiz-adv-x="625" 
d="M641 -138v-19l-76 -6c-11 -1 -23 -2 -33 -2c-56 0 -75 12 -121 58c-29 29 -62 66 -89 95h-8c-153 0 -263 91 -263 253c0 152 125 256 272 256c163 0 248 -105 248 -253c0 -83 -45 -187 -164 -236l63 -66c37 -39 73 -56 90 -63c20 -8 59 -16 81 -17zM478 222
c0 147 -74 241 -192 241c-72 0 -142 -80 -142 -199c0 -140 68 -242 188 -242c80 0 146 79 146 200z" />
    <glyph glyph-name="q.sc_long" horiz-adv-x="648" 
d="M887 -123l7 -23c-60 -42 -120 -64 -193 -64c-117 0 -174 53 -271 128c-29 22 -63 49 -96 73c-12 -1 -26 -2 -39 -2c-147 0 -244 105 -244 252c0 149 123 256 277 256c156 0 243 -106 243 -247c0 -104 -57 -186 -144 -228c32 -26 90 -71 115 -88c111 -77 167 -94 230 -94
c24 0 65 12 115 37zM478 222c0 147 -74 241 -192 241c-72 0 -142 -80 -142 -199c0 -140 68 -242 188 -242c80 0 146 79 146 200z" />
    <glyph glyph-name="r.sc" horiz-adv-x="572" 
d="M590 18l-3 -22l-81 1c-75 1 -79 -6 -125 52c-54 69 -79 113 -104 147h-76v-135c10 -25 49 -37 83 -39v-22h-250v22c35 2 71 10 81 35v379c-7 18 -45 27 -80 29v21c83 0 138 3 226 3c125 0 183 -41 183 -127c0 -48 -37 -100 -95 -128l106 -140c25 -33 49 -50 57 -55
c18 -12 59 -18 78 -21zM351 359c0 53 -32 99 -101 99c-11 0 -33 0 -49 -1v-229h55c75 0 95 52 95 131z" />
    <glyph glyph-name="s.sc" horiz-adv-x="471" 
d="M410 135c0 -91 -86 -146 -192 -146c-62 0 -113 18 -144 31l-14 131h22c7 -32 31 -74 59 -95c19 -14 56 -35 89 -35c64 0 98 40 98 84c0 56 -36 71 -96 96c-113 48 -153 77 -153 153c0 85 85 143 198 143c53 0 94 -14 121 -26v-127h-21c-3 34 -16 74 -45 92
c-11 7 -42 27 -77 27c-63 0 -95 -39 -95 -77c0 -51 26 -72 103 -102c105 -42 147 -75 147 -149z" />
    <glyph glyph-name="t.sc" horiz-adv-x="562" 
d="M518 492v-145h-20c-2 65 -37 99 -92 100l-82 1v-384c17 -36 59 -40 94 -42v-22h-276v22c35 2 85 9 96 31v395l-82 -1c-55 -1 -90 -35 -91 -100h-21v145h19c10 -3 20 -6 45 -6h346c18 0 35 3 45 6h19z" />
    <glyph glyph-name="u.sc" horiz-adv-x="623" 
d="M588 486v-21c-34 -2 -66 -18 -73 -34v-241c0 -141 -88 -202 -208 -202c-123 0 -198 68 -198 187v263c-8 15 -39 25 -73 27v21h234v-21c-35 -2 -68 -12 -75 -27v-247c0 -98 48 -152 136 -152c93 0 139 57 139 167v97c0 42 -3 105 -4 128c-8 16 -51 32 -86 34v21h208z" />
    <glyph glyph-name="v.sc" horiz-adv-x="541" 
d="M540 486v-21c-34 -2 -68 -17 -79 -43l-177 -430h-56l-151 437c-8 23 -49 33 -84 36v21h248v-21c-34 -2 -70 -11 -77 -27l118 -347l132 338c-7 19 -46 34 -80 36v21h206z" />
    <glyph glyph-name="w.sc" horiz-adv-x="804" 
d="M806 486v-21c-34 -2 -74 -19 -83 -43l-167 -430h-54l-103 331l-118 -331h-55l-146 437c-7 20 -48 33 -80 36v21h237v-21c-34 -2 -63 -11 -70 -27l112 -343l103 285l-17 50c-7 20 -44 32 -79 35v21h233v-21c-35 -2 -65 -11 -72 -27l108 -346l122 337c-8 19 -43 34 -77 36
v21h206z" />
    <glyph glyph-name="x.sc" horiz-adv-x="554" 
d="M538 22v-22h-250v22c37 2 55 10 69 19l-96 161l-107 -156c11 -9 26 -21 60 -24v-22h-204v22c52 3 94 26 113 53l116 159l-113 180c-19 31 -48 50 -97 52v20h243v-20c-39 -2 -54 -11 -67 -20l93 -155l98 150c-12 9 -18 20 -59 25v20h198v-20c-50 -3 -87 -26 -108 -56
l-107 -151l115 -186c20 -32 53 -49 103 -51z" />
    <glyph glyph-name="y.sc" horiz-adv-x="514" 
d="M514 486v-21c-42 -2 -68 -22 -89 -57l-124 -204v-141c16 -35 53 -39 88 -41v-22h-263v22c35 2 79 8 90 30v147l-126 214c-21 36 -47 50 -88 52v21h233v-21c-40 -2 -55 -11 -66 -20l113 -200l113 195c-12 10 -25 23 -64 25v21h183z" />
    <glyph glyph-name="z.sc" horiz-adv-x="516" 
d="M483 152v-152h-272c-42 0 -118 -1 -168 -2v19c25 25 50 56 69 83l239 348l-173 -3c-49 -1 -89 -39 -91 -106h-21v152h19c7 -2 18 -6 45 -6h217c28 0 95 -1 127 3v-20c-20 -17 -43 -47 -68 -83l-241 -349l209 5c51 1 87 47 88 111h21z" />
    <glyph glyph-name="agrave.sc" horiz-adv-x="536" 
d="M230 764l109 -202l-21 -13l-163 170c10 34 38 46 66 46c2 0 6 0 9 -1zM538 22v-22h-233v22c35 2 64 10 72 26l-50 143h-156l-49 -134c8 -18 38 -33 72 -35v-22h-199v22c35 2 60 8 75 27c21 52 45 111 68 173c32 86 64 170 82 222c8 23 8 32 10 47h93c2 -24 4 -38 10 -58
c26 -81 47 -144 69 -209c18 -54 37 -104 62 -169c8 -22 39 -31 74 -33zM184 229h130l-50 157l-10 37h-4l-11 -37z" />
    <glyph glyph-name="aacute.sc" horiz-adv-x="536" 
d="M396 719l-163 -170l-22 13l109 202c3 1 7 1 10 1c27 0 56 -12 66 -46zM538 22v-22h-233v22c35 2 64 10 72 26l-50 143h-156l-49 -134c8 -18 38 -33 72 -35v-22h-199v22c35 2 60 8 75 27c21 52 45 111 68 173c32 86 64 170 82 222c8 23 8 32 10 47h93c2 -24 4 -38 10 -58
c26 -81 47 -144 69 -209c18 -54 37 -104 62 -169c8 -22 39 -31 74 -33zM184 229h130l-50 157l-10 37h-4l-11 -37z" />
    <glyph glyph-name="acircumflex.sc" horiz-adv-x="536" 
d="M295 748l135 -203l-23 -13l-131 129l-132 -129l-22 13l135 203h38zM538 22v-22h-233v22c35 2 64 10 72 26l-50 143h-156l-49 -134c8 -18 38 -33 72 -35v-22h-199v22c35 2 60 8 75 27c21 52 45 111 68 173c32 86 64 170 82 222c8 23 8 32 10 47h93c2 -24 4 -38 10 -58
c26 -81 47 -144 69 -209c18 -54 37 -104 62 -169c8 -22 39 -31 74 -33zM184 229h130l-50 157l-10 37h-4l-11 -37z" />
    <glyph glyph-name="atilde.sc" horiz-adv-x="536" 
d="M422 708h24c-8 -28 -48 -117 -113 -117c-30 0 -59 12 -76 18c-14 7 -48 18 -70 18c-24 -12 -42 -32 -52 -56h-24c5 30 47 119 110 119c31 0 64 -15 77 -20c16 -7 47 -16 71 -16c25 12 40 30 53 54zM538 22v-22h-233v22c35 2 64 10 72 26l-50 143h-156l-49 -134
c8 -18 38 -33 72 -35v-22h-199v22c35 2 60 8 75 27c21 52 45 111 68 173c32 86 64 170 82 222c8 23 8 32 10 47h93c2 -24 4 -38 10 -58c26 -81 47 -144 69 -209c18 -54 37 -104 62 -169c8 -22 39 -31 74 -33zM184 229h130l-50 157l-10 37h-4l-11 -37z" />
    <glyph glyph-name="adieresis.sc" horiz-adv-x="536" 
d="M440 628c0 -25 -22 -51 -54 -51c-31 0 -53 26 -53 51c0 26 22 53 53 53c32 0 54 -27 54 -53zM217 628c0 -25 -21 -51 -52 -51s-54 26 -54 51c0 26 23 53 54 53s52 -27 52 -53zM538 22v-22h-233v22c35 2 64 10 72 26l-50 143h-156l-49 -134c8 -18 38 -33 72 -35v-22h-199
v22c35 2 60 8 75 27c21 52 45 111 68 173c32 86 64 170 82 222c8 23 8 32 10 47h93c2 -24 4 -38 10 -58c26 -81 47 -144 69 -209c18 -54 37 -104 62 -169c8 -22 39 -31 74 -33zM184 229h130l-50 157l-10 37h-4l-11 -37z" />
    <glyph glyph-name="aring.sc" horiz-adv-x="536" 
d="M392 639c0 -62 -53 -108 -121 -108c-71 0 -119 41 -119 108c0 62 53 106 122 106c70 0 118 -42 118 -106zM538 22v-22h-233v22c35 2 64 10 72 26l-50 143h-156l-49 -134c8 -18 38 -33 72 -35v-22h-199v22c35 2 60 8 75 27c21 52 45 111 68 173c32 86 64 170 82 222
c8 23 8 32 10 47h93c2 -24 4 -38 10 -58c26 -81 47 -144 69 -209c18 -54 37 -104 62 -169c8 -22 39 -31 74 -33zM332 628c0 55 -23 95 -70 95c-30 0 -48 -39 -48 -73c0 -52 23 -97 67 -97c33 0 51 37 51 75zM184 229h130l-50 157l-10 37h-4l-11 -37z" />
    <glyph glyph-name="amacron.sc" horiz-adv-x="536" 
d="M419 662v-53h-302v53h302zM538 22v-22h-233v22c35 2 64 10 72 26l-50 143h-156l-49 -134c8 -18 38 -33 72 -35v-22h-199v22c35 2 60 8 75 27c21 52 45 111 68 173c32 86 64 170 82 222c8 23 8 32 10 47h93c2 -24 4 -38 10 -58c26 -81 47 -144 69 -209
c18 -54 37 -104 62 -169c8 -22 39 -31 74 -33zM184 229h130l-50 157l-10 37h-4l-11 -37z" />
    <glyph glyph-name="abreve.sc" horiz-adv-x="536" 
d="M377 741h30c0 -51 -9 -106 -37 -142c-20 -26 -57 -43 -95 -43c-42 0 -69 15 -90 37c-31 33 -43 94 -43 148h30c4 -74 46 -118 101 -118c56 0 100 45 104 118zM538 22v-22h-233v22c35 2 64 10 72 26l-50 143h-156l-49 -134c8 -18 38 -33 72 -35v-22h-199v22
c35 2 60 8 75 27c21 52 45 111 68 173c32 86 64 170 82 222c8 23 8 32 10 47h93c2 -24 4 -38 10 -58c26 -81 47 -144 69 -209c18 -54 37 -104 62 -169c8 -22 39 -31 74 -33zM184 229h130l-50 157l-10 37h-4l-11 -37z" />
    <glyph glyph-name="ae.sc" horiz-adv-x="762" 
d="M704 127v-127h-421v21c35 2 82 11 92 36v158h-168l-100 -158c3 -18 38 -33 73 -35v-22h-200v22c34 2 65 21 69 27l259 392c-12 12 -52 21 -80 23v22h385c21 0 35 2 45 5h18v-128h-20c-3 67 -30 85 -88 85h-108v-194h101c52 0 73 6 80 62h19v-159h-20c-6 61 -23 61 -79 61
h-101v-155c2 -10 6 -21 20 -26l118 2c51 1 85 23 87 88h19zM230 251h145v206h-17l-25 -47z" />
    <glyph glyph-name="ccedilla.sc" horiz-adv-x="560" 
d="M495 146l23 -4l-27 -125c-50 -16 -71 -24 -134 -26c-21 -19 -40 -40 -40 -51c0 -14 15 -21 35 -38c28 -22 38 -34 38 -59c0 -16 -13 -43 -33 -64c-24 -24 -58 -49 -89 -49c-42 0 -74 18 -74 44c0 18 14 34 29 34c11 0 18 -4 28 -12c16 -11 32 -24 53 -24
c19 0 36 16 36 33c0 19 -18 28 -51 54c-21 16 -35 27 -35 44c0 21 28 52 71 87c-159 0 -274 112 -274 257c0 147 121 249 274 249c76 0 118 -14 176 -28v-132h-21c-3 34 -17 72 -45 90c-14 10 -49 38 -117 38c-109 0 -171 -91 -171 -199c0 -142 80 -242 207 -242
c41 0 70 17 83 28c30 23 51 59 58 95z" />
    <glyph glyph-name="ccaron.sc" horiz-adv-x="560" 
d="M440 761l22 -13l-135 -203h-38l-135 203l23 13l131 -129zM495 146l23 -4l-27 -125c-58 -18 -77 -27 -168 -27c-158 0 -272 113 -272 257c0 147 121 249 274 249c76 0 118 -14 176 -28v-132h-21c-3 34 -17 72 -45 90c-14 10 -49 38 -117 38c-109 0 -171 -91 -171 -199
c0 -142 80 -242 207 -242c41 0 70 17 83 28c30 23 51 59 58 95z" />
    <glyph glyph-name="eth.sc" horiz-adv-x="608" 
d="M557 259c0 -149 -114 -261 -264 -260l-254 1v22c34 1 70 11 76 26v183h-81v36h81v172c-6 15 -45 25 -80 27v20c88 4 176 9 244 9c174 0 278 -90 278 -236zM462 232c0 156 -81 232 -215 232h-46v-197h138v-36h-138v-178c9 -11 50 -23 79 -23c120 0 182 82 182 202z" />
    <glyph glyph-name="egrave.sc" horiz-adv-x="506" 
d="M225 764l109 -202l-21 -13l-163 170c10 34 38 46 66 46c2 0 6 0 9 -1zM448 127v-127h-257l-173 -2v21c35 2 87 12 97 37v383c-6 15 -39 24 -74 26v21h316c21 0 35 2 45 5h18v-128h-20c-3 67 -30 85 -88 85h-111v-181h104c52 0 73 1 80 57h19v-158h-20
c-6 61 -23 62 -79 62h-104v-165c2 -10 6 -21 20 -26l121 2c51 1 85 23 87 88h19z" />
    <glyph glyph-name="eacute.sc" horiz-adv-x="506" 
d="M384 719l-163 -170l-22 13l109 202c3 1 7 1 10 1c27 0 56 -12 66 -46zM448 127v-127h-257l-173 -2v21c35 2 87 12 97 37v383c-6 15 -39 24 -74 26v21h316c21 0 35 2 45 5h18v-128h-20c-3 67 -30 85 -88 85h-111v-181h104c52 0 73 1 80 57h19v-158h-20
c-6 61 -23 62 -79 62h-104v-165c2 -10 6 -21 20 -26l121 2c51 1 85 23 87 88h19z" />
    <glyph glyph-name="ecircumflex.sc" horiz-adv-x="506" 
d="M272 755l135 -201l-23 -13l-131 127l-132 -127l-22 13l135 201h38zM448 127v-127h-257l-173 -2v21c35 2 87 12 97 37v383c-6 15 -39 24 -74 26v21h316c21 0 35 2 45 5h18v-128h-20c-3 67 -30 85 -88 85h-111v-181h104c52 0 73 1 80 57h19v-158h-20c-6 61 -23 62 -79 62
h-104v-165c2 -10 6 -21 20 -26l121 2c51 1 85 23 87 88h19z" />
    <glyph glyph-name="edieresis.sc" horiz-adv-x="506" 
d="M415 635c0 -25 -22 -51 -54 -51c-31 0 -53 26 -53 51c0 26 22 53 53 53c32 0 54 -27 54 -53zM191 635c0 -25 -21 -51 -52 -51s-54 26 -54 51c0 26 23 53 54 53s52 -27 52 -53zM448 127v-127h-257l-173 -2v21c35 2 87 12 97 37v383c-6 15 -39 24 -74 26v21h316
c21 0 35 2 45 5h18v-128h-20c-3 67 -30 85 -88 85h-111v-181h104c52 0 73 1 80 57h19v-158h-20c-6 61 -23 62 -79 62h-104v-165c2 -10 6 -21 20 -26l121 2c51 1 85 23 87 88h19z" />
    <glyph glyph-name="emacron.sc" horiz-adv-x="506" 
d="M395 662v-53h-302v53h302zM448 127v-127h-257l-173 -2v21c35 2 87 12 97 37v383c-6 15 -39 24 -74 26v21h316c21 0 35 2 45 5h18v-128h-20c-3 67 -30 85 -88 85h-111v-181h104c52 0 73 1 80 57h19v-158h-20c-6 61 -23 62 -79 62h-104v-165c2 -10 6 -21 20 -26l121 2
c51 1 85 23 87 88h19z" />
    <glyph glyph-name="igrave.sc" horiz-adv-x="322" 
d="M142 764l109 -202l-21 -13l-163 170c10 34 38 46 66 46c2 0 6 0 9 -1zM282 22v-22h-242v22c36 2 72 12 78 27v389c-6 15 -42 25 -78 27v21h242v-21c-36 -2 -72 -12 -78 -27v-389c6 -15 42 -25 78 -27z" />
    <glyph glyph-name="iacute.sc" horiz-adv-x="322" 
d="M264 719l-163 -170l-22 13l109 202c3 1 7 1 10 1c27 0 56 -12 66 -46zM282 22v-22h-242v22c36 2 72 12 78 27v389c-6 15 -42 25 -78 27v21h242v-21c-36 -2 -72 -12 -78 -27v-389c6 -15 42 -25 78 -27z" />
    <glyph glyph-name="icircumflex.sc" horiz-adv-x="322" 
d="M181 755l131 -201l-23 -13l-127 127l-128 -127l-22 13l131 201h38zM282 22v-22h-242v22c36 2 72 12 78 27v389c-6 15 -42 25 -78 27v21h242v-21c-36 -2 -72 -12 -78 -27v-389c6 -15 42 -25 78 -27z" />
    <glyph glyph-name="idieresis.sc" horiz-adv-x="322" 
d="M318 635c0 -25 -22 -51 -54 -51c-31 0 -53 26 -53 51c0 26 22 53 53 53c32 0 54 -27 54 -53zM110 635c0 -25 -21 -51 -52 -51s-54 26 -54 51c0 26 23 53 54 53s52 -27 52 -53zM282 22v-22h-242v22c36 2 72 12 78 27v389c-6 15 -42 25 -78 27v21h242v-21
c-36 -2 -72 -12 -78 -27v-389c6 -15 42 -25 78 -27z" />
    <glyph glyph-name="imacron.sc" horiz-adv-x="322" 
d="M302 662v-53h-282v53h282zM282 22v-22h-242v22c36 2 72 12 78 27v389c-6 15 -42 25 -78 27v21h242v-21c-36 -2 -72 -12 -78 -27v-389c6 -15 42 -25 78 -27z" />
    <glyph glyph-name="lslash.sc" horiz-adv-x="484" 
d="M447 156v-156h-420v22c31 2 78 10 88 35v157l-86 -33v40l86 32v186c-6 15 -39 24 -73 26v21h239v-21c-34 -2 -74 -12 -80 -27v-157l175 66v-41l-175 -65v-204l138 4c52 2 86 51 87 115h21z" />
    <glyph glyph-name="ntilde.sc" horiz-adv-x="638" 
d="M478 715h24c-8 -28 -48 -117 -113 -117c-30 0 -59 12 -76 18c-14 7 -48 18 -70 18c-24 -12 -42 -32 -52 -56h-24c5 30 47 119 110 119c31 0 64 -15 77 -20c16 -7 47 -16 71 -16c25 12 40 30 53 54zM603 486v-21c-35 -2 -66 -18 -74 -34v-293c0 -41 2 -111 5 -144h-46
l-297 364l-33 49l3 -45v-175c0 -42 4 -100 5 -132c7 -15 50 -31 85 -33v-22h-211v22c35 2 69 18 75 33v274c0 38 0 76 -3 104c-8 16 -39 30 -73 32v21h154l43 -55l248 -305v175c0 42 -3 107 -4 130c-7 16 -51 32 -86 34v21h209z" />
    <glyph glyph-name="ograve.sc" horiz-adv-x="622" 
d="M283 764l109 -202l-21 -13l-163 170c10 34 38 46 66 46c2 0 6 0 9 -1zM571 249c0 -154 -123 -261 -277 -261s-243 106 -243 253c0 149 123 256 277 256c156 0 243 -107 243 -248zM478 221c0 147 -74 242 -192 242c-72 0 -142 -80 -142 -199c0 -140 67 -241 187 -241
c76 0 147 77 147 198z" />
    <glyph glyph-name="oacute.sc" horiz-adv-x="622" 
d="M438 719l-163 -170l-22 13l109 202c3 1 7 1 10 1c27 0 56 -12 66 -46zM571 249c0 -154 -123 -261 -277 -261s-243 106 -243 253c0 149 123 256 277 256c156 0 243 -107 243 -248zM478 221c0 147 -74 242 -192 242c-72 0 -142 -80 -142 -199c0 -140 67 -241 187 -241
c76 0 147 77 147 198z" />
    <glyph glyph-name="ocircumflex.sc" horiz-adv-x="622" 
d="M333 755l135 -203l-23 -13l-131 129l-132 -129l-22 13l135 203h38zM571 249c0 -154 -123 -261 -277 -261s-243 106 -243 253c0 149 123 256 277 256c156 0 243 -107 243 -248zM478 221c0 147 -74 242 -192 242c-72 0 -142 -80 -142 -199c0 -140 67 -241 187 -241
c76 0 147 77 147 198z" />
    <glyph glyph-name="otilde.sc" horiz-adv-x="622" 
d="M460 715h24c-8 -28 -48 -117 -113 -117c-30 0 -59 12 -76 18c-14 7 -48 18 -70 18c-24 -12 -42 -32 -52 -56h-24c5 30 47 119 110 119c31 0 64 -15 77 -20c16 -7 47 -16 71 -16c25 12 40 30 53 54zM571 249c0 -154 -123 -261 -277 -261s-243 106 -243 253
c0 149 123 256 277 256c156 0 243 -107 243 -248zM478 221c0 147 -74 242 -192 242c-72 0 -142 -80 -142 -199c0 -140 67 -241 187 -241c76 0 147 77 147 198z" />
    <glyph glyph-name="odieresis.sc" horiz-adv-x="622" 
d="M479 635c0 -25 -22 -51 -54 -51c-31 0 -53 26 -53 51c0 26 22 53 53 53c32 0 54 -27 54 -53zM255 635c0 -25 -21 -51 -52 -51s-54 26 -54 51c0 26 23 53 54 53s52 -27 52 -53zM571 249c0 -154 -123 -261 -277 -261s-243 106 -243 253c0 149 123 256 277 256
c156 0 243 -107 243 -248zM478 221c0 147 -74 242 -192 242c-72 0 -142 -80 -142 -199c0 -140 67 -241 187 -241c76 0 147 77 147 198z" />
    <glyph glyph-name="omacron.sc" horiz-adv-x="622" 
d="M462 662v-53h-302v53h302zM571 249c0 -154 -123 -261 -277 -261s-243 106 -243 253c0 149 123 256 277 256c156 0 243 -107 243 -248zM478 221c0 147 -74 242 -192 242c-72 0 -142 -80 -142 -199c0 -140 67 -241 187 -241c76 0 147 77 147 198z" />
    <glyph glyph-name="oslash.sc" horiz-adv-x="622" 
d="M571 249c0 -154 -123 -261 -277 -261c-37 0 -70 7 -100 19l-53 -94h-36l61 108c-72 42 -115 122 -115 220c0 149 123 256 277 256c35 0 68 -6 96 -17l46 82h38l-54 -96c74 -41 117 -121 117 -217zM481 221c0 80 -22 146 -60 188l-199 -352c29 -22 66 -34 109 -34
c78 0 150 77 150 198zM199 77l197 352c-30 22 -67 34 -110 34c-73 0 -145 -80 -145 -199c0 -77 20 -144 58 -187z" />
    <glyph glyph-name="oe.sc" horiz-adv-x="796" 
d="M738 127v-127h-165c-97 0 -176 -8 -244 -8c-174 0 -278 95 -278 241c0 148 111 255 263 255c60 0 139 -2 175 -2h158c21 0 35 2 45 5h18v-128h-20c-3 67 -30 85 -88 85h-109v-181h102c52 0 73 1 80 57h19v-159h-20c-6 61 -23 63 -79 63h-102v-165c2 -10 6 -21 20 -26
l119 2c51 1 85 23 87 88h19zM361 26h46v413c-9 7 -48 18 -80 18c-120 0 -182 -83 -182 -202c0 -156 82 -229 216 -229z" />
    <glyph glyph-name="scaron.sc" horiz-adv-x="471" 
d="M383 761l22 -13l-135 -203h-38l-135 203l23 13l131 -129zM410 135c0 -91 -86 -146 -192 -146c-62 0 -113 18 -144 31l-14 131h22c7 -32 31 -74 59 -95c19 -14 56 -35 89 -35c64 0 98 40 98 84c0 56 -36 71 -96 96c-113 48 -153 77 -153 153c0 85 85 143 198 143
c53 0 94 -14 121 -26v-127h-21c-3 34 -16 74 -45 92c-11 7 -42 27 -77 27c-63 0 -95 -39 -95 -77c0 -51 26 -72 103 -102c105 -42 147 -75 147 -149z" />
    <glyph glyph-name="germandbls.sc" horiz-adv-x="934" 
d="M873 135c0 -91 -86 -146 -192 -146c-62 0 -113 18 -144 31l-14 131h22c7 -32 31 -74 59 -95c19 -14 56 -35 89 -35c64 0 98 40 98 84c0 56 -36 71 -96 96c-113 48 -153 77 -153 153c0 85 85 143 198 143c53 0 94 -14 121 -26v-127h-21c-3 34 -16 74 -45 92
c-11 7 -42 27 -77 27c-63 0 -95 -39 -95 -77c0 -51 26 -72 103 -102c105 -42 147 -75 147 -149zM410 135c0 -91 -86 -146 -192 -146c-62 0 -113 18 -144 31l-14 131h22c7 -32 31 -74 59 -95c19 -14 56 -35 89 -35c64 0 98 40 98 84c0 56 -36 71 -96 96
c-113 48 -153 77 -153 153c0 85 85 143 198 143c53 0 94 -14 121 -26v-127h-21c-3 34 -16 74 -45 92c-11 7 -42 27 -77 27c-63 0 -95 -39 -95 -77c0 -51 26 -72 103 -102c105 -42 147 -75 147 -149z" />
    <glyph glyph-name="thorn.sc" horiz-adv-x="492" 
d="M447 255c0 -87 -66 -156 -183 -156c-18 0 -40 4 -63 10v-49c10 -25 57 -36 92 -38v-22h-262v22c34 2 74 9 84 34v380c-7 18 -45 27 -80 29v21h250v-22c-34 -2 -74 -9 -84 -34v-34c23 1 43 1 54 1c127 0 192 -57 192 -142zM356 258c0 58 -40 108 -106 108
c-11 0 -33 0 -49 -2v-232c15 -3 31 -3 45 -3c68 0 110 53 110 129z" />
    <glyph glyph-name="ugrave.sc" horiz-adv-x="623" 
d="M300 764l109 -202l-21 -13l-163 170c10 34 38 46 66 46c2 0 6 0 9 -1zM588 486v-21c-34 -2 -66 -18 -73 -34v-241c0 -141 -88 -202 -208 -202c-123 0 -198 68 -198 187v263c-8 15 -39 25 -73 27v21h234v-21c-35 -2 -68 -12 -75 -27v-247c0 -98 48 -152 136 -152
c93 0 139 57 139 167v97c0 42 -3 105 -4 128c-8 16 -51 32 -86 34v21h208z" />
    <glyph glyph-name="uacute.sc" horiz-adv-x="623" 
d="M436 719l-163 -170l-22 13l109 202c3 1 7 1 10 1c27 0 56 -12 66 -46zM588 486v-21c-34 -2 -66 -18 -73 -34v-241c0 -141 -88 -202 -208 -202c-123 0 -198 68 -198 187v263c-8 15 -39 25 -73 27v21h234v-21c-35 -2 -68 -12 -75 -27v-247c0 -98 48 -152 136 -152
c93 0 139 57 139 167v97c0 42 -3 105 -4 128c-8 16 -51 32 -86 34v21h208z" />
    <glyph glyph-name="ucircumflex.sc" horiz-adv-x="623" 
d="M343 755l135 -201l-23 -13l-131 127l-132 -127l-22 13l135 201h38zM588 486v-21c-34 -2 -66 -18 -73 -34v-241c0 -141 -88 -202 -208 -202c-123 0 -198 68 -198 187v263c-8 15 -39 25 -73 27v21h234v-21c-35 -2 -68 -12 -75 -27v-247c0 -98 48 -152 136 -152
c93 0 139 57 139 167v97c0 42 -3 105 -4 128c-8 16 -51 32 -86 34v21h208z" />
    <glyph glyph-name="udieresis.sc" horiz-adv-x="623" 
d="M484 635c0 -25 -22 -51 -54 -51c-31 0 -53 26 -53 51c0 26 22 53 53 53c32 0 54 -27 54 -53zM260 635c0 -25 -21 -51 -52 -51s-54 26 -54 51c0 26 23 53 54 53s52 -27 52 -53zM588 486v-21c-34 -2 -66 -18 -73 -34v-241c0 -141 -88 -202 -208 -202
c-123 0 -198 68 -198 187v263c-8 15 -39 25 -73 27v21h234v-21c-35 -2 -68 -12 -75 -27v-247c0 -98 48 -152 136 -152c93 0 139 57 139 167v97c0 42 -3 105 -4 128c-8 16 -51 32 -86 34v21h208z" />
    <glyph glyph-name="umacron.sc" horiz-adv-x="623" 
d="M473 662v-53h-302v53h302zM588 486v-21c-34 -2 -66 -18 -73 -34v-241c0 -141 -88 -202 -208 -202c-123 0 -198 68 -198 187v263c-8 15 -39 25 -73 27v21h234v-21c-35 -2 -68 -12 -75 -27v-247c0 -98 48 -152 136 -152c93 0 139 57 139 167v97c0 42 -3 105 -4 128
c-8 16 -51 32 -86 34v21h208z" />
    <glyph glyph-name="yacute.sc" horiz-adv-x="514" 
d="M397 719l-163 -170l-22 13l109 202c3 1 7 1 10 1c27 0 56 -12 66 -46zM514 486v-21c-42 -2 -68 -22 -89 -57l-124 -204v-141c16 -35 53 -39 88 -41v-22h-263v22c35 2 79 8 90 30v147l-126 214c-21 36 -47 50 -88 52v21h233v-21c-40 -2 -55 -11 -66 -20l113 -200l113 195
c-12 10 -25 23 -64 25v21h183z" />
    <glyph glyph-name="ydieresis.sc" horiz-adv-x="514" 
d="M432 635c0 -25 -22 -51 -54 -51c-31 0 -53 26 -53 51c0 26 22 53 53 53c32 0 54 -27 54 -53zM208 635c0 -25 -21 -51 -52 -51s-54 26 -54 51c0 26 23 53 54 53s52 -27 52 -53zM514 486v-21c-42 -2 -68 -22 -89 -57l-124 -204v-141c16 -35 53 -39 88 -41v-22h-263v22
c35 2 79 8 90 30v147l-126 214c-21 36 -47 50 -88 52v21h233v-21c-40 -2 -55 -11 -66 -20l113 -200l113 195c-12 10 -25 23 -64 25v21h183z" />
    <glyph glyph-name="zacute.sc" horiz-adv-x="516" 
d="M400 719l-163 -170l-22 13l109 202c3 1 7 1 10 1c27 0 56 -12 66 -46zM483 152v-152h-272c-42 0 -118 -1 -168 -2v19c25 25 50 56 69 83l239 348l-173 -3c-49 -1 -89 -39 -91 -106h-21v152h19c7 -2 18 -6 45 -6h217c28 0 95 -1 127 3v-20c-20 -17 -43 -47 -68 -83
l-241 -349l209 5c51 1 87 47 88 111h21z" />
    <glyph glyph-name="zcaron.sc" horiz-adv-x="516" 
d="M401 761l22 -13l-135 -203h-38l-135 203l23 13l131 -129zM483 152v-152h-272c-42 0 -118 -1 -168 -2v19c25 25 50 56 69 83l239 348l-173 -3c-49 -1 -89 -39 -91 -106h-21v152h19c7 -2 18 -6 45 -6h217c28 0 95 -1 127 3v-20c-20 -17 -43 -47 -68 -83l-241 -349l209 5
c51 1 87 47 88 111h21z" />
    <glyph glyph-name="fi.sc" horiz-adv-x="798" 
d="M758 22v-22h-242v22c36 2 72 12 78 27v389c-6 15 -42 25 -78 27v21h242v-21c-36 -2 -72 -12 -78 -27v-389c6 -15 42 -25 78 -27zM418 491v-128h-21c-3 67 -31 85 -88 85h-108v-189l104 4c50 2 72 3 79 59h20v-164h-21c-6 62 -26 63 -78 63l-104 1v-162
c10 -25 54 -36 89 -38v-22h-256v22c34 2 71 9 81 34v380c-7 17 -42 27 -77 28v22h316c17 0 34 1 45 5h19z" />
    <glyph glyph-name="fl.sc" horiz-adv-x="960" 
d="M923 156v-156h-420v22c31 2 78 10 88 35v382c-6 15 -39 24 -73 26v21h239v-21c-34 -2 -74 -12 -80 -27v-401l138 4c52 2 86 51 87 115h21zM418 491v-128h-21c-3 67 -31 85 -88 85h-108v-189l104 4c50 2 72 3 79 59h20v-164h-21c-6 62 -26 63 -78 63l-104 1v-162
c10 -25 54 -36 89 -38v-22h-256v22c34 2 71 9 81 34v380c-7 17 -42 27 -77 28v22h316c17 0 34 1 45 5h19z" />
    <glyph glyph-name="period" unicode="." horiz-adv-x="262" 
d="M192 51c0 -33 -27 -62 -62 -62c-33 0 -60 29 -60 62s27 61 60 61c35 0 62 -28 62 -61z" />
    <glyph glyph-name="comma" unicode="," horiz-adv-x="262" 
d="M205 13c0 -83 -55 -153 -134 -181l-11 20c71 35 93 100 93 153c-4 -2 -17 -5 -31 -5c-37 0 -56 17 -56 52c0 29 22 52 58 52c46 0 81 -34 81 -91z" />
    <glyph glyph-name="colon" unicode=":" horiz-adv-x="337" 
d="M245 369c0 -34 -27 -62 -62 -62c-33 0 -61 28 -61 62c0 33 28 60 61 60c35 0 62 -27 62 -60zM245 51c0 -33 -27 -62 -62 -62c-33 0 -61 29 -61 62s28 61 61 61c35 0 62 -28 62 -61z" />
    <glyph glyph-name="semicolon" unicode=";" horiz-adv-x="337" 
d="M245 369c0 -34 -27 -62 -62 -62c-33 0 -61 28 -61 62c0 33 28 60 61 60c35 0 62 -27 62 -60zM257 8c0 -75 -55 -149 -131 -191l-12 20c70 42 85 123 85 166h-47c-19 0 -33 27 -33 45c0 36 31 54 59 54c44 0 79 -36 79 -94z" />
    <glyph glyph-name="ellipsis" unicode="&#x2026;" horiz-adv-x="1023" 
d="M919 51c0 -33 -27 -62 -62 -62c-33 0 -60 29 -60 62s27 61 60 61c35 0 62 -28 62 -61zM583 51c0 -33 -27 -62 -62 -62c-33 0 -61 29 -61 62s28 61 61 61c35 0 62 -28 62 -61zM247 51c0 -33 -27 -62 -62 -62c-33 0 -61 29 -61 62s28 61 61 61c35 0 62 -28 62 -61z" />
    <glyph glyph-name="exclam" unicode="!" horiz-adv-x="342" 
d="M125 646h111l-42 -472h-26zM238 45c0 -29 -25 -55 -58 -55c-32 0 -58 26 -58 55s26 55 58 55c33 0 58 -26 58 -55z" />
    <glyph glyph-name="exclamdown" unicode="&#xa1;" horiz-adv-x="342" 
d="M220 357c0 -29 -26 -55 -58 -55c-33 0 -58 26 -58 55s25 55 58 55c32 0 58 -26 58 -55zM174 228l43 -472h-111l42 472h26z" />
    <glyph glyph-name="question" unicode="?" horiz-adv-x="414" 
d="M386 453c0 -68 -35 -144 -81 -165c-44 -1 -65 1 -95 -2s-40 -16 -40 -36c0 -18 10 -62 27 -86h-34c-14 23 -43 59 -43 113c0 56 36 92 79 94c15 1 46 0 64 1c42 3 86 17 86 77c0 39 -17 72 -59 91c-37 17 -77 24 -130 34c-2 9 -5 22 -5 30c0 32 17 55 52 55
c86 0 179 -100 179 -206zM235 45c0 -29 -25 -55 -58 -55c-32 0 -57 26 -57 55s25 55 57 55c33 0 58 -26 58 -55z" />
    <glyph glyph-name="questiondown" unicode="&#xbf;" horiz-adv-x="414" 
d="M294 357c0 -29 -25 -55 -57 -55c-33 0 -58 26 -58 55s25 55 58 55c32 0 57 -26 57 -55zM294 125c0 -56 -36 -92 -79 -94c-15 -1 -46 0 -64 -1c-42 -3 -86 -17 -86 -77c0 -39 17 -72 59 -91c37 -17 77 -24 130 -34c2 -9 5 -22 5 -30c0 -32 -17 -55 -52 -55
c-86 0 -179 100 -179 206c0 68 35 144 81 165c44 1 65 -1 95 2s40 16 40 36c0 18 -10 62 -27 86h34c14 -23 43 -59 43 -113z" />
    <glyph glyph-name="parenleft" unicode="(" horiz-adv-x="414" 
d="M371 -187l-9 -24c-152 37 -275 183 -275 446c0 262 123 409 275 446l9 -24c-112 -34 -192 -179 -192 -420c0 -246 80 -390 192 -424z" />
    <glyph glyph-name="parenright" unicode=")" horiz-adv-x="414" 
d="M327 235c0 -263 -123 -409 -275 -446l-9 24c112 34 192 178 192 424c0 241 -80 386 -192 420l9 24c152 -37 275 -184 275 -446z" />
    <glyph glyph-name="bracketleft" unicode="[" horiz-adv-x="413" 
d="M370 -177v-25h-250v872h250v-26l-169 -13v-795z" />
    <glyph glyph-name="bracketright" unicode="]" horiz-adv-x="413" 
d="M293 670v-872h-250v25l169 13v795l-169 13v26h250z" />
    <glyph glyph-name="braceleft" unicode="{" horiz-adv-x="450" 
d="M395 -177v-27h-15c-130 0 -205 50 -205 177v88c0 100 -38 139 -149 149v46c110 10 149 49 149 149v88c0 127 75 177 205 177h15v-27c-99 -1 -142 -60 -142 -155v-55c0 -128 -43 -172 -165 -194v-12c122 -22 165 -66 165 -194v-55c0 -95 43 -154 142 -155z" />
    <glyph glyph-name="braceright" unicode="}" horiz-adv-x="450" 
d="M424 256v-46c-111 -10 -149 -49 -149 -149v-88c0 -127 -75 -177 -205 -177h-15v27c99 1 142 60 142 155v55c0 128 43 172 165 194v12c-122 22 -165 66 -165 194v55c0 95 -43 154 -142 155v27h15c130 0 205 -50 205 -177v-88c0 -100 39 -139 149 -149z" />
    <glyph glyph-name="slash" unicode="/" horiz-adv-x="387" 
d="M308 706h57l-325 -898h-53z" />
    <glyph glyph-name="backslash" unicode="\" horiz-adv-x="387" 
d="M62 706l301 -898h-53l-305 898h57z" />
    <glyph glyph-name="bar" unicode="|" horiz-adv-x="345" 
d="M186 706v-898h-49v898h49z" />
    <glyph glyph-name="brokenbar" unicode="&#xa6;" horiz-adv-x="345" 
d="M186 706v-364h-49v364h49zM186 182v-374h-49v374h49z" />
    <glyph glyph-name="quotesingle" unicode="'" horiz-adv-x="244" 
d="M67 685h110l-44 -261h-22z" />
    <glyph glyph-name="quotedbl" unicode="&#x22;" horiz-adv-x="412" 
d="M239 685h108l-43 -261h-22zM68 685h108l-43 -261h-22z" />
    <glyph glyph-name="quoteleft" unicode="&#x2018;" horiz-adv-x="244" 
d="M184 491c0 -26 -22 -49 -57 -49c-42 0 -74 32 -74 87c0 69 50 136 121 162l10 -19c-67 -34 -81 -94 -81 -137c4 2 14 5 26 5c36 0 55 -16 55 -49z" />
    <glyph glyph-name="quoteright" unicode="&#x2019;" horiz-adv-x="244" 
d="M192 604c0 -69 -49 -135 -120 -162l-12 19c67 34 82 94 82 136c-4 -2 -14 -5 -26 -5c-36 0 -55 16 -55 49c0 27 22 49 57 49c42 0 74 -32 74 -86z" />
    <glyph glyph-name="quotedblleft" unicode="&#x201c;" horiz-adv-x="412" 
d="M346 691l10 -19c-68 -34 -82 -94 -82 -137c4 2 13 5 26 5c35 0 52 -16 52 -49c0 -26 -21 -49 -55 -49c-42 0 -73 32 -73 87c0 69 50 136 122 162zM174 691l10 -19c-67 -34 -81 -94 -81 -137c4 2 13 5 25 5c36 0 52 -16 52 -49c0 -26 -20 -49 -55 -49c-42 0 -72 32 -72 87
c0 69 50 136 121 162z" />
    <glyph glyph-name="quotedblright" unicode="&#x201d;" horiz-adv-x="412" 
d="M360 604c0 -69 -49 -135 -121 -162l-12 19c68 34 83 94 83 136c-4 -2 -13 -5 -26 -5c-35 0 -52 16 -52 49c0 27 21 49 55 49c42 0 73 -32 73 -86zM188 604c0 -69 -49 -135 -120 -162l-12 19c67 34 82 94 82 136c-4 -2 -13 -5 -25 -5c-36 0 -52 16 -52 49
c0 27 20 49 55 49c42 0 72 -32 72 -86z" />
    <glyph glyph-name="quotesinglbase" unicode="&#x201a;" horiz-adv-x="254" 
d="M192 12c0 -69 -49 -135 -120 -162l-12 19c67 34 82 94 82 136c-4 -2 -14 -5 -26 -5c-36 0 -55 16 -55 49c0 27 22 49 57 49c42 0 74 -32 74 -86z" />
    <glyph glyph-name="quotedblbase" unicode="&#x201e;" horiz-adv-x="422" 
d="M360 12c0 -69 -49 -135 -121 -162l-12 19c68 34 83 94 83 136c-4 -2 -13 -5 -26 -5c-35 0 -52 16 -52 49c0 27 21 49 55 49c42 0 73 -32 73 -86zM188 12c0 -69 -49 -135 -120 -162l-12 19c67 34 82 94 82 136c-4 -2 -13 -5 -25 -5c-36 0 -52 16 -52 49c0 27 20 49 55 49
c42 0 72 -32 72 -86z" />
    <glyph glyph-name="guilsinglleft" unicode="&#x2039;" horiz-adv-x="322" 
d="M132 235l112 -162l-20 -16l-172 159v37l172 159l20 -16z" />
    <glyph glyph-name="guilsinglright" unicode="&#x203a;" horiz-adv-x="322" 
d="M270 253v-37l-173 -159l-19 16l111 162l-111 161l19 16z" />
    <glyph glyph-name="guillemotleft" unicode="&#xab;" horiz-adv-x="500" 
d="M311 235l111 -162l-19 -16l-173 159v37l173 159l19 -16zM132 235l112 -162l-20 -16l-172 159v37l172 159l20 -16z" />
    <glyph glyph-name="guillemotright" unicode="&#xbb;" horiz-adv-x="500" 
d="M448 253v-37l-172 -159l-20 16l112 162l-112 161l20 16zM270 253v-37l-173 -159l-19 16l111 162l-111 161l19 16z" />
    <glyph glyph-name="underscore" unicode="_" horiz-adv-x="566" 
d="M569 -98v-39h-572v39h572z" />
    <glyph glyph-name="hyphen" unicode="-" horiz-adv-x="367" 
d="M324 268v-65h-282v65h282z" />
    <glyph glyph-name="hyphen" unicode="&#xad;" horiz-adv-x="367" 
d="M324 268v-65h-282v65h282z" />
    <glyph glyph-name="endash" unicode="&#x2013;" horiz-adv-x="566" 
d="M486 266v-53h-406v53h406z" />
    <glyph glyph-name="emdash" unicode="&#x2014;" horiz-adv-x="900" 
d="M746 266v-53h-592v53h592z" />
    <glyph glyph-name="periodcentered" unicode="&#xb7;" horiz-adv-x="279" 
d="M201 291c0 -33 -28 -62 -62 -62c-33 0 -61 29 -61 62s28 61 61 61c34 0 62 -28 62 -61z" />
    <glyph glyph-name="bullet" unicode="&#x2022;" horiz-adv-x="530" 
d="M353 301c0 -49 -40 -89 -90 -89c-49 0 -89 40 -89 89c0 50 41 89 90 89s89 -39 89 -89z" />
    <glyph glyph-name="degree" unicode="&#xb0;" horiz-adv-x="400" 
d="M347 544c0 -81 -66 -147 -147 -147s-147 66 -147 147s66 147 147 147s147 -66 147 -147zM291 544c0 55 -36 100 -91 100s-91 -45 -91 -100s36 -100 91 -100s91 45 91 100z" />
    <glyph glyph-name="asterisk" unicode="*" horiz-adv-x="500" 
d="M438 565l8 -24l-150 -63l84 -140l-20 -15l-108 123l-107 -123l-20 15l83 140l-149 63l8 24l158 -36l15 162h25l15 -162z" />
    <glyph glyph-name="dagger" unicode="&#x2020;" horiz-adv-x="500" 
d="M426 522v-75l-160 22l18 -414h-68l18 414l-160 -22v75l160 -22l-22 185h76l-22 -185z" />
    <glyph glyph-name="daggerdbl" unicode="&#x2021;" horiz-adv-x="500" 
d="M426 276v-76l-160 22l22 -184h-76l22 184l-160 -22v76l159 -23v216l-159 -22v76l160 -22l-22 184h76l-22 -184l160 22v-76l-159 22v-216z" />
    <glyph glyph-name="paragraph" unicode="&#xb6;" horiz-adv-x="566" 
d="M510 635v-22c-44 -3 -90 -18 -101 -40v-721h-45v415c-28 -7 -53 -14 -75 -14c-138 0 -213 79 -213 192c0 111 78 193 239 193c43 0 132 -3 195 -3zM364 295v305c-10 2 -28 3 -36 3c-48 0 -69 -74 -69 -151c0 -100 21 -162 72 -162c11 0 23 1 33 5z" />
    <glyph glyph-name="section" unicode="&#xa7;" horiz-adv-x="566" 
d="M483 583c0 -22 -14 -46 -40 -49c-22 18 -68 58 -118 58c-64 0 -94 -28 -94 -90c0 -53 58 -103 140 -199c26 -31 90 -108 90 -223c0 -110 -85 -178 -134 -209c-39 -24 -97 -44 -161 -44c-51 0 -84 26 -84 59c0 22 14 48 41 51c21 -20 67 -61 116 -61c64 0 94 28 94 91
c0 53 -51 89 -140 198c-24 29 -90 108 -90 224c0 109 86 178 134 209c38 25 98 44 161 44c52 0 85 -26 85 -59zM407 69c0 88 -57 142 -137 243c-61 77 -76 107 -77 177c0 9 1 28 3 37c-28 -38 -39 -68 -39 -126c0 -88 56 -142 139 -243c51 -62 76 -108 77 -177
c0 -8 -1 -28 -3 -38c28 39 37 69 37 127z" />
    <glyph glyph-name="ampersand" unicode="&#x26;" horiz-adv-x="681" 
d="M684 86l15 -9c-24 -57 -63 -94 -131 -94c-79 0 -107 64 -151 123c-59 -70 -126 -120 -216 -120c-94 0 -180 61 -180 179c0 111 87 163 159 196c-38 35 -71 75 -71 123c0 76 67 132 142 132c92 0 133 -48 133 -108c0 -68 -44 -102 -103 -133c78 -62 110 -105 167 -177
c40 62 74 117 107 197c6 14 -18 48 -59 61l6 22l197 -47l-4 -23c-46 0 -66 -5 -95 -25c-43 -86 -85 -142 -132 -212c64 -80 99 -131 140 -131c51 0 65 31 76 46zM310 508c0 44 -22 79 -65 79c-37 0 -63 -36 -63 -82c0 -38 43 -82 75 -111c46 28 53 66 53 114zM398 132
c-73 90 -108 137 -195 208c-60 -36 -93 -72 -93 -167c0 -74 64 -129 128 -129c73 0 119 40 160 88z" />
    <glyph glyph-name="ampersand.sc" horiz-adv-x="597" 
d="M569 74l17 -11c-17 -47 -48 -76 -105 -76c-66 0 -88 39 -123 90c-37 -49 -91 -88 -175 -88c-75 0 -143 50 -143 146c0 88 65 128 122 155c-31 28 -54 60 -54 101c0 62 58 106 123 106c79 0 118 -40 118 -90c0 -55 -33 -82 -85 -109c60 -50 80 -77 125 -135
c31 49 52 90 78 154c4 11 -14 38 -46 49l6 22l159 -40l-4 -22c-36 0 -52 -7 -75 -23c-34 -66 -60 -107 -100 -164c50 -65 80 -102 112 -102c28 0 42 24 50 37zM280 410c0 33 -21 60 -52 60c-29 0 -44 -28 -44 -62c0 -31 30 -67 58 -91c32 20 38 56 38 93zM342 99
c-58 75 -107 131 -157 171c-31 -21 -58 -55 -58 -125c0 -63 50 -104 98 -104c57 0 90 28 117 58z" />
    <glyph glyph-name="at" unicode="@" horiz-adv-x="984" 
d="M882 286c0 -160 -111 -290 -273 -290c-38 0 -61 25 -66 64l21 90l-3 1c-70 -89 -141 -158 -192 -158c-17 0 -48 27 -48 103s26 148 83 207c71 74 160 109 255 109h33l-67 -310c-2 -8 -3 -25 -3 -31c0 -10 5 -30 22 -30c111 0 198 122 198 255c0 149 -127 246 -274 246
c-216 0 -374 -160 -374 -389c0 -170 125 -315 318 -315c110 0 191 42 272 110l15 -20c-82 -79 -179 -126 -303 -126c-232 0 -377 134 -377 358c0 229 189 421 429 421c193 0 334 -122 334 -295zM574 195l32 154c-8 1 -22 2 -32 2c-36 0 -81 -8 -95 -17
c-43 -38 -80 -106 -80 -212c0 -46 8 -70 21 -70c28 0 84 61 154 143z" />
    <glyph glyph-name="trademark" unicode="&#x2122;" horiz-adv-x="750" 
d="M701 382v-12h-137v12c19 1 40 9 44 17l-9 154l2 37h-4l-9 -32l-81 -188h-25l-69 202l-5 29h-4l1 -28l-13 -171c4 -8 25 -19 44 -20v-12h-114v12c19 1 37 12 42 20l11 148c1 15 3 40 3 42v14c-4 8 -18 17 -37 18v11h102l13 -39l54 -161l65 157l18 43h92v-11
c-19 -1 -34 -9 -38 -16v-12s2 -33 3 -46l9 -151c4 -8 22 -16 42 -17zM316 648v-87h-12c-1 33 -23 49 -54 50l-34 1v-205c8 -19 30 -25 50 -25v-12h-154v12c19 0 45 7 51 19v211l-34 -1c-32 -1 -53 -17 -54 -50h-12v87h11c2 -7 7 -14 28 -14h175c21 0 26 7 28 14h11z" />
    <glyph glyph-name="registered" unicode="&#xae;" horiz-adv-x="556" 
d="M502 466c0 -123 -100 -223 -224 -223c-123 0 -224 100 -224 223c0 124 101 223 224 223c124 0 224 -99 224 -223zM328 529c0 25 -16 49 -49 49c-5 0 -15 -1 -22 -1v-111h25c37 0 46 23 46 63zM477 466c0 110 -89 200 -199 200s-198 -90 -198 -200s88 -200 198 -200
c62 0 119 29 155 73h-19c-45 0 -47 -1 -70 29c-26 33 -41 61 -53 78h-34v-72c5 -12 26 -18 48 -19v-14h-144v14c22 1 40 5 46 17v195c-4 8 -24 14 -46 14v15c51 0 80 1 117 1c74 0 106 -23 106 -67c0 -25 -11 -51 -48 -67l51 -67c13 -17 29 -32 32 -34c7 -5 16 -8 24 -10
c23 33 34 72 34 114z" />
    <glyph glyph-name="copyright" unicode="&#xa9;" horiz-adv-x="1000" 
d="M879 230c0 -211 -172 -383 -383 -383s-384 172 -384 383s173 383 384 383s383 -172 383 -383zM837 230c0 190 -151 343 -341 343c-191 0 -342 -153 -342 -343c0 -191 151 -344 342 -344c190 0 341 153 341 344zM651 151l23 -5l-27 -108c-49 -14 -65 -24 -136 -24
c-127 0 -218 97 -218 220c0 126 96 213 219 213c61 0 95 -14 146 -25v-114h-21c-3 30 -21 60 -44 77c-11 8 -31 29 -81 29c-82 0 -123 -77 -123 -165c0 -119 51 -202 148 -202c25 0 42 13 56 23c28 21 49 50 58 81z" />
    <glyph glyph-name="asciicircum" unicode="^" horiz-adv-x="597" 
d="M323 625l196 -377h-65l-155 303l-155 -303h-65l196 377h48z" />
    <glyph glyph-name="asciitilde" unicode="~" horiz-adv-x="597" 
d="M497 339l36 -15c-18 -52 -73 -143 -151 -143c-39 0 -72 16 -99 31c-33 18 -64 40 -97 40c-43 0 -63 -38 -87 -87l-35 15c18 51 73 142 151 142c46 0 81 -18 111 -35c29 -17 55 -36 85 -36c43 0 63 38 86 88z" />
    <glyph glyph-name="zero" unicode="0" horiz-adv-x="566" 
d="M525 324c0 -198 -109 -338 -253 -338c-146 0 -231 149 -231 335c0 191 114 328 253 328c146 0 231 -152 231 -325zM426 303c0 187 -50 311 -146 311c-75 0 -140 -111 -140 -279c0 -185 51 -314 146 -314c76 0 140 110 140 282z" />
    <glyph glyph-name="one" unicode="1" horiz-adv-x="566" 
d="M452 23v-23h-311v23c46 2 102 16 112 35v457c0 44 -34 45 -110 45v22l200 67h17v-14l-20 -34v-543c10 -19 66 -33 112 -35z" />
    <glyph glyph-name="one.prop" horiz-adv-x="410" 
d="M375 23v-23h-311v23c46 2 102 16 112 35v457c0 44 -34 45 -110 45v22l200 67h17v-14l-20 -34v-543c10 -19 66 -33 112 -35z" />
    <glyph glyph-name="two" unicode="2" horiz-adv-x="566" 
d="M518 175v-175h-466l-7 17c251 182 330 303 330 425c0 83 -55 129 -131 129c-92 0 -142 -66 -165 -122l-21 7c19 89 82 193 218 193c111 0 194 -73 194 -181c0 -176 -157 -272 -300 -393h282c21 10 44 55 46 100h20z" />
    <glyph glyph-name="three" unicode="3" horiz-adv-x="566" 
d="M494 200c0 -121 -116 -214 -255 -214c-76 0 -134 21 -170 45l-16 143h20c11 -44 37 -93 71 -118c28 -21 63 -33 107 -33c78 0 145 59 145 155c0 97 -83 128 -153 128c-27 0 -51 -9 -73 -17l-9 30c59 18 84 29 98 36c73 34 103 73 103 131c0 50 -34 99 -112 99
c-86 0 -130 -73 -148 -99l-18 9c12 44 69 154 202 154c93 0 170 -52 170 -134c0 -68 -44 -114 -125 -146c57 -10 163 -55 163 -169z" />
    <glyph glyph-name="four" unicode="4" horiz-adv-x="566" 
d="M539 252v-51h-139v-143c10 -20 41 -33 86 -35v-23h-268v23c44 2 84 15 94 35v143h-296v29l337 413h51c-4 -46 -4 -91 -4 -104v-287h139zM82 252h230v283z" />
    <glyph glyph-name="five" unicode="5" horiz-adv-x="566" 
d="M493 196c0 -108 -97 -210 -247 -210c-72 0 -136 21 -172 40l-17 147h20c14 -42 39 -88 74 -115c30 -24 71 -35 107 -35c82 0 140 63 140 159c0 105 -113 135 -222 135h-82l47 316h284c19 14 25 39 30 56h17v-146h-19c-8 4 -32 7 -60 7h-226l-24 -150h54
c153 0 296 -50 296 -204z" />
    <glyph glyph-name="six" unicode="6" horiz-adv-x="566" 
d="M524 220c0 -122 -96 -234 -240 -234c-148 0 -231 122 -231 282c0 242 232 386 413 392l4 -28c-191 -34 -286 -160 -318 -294c58 51 115 87 184 87c104 0 188 -88 188 -205zM431 189c0 98 -50 172 -154 172c-39 0 -80 -13 -130 -56v-41c0 -146 65 -240 157 -240
c72 0 127 56 127 165z" />
    <glyph glyph-name="seven" unicode="7" horiz-adv-x="566" 
d="M550 633v-23c-119 -218 -219 -396 -341 -633h-67l332 576h-305c-27 -18 -58 -50 -65 -131h-20v218h19c9 -3 23 -7 60 -7h387z" />
    <glyph glyph-name="eight" unicode="8" horiz-adv-x="566" 
d="M512 169c0 -112 -108 -186 -233 -186c-128 0 -226 63 -226 160c0 76 48 129 158 174c-91 48 -135 90 -135 168c0 92 92 170 217 170c119 0 199 -64 199 -150c0 -65 -29 -112 -131 -166c96 -48 151 -92 151 -170zM406 497c0 60 -43 122 -123 122c-68 0 -125 -44 -125 -103
c0 -66 54 -103 117 -134l60 -30c51 38 71 87 71 145zM427 136c0 60 -40 94 -107 127l-84 41c-63 -40 -93 -84 -93 -141c0 -89 64 -143 143 -143c80 0 141 48 141 116z" />
    <glyph glyph-name="nine" unicode="9" horiz-adv-x="566" 
d="M513 381c0 -257 -227 -391 -414 -405l-7 28c217 45 327 195 327 379c0 129 -63 227 -164 227c-69 0 -119 -57 -119 -151c0 -115 49 -195 151 -195c20 0 50 9 58 12l6 -23c-42 -31 -96 -41 -127 -41c-95 0 -181 82 -181 204c0 141 127 233 247 233
c140 0 223 -113 223 -268z" />
    <glyph glyph-name="numbersign" unicode="#" horiz-adv-x="650" 
d="M458 386h137l-20 -55h-136l-39 -109h137l-20 -55h-136l-58 -167h-39l60 167h-114l-58 -167h-39l60 167h-137l20 55h136l39 109h-136l20 55h135l59 169h39l-61 -169h114l59 169h39zM363 222l39 109h-114l-39 -109h114z" />
    <glyph glyph-name="dollar" unicode="$" horiz-adv-x="566" 
d="M504 178c0 -103 -79 -168 -192 -182v-103h-35v102h-9c-80 0 -152 20 -192 37l-16 153h20c11 -42 37 -90 76 -119c30 -21 66 -39 121 -39v246c-134 47 -190 94 -190 180c0 95 79 166 190 180v73h35v-71h18c58 0 114 -14 150 -29v-151h-19c-7 40 -23 93 -60 116
c-10 7 -51 29 -89 31v-246c116 -43 192 -89 192 -178zM277 365v236c-76 -8 -112 -57 -112 -101c0 -56 16 -91 112 -135zM426 135c0 63 -36 96 -114 129v-236c78 10 114 55 114 107z" />
    <glyph glyph-name="cent" unicode="&#xa2;" horiz-adv-x="566" 
d="M462 109l19 -23c-55 -62 -119 -93 -185 -93c-22 0 -37 3 -61 12l-49 -131h-37l53 142c-60 36 -103 100 -103 184c0 150 117 243 246 243h14l45 117h37l-46 -121c47 -12 71 -31 77 -45c-3 -15 -19 -54 -34 -63c-23 17 -39 27 -66 43l-112 -300c27 -20 57 -24 90 -24
c48 0 83 23 112 59zM230 94l110 293c-22 10 -40 14 -66 17c-47 -9 -92 -63 -92 -166c0 -69 18 -109 48 -144z" />
    <glyph glyph-name="sterling" unicode="&#xa3;" horiz-adv-x="566" 
d="M545 52c0 -70 -87 -158 -173 -158c-50 0 -77 28 -114 50c-46 28 -84 63 -125 63c-56 0 -67 -55 -107 -55c-15 0 -31 9 -31 29c0 12 3 22 9 27c26 23 79 19 92 37c45 60 55 119 61 183h-115v38h119c9 53 15 101 30 164c38 158 139 223 233 223c81 0 101 -39 102 -65
c1 -16 -8 -44 -48 -49c-20 27 -53 72 -117 72c-28 -8 -55 -27 -80 -163c-15 -81 -20 -147 -29 -182h174v-38h-177c-25 -80 -55 -122 -136 -196l3 -5s50 15 94 15c49 0 86 -26 119 -47s59 -46 93 -46c43 0 65 18 65 54c0 22 -15 40 -35 66c7 25 27 37 46 37
c25 0 47 -22 47 -54z" />
    <glyph glyph-name="Euro" unicode="&#x20ac;" horiz-adv-x="566" 
d="M519 180l18 -5l-28 -150c-60 -21 -91 -34 -168 -34c-135 0 -221 120 -243 251h-73v32h69c-1 13 -1 26 -1 40c0 17 0 32 1 46h-70v32h75c25 137 130 256 254 256c73 0 106 -14 168 -33v-163h-18c-3 39 -16 83 -40 109c-28 30 -60 53 -113 53c-96 0 -146 -104 -158 -222
h203v-32h-207c0 -12 -1 -29 -1 -44c0 -17 1 -27 2 -42h162v-32h-158c19 -132 72 -217 182 -217c36 0 64 17 77 31c32 34 55 78 67 124z" />
    <glyph glyph-name="yen" unicode="&#xa5;" horiz-adv-x="566" 
d="M562 635v-22c-50 -3 -69 -19 -97 -69l-112 -202h149v-31h-166l-9 -19v-65h175v-32h-174v-120c20 -45 60 -50 104 -52v-23h-297v23c44 2 93 10 107 39v133h-174v32h175v56l-13 28h-162v31h144l-108 201c-27 50 -47 67 -100 70v22h246v-22c-46 -3 -56 -16 -70 -27l129 -251
l131 251c-15 11 -28 24 -73 27v22h195z" />
    <glyph glyph-name="florin" unicode="&#x192;" horiz-adv-x="566" 
d="M564 583c0 -16 -9 -43 -48 -48c-20 29 -46 73 -111 73c-28 -7 -52 -25 -79 -161c-7 -34 -10 -58 -16 -99h144v-38h-147c-13 -92 -23 -182 -41 -256c-39 -160 -130 -232 -225 -239c-80 -6 -92 33 -92 59c0 16 8 44 47 51c20 -28 42 -68 107 -64c30 11 53 25 77 167
c10 56 23 170 40 282h-109v38h113c5 31 11 59 17 82c37 154 131 219 227 219c80 0 96 -40 96 -66z" />
    <glyph glyph-name="currency" unicode="&#xa4;" horiz-adv-x="566" 
d="M519 180l18 -5l-28 -150c-60 -21 -91 -34 -168 -34c-135 0 -221 120 -243 251h-73v32h69c-1 13 -1 26 -1 40c0 17 0 32 1 46h-70v32h75c25 137 130 256 254 256c73 0 106 -14 168 -33v-163h-18c-3 39 -16 83 -40 109c-28 30 -60 53 -113 53c-96 0 -146 -104 -158 -222
h203v-32h-207c0 -12 -1 -29 -1 -44c0 -17 1 -27 2 -42h162v-32h-158c19 -132 72 -217 182 -217c36 0 64 17 77 31c32 34 55 78 67 124z" />
    <glyph glyph-name="percent" unicode="%" horiz-adv-x="797" 
d="M765 167c0 -96 -69 -176 -162 -176s-154 75 -154 177c0 98 71 176 165 176c95 0 151 -77 151 -177zM584 645h52l-419 -654h-50zM352 472c0 -96 -69 -176 -162 -176s-154 75 -154 177c0 98 71 176 165 176c95 0 151 -77 151 -177zM689 157c0 97 -31 159 -89 159
c-36 0 -75 -56 -75 -138c0 -92 31 -159 87 -159c41 0 77 52 77 138zM276 462c0 97 -31 159 -89 159c-36 0 -75 -56 -75 -138c0 -92 31 -159 87 -159c41 0 77 52 77 138z" />
    <glyph glyph-name="perthousand" unicode="&#x2030;" horiz-adv-x="1165" 
d="M1131 149c0 -90 -67 -158 -161 -158c-93 0 -154 62 -154 159c0 90 69 157 163 157c95 0 152 -65 152 -158zM761 149c0 -90 -67 -158 -161 -158c-93 0 -153 62 -153 159c0 90 69 157 162 157c95 0 152 -65 152 -158zM574 622h52l-404 -631h-50zM348 463
c0 -90 -67 -158 -160 -158s-154 63 -154 159c0 91 69 158 163 158c95 0 151 -66 151 -159zM1055 131c0 89 -36 149 -94 149c-36 0 -69 -56 -69 -112c0 -83 35 -150 92 -150c41 0 71 54 71 113zM686 131c0 89 -37 149 -94 149c-36 0 -70 -56 -70 -112c0 -83 35 -150 92 -150
c41 0 72 54 72 113zM273 446c0 88 -36 149 -94 149c-36 0 -70 -56 -70 -113c0 -83 36 -150 92 -150c41 0 72 54 72 114z" />
    <glyph glyph-name="ordfeminine" unicode="&#xaa;" horiz-adv-x="402" 
d="M366 393v-21c-17 -18 -53 -40 -76 -40c-34 0 -55 25 -58 42c-24 -25 -68 -42 -94 -42c-37 0 -76 21 -76 61c0 19 3 46 13 61l157 54v41c0 30 -23 68 -56 68c-20 0 -32 -25 -33 -58l-74 -11v9c21 60 105 92 138 92c68 0 95 -35 93 -90l-5 -147c-1 -25 13 -38 28 -38
s26 9 43 19zM328 207v-43h-252v43h252zM230 391l2 94c-19 -9 -72 -30 -90 -41c-5 -10 -8 -23 -8 -37c0 -18 12 -36 32 -36c28 0 45 7 64 20z" />
    <glyph glyph-name="ordmasculine" unicode="&#xba;" horiz-adv-x="431" 
d="M372 491c0 -92 -65 -159 -160 -159c-96 0 -153 62 -153 160c0 89 67 157 161 157c97 0 152 -66 152 -158zM341 207v-43h-250v43h250zM298 472c0 90 -35 149 -97 149c-38 0 -68 -55 -68 -112c0 -85 34 -149 93 -149c43 0 72 52 72 112z" />
    <glyph glyph-name="zero.oldstyle" horiz-adv-x="537" 
d="M485 220c0 -130 -92 -229 -221 -229s-212 90 -212 232c0 128 94 225 223 225c131 0 210 -94 210 -228zM394 194c0 131 -53 220 -146 220c-59 0 -105 -80 -105 -165c0 -124 52 -224 142 -224c67 0 109 77 109 169z" />
    <glyph glyph-name="one.oldstyle" horiz-adv-x="370" 
d="M330 22v-22h-269v22c48 5 87 17 97 33v275c0 35 -25 48 -98 48v20l183 58h16v-13l-21 -33v-355c9 -18 42 -26 92 -33z" />
    <glyph glyph-name="two.oldstyle" horiz-adv-x="425" 
d="M143 75h278l-26 -73h-360l-7 18c206 142 238 208 238 281c0 50 -38 86 -96 86s-90 -50 -110 -85l-20 9c17 67 63 138 167 138c84 0 147 -54 147 -129c0 -90 -52 -148 -211 -245z" />
    <glyph glyph-name="three.oldstyle" horiz-adv-x="405" 
d="M364 28c0 -83 -57 -150 -125 -186c-38 -20 -97 -33 -141 -33c-36 0 -68 21 -68 49c0 17 11 40 36 43c24 -16 61 -48 105 -48c57 0 115 48 115 114c0 91 -59 144 -151 144c-23 0 -41 -5 -58 -9l-8 27c44 12 84 34 93 41c54 37 88 68 88 128c0 50 -35 90 -97 90
c-48 0 -78 -39 -94 -66l-18 9c7 50 50 118 153 118c74 0 139 -48 139 -115c0 -74 -41 -115 -120 -158c69 -7 151 -59 151 -148z" />
    <glyph glyph-name="four.oldstyle" horiz-adv-x="470" 
d="M338 93h129l-21 -59h-108v-220h-80v220h-256l-4 18l310 401l32 -5c-1 -45 -2 -79 -2 -103v-252zM73 93h185v242z" />
    <glyph glyph-name="five.oldstyle" horiz-adv-x="388" 
d="M141 434h234l-33 -82h-203l-34 -78c51 -27 89 -44 137 -82c47 -37 90 -85 90 -157c0 -155 -157 -227 -249 -227c-28 0 -51 20 -51 43c0 19 15 40 27 44c21 -13 49 -37 79 -37c62 0 117 29 117 130c0 100 -89 157 -215 217z" />
    <glyph glyph-name="six.oldstyle" horiz-adv-x="537" 
d="M481 200c0 -124 -107 -209 -230 -209c-119 0 -190 94 -190 217c0 193 168 350 307 427l18 -26c-79 -69 -172 -155 -216 -277c35 24 79 54 142 54c94 0 169 -82 169 -186zM393 173c0 91 -53 164 -138 164c-44 0 -76 -23 -92 -33c-7 -29 -10 -61 -10 -93
c0 -94 50 -185 133 -185c64 0 107 57 107 147z" />
    <glyph glyph-name="seven.oldstyle" horiz-adv-x="429" 
d="M424 434l3 -11c-57 -92 -118 -203 -165 -298c-52 -105 -98 -198 -158 -314l-47 20l280 519h-317l33 84h371z" />
    <glyph glyph-name="eight.oldstyle" horiz-adv-x="489" 
d="M435 156c0 -96 -88 -169 -197 -169c-107 0 -189 63 -189 147c0 78 48 120 144 170c-72 49 -125 89 -125 164c0 84 74 157 183 157c104 0 171 -61 171 -134c0 -70 -44 -116 -123 -159c84 -55 136 -101 136 -176zM338 482c0 63 -37 109 -95 109c-52 0 -94 -33 -94 -82
c0 -62 34 -96 94 -138l42 -29c31 35 53 86 53 140zM353 119c0 57 -26 91 -82 130l-63 44c-49 -39 -70 -92 -70 -141c0 -87 46 -131 107 -131c55 0 108 41 108 98z" />
    <glyph glyph-name="nine.oldstyle" horiz-adv-x="539" 
d="M478 224c0 -160 -105 -312 -290 -418l-17 22c108 89 214 218 214 388c0 102 -52 198 -138 198c-58 0 -102 -52 -102 -136c0 -100 49 -180 142 -180c3 0 33 3 37 5l2 -17c-37 -20 -71 -34 -102 -34c-93 0 -168 75 -168 191c0 121 116 206 229 206c118 0 193 -95 193 -225z
" />
    <glyph glyph-name="dollar.oldstyle" horiz-adv-x="538" 
d="M471 172c0 -99 -71 -160 -174 -174v-105h-34v103h-14c-68 0 -133 19 -169 35l-15 149h21c10 -39 32 -86 69 -113c29 -21 57 -37 108 -37v229c-119 45 -173 93 -173 175c0 91 70 157 173 172v86h34v-84h14c54 0 105 -13 137 -27v-147h-20c-6 40 -17 88 -52 110
c-10 7 -44 27 -79 29v-229c108 -44 174 -86 174 -172zM263 353v219c-66 -8 -95 -52 -95 -93c0 -53 8 -85 95 -126zM394 131c0 58 -29 90 -97 120v-219c67 10 97 53 97 99z" />
    <glyph glyph-name="cent.oldstyle" horiz-adv-x="480" 
d="M418 109l19 -23c-55 -62 -119 -93 -185 -93c-22 0 -37 3 -61 12l-49 -131h-37l53 142c-60 36 -103 100 -103 184c0 150 117 243 246 243h14l45 117h37l-46 -121c47 -12 71 -31 77 -45c-3 -15 -19 -54 -34 -63c-23 17 -39 27 -66 43l-112 -300c27 -20 57 -24 90 -24
c48 0 83 23 112 59zM186 94l110 293c-22 10 -40 14 -66 17c-47 -9 -92 -63 -92 -166c0 -69 18 -109 48 -144z" />
    <glyph glyph-name="sterling.oldstyle" horiz-adv-x="594" 
d="M563 46c0 -70 -87 -159 -174 -159c-50 0 -80 29 -117 51c-47 28 -87 66 -128 66c-57 0 -69 -57 -114 -57c-15 0 -31 9 -31 29c0 12 3 22 9 27c26 23 85 19 99 37c48 60 60 120 68 184h-116v38h121c10 54 15 89 36 164c44 158 148 222 243 222c82 0 103 -40 103 -66
c0 -16 -10 -43 -50 -48c-19 27 -55 72 -120 72c-29 -8 -57 -28 -86 -162c-18 -81 -25 -147 -35 -182h174v-38h-179c-27 -80 -59 -122 -143 -196l3 -5s51 15 95 15c50 0 89 -27 123 -49c33 -20 61 -48 96 -48c43 0 65 20 65 56c0 22 -15 40 -35 66c7 25 26 37 45 37
c26 0 48 -22 48 -54z" />
    <glyph glyph-name="Euro.oldstyle" horiz-adv-x="660" 
d="M589 173l19 -5l-30 -142c-64 -20 -88 -35 -182 -35c-147 0 -236 111 -260 235h-96v32h92c-1 14 -1 26 -1 39c0 16 0 28 1 44h-93v32h98c27 130 130 240 270 240c80 0 118 -16 184 -34v-156h-19c-4 42 -16 77 -43 103c-30 28 -68 53 -128 53c-102 0 -159 -94 -172 -206
h225v-32h-229c0 -11 -1 -17 -1 -33c0 -24 1 -34 3 -50h181v-32h-177c20 -126 88 -201 205 -201c39 0 65 17 81 32c34 32 60 71 72 116z" />
    <glyph glyph-name="yen.oldstyle" horiz-adv-x="620" 
d="M595 604v-22c-50 -3 -71 -18 -99 -66l-108 -186h140v-31h-159l-16 -28v-54h175v-32h-174v-112c20 -43 60 -49 104 -51v-22h-297v22c44 2 93 11 107 39v124h-174v32h175v46l-19 36h-156v31h136l-106 186c-26 46 -48 63 -101 66v22h248v-22c-46 -3 -56 -15 -70 -26
l134 -243l136 243c-15 11 -28 23 -73 26v22h197z" />
    <glyph glyph-name="florin.oldstyle" horiz-adv-x="500" 
d="M531 571c0 -16 -9 -43 -48 -48c-20 29 -48 73 -113 73c-28 -7 -53 -25 -78 -161c-7 -35 -13 -68 -16 -97h143v-38h-147c-12 -91 -21 -172 -39 -246c-41 -168 -140 -240 -240 -240c-67 0 -79 36 -79 60c0 16 8 44 47 51c20 -28 44 -68 109 -64c30 11 53 25 77 167
c10 56 21 160 38 272h-109v38h113c6 31 12 55 18 80c38 158 130 219 226 219c80 0 98 -40 98 -66z" />
    <glyph glyph-name="currency.oldstyle" horiz-adv-x="660" 
d="M589 173l19 -5l-30 -142c-64 -20 -88 -35 -182 -35c-147 0 -236 111 -260 235h-96v32h92c-1 14 -1 26 -1 39c0 16 0 28 1 44h-93v32h98c27 130 130 240 270 240c80 0 118 -16 184 -34v-156h-19c-4 42 -16 77 -43 103c-30 28 -68 53 -128 53c-102 0 -159 -94 -172 -206
h225v-32h-229c0 -11 -1 -17 -1 -33c0 -24 1 -34 3 -50h181v-32h-177c20 -126 88 -201 205 -201c39 0 65 17 81 32c34 32 60 71 72 116z" />
    <glyph glyph-name="section.oldstyle" horiz-adv-x="524" 
d="M462 583c0 -22 -14 -46 -40 -49c-22 18 -68 58 -118 58c-64 0 -94 -28 -94 -90c0 -53 58 -103 140 -199c26 -31 90 -108 90 -223c0 -110 -85 -178 -134 -209c-39 -24 -97 -44 -161 -44c-51 0 -84 26 -84 59c0 22 14 48 41 51c21 -20 67 -61 116 -61c64 0 94 28 94 91
c0 53 -51 89 -140 198c-24 29 -90 108 -90 224c0 109 86 178 134 209c38 25 98 44 161 44c52 0 85 -26 85 -59zM386 69c0 88 -57 142 -137 243c-61 77 -76 107 -77 177c0 9 1 28 3 37c-28 -38 -39 -68 -39 -126c0 -88 56 -142 139 -243c51 -62 76 -108 77 -177
c0 -8 -1 -28 -3 -38c28 39 37 69 37 127z" />
    <glyph glyph-name="percent.oldstyle" horiz-adv-x="797" 
d="M761 149c0 -90 -67 -158 -161 -158c-93 0 -153 62 -153 159c0 90 69 157 162 157c95 0 152 -65 152 -158zM574 622h52l-404 -631h-50zM348 463c0 -90 -67 -158 -160 -158s-154 63 -154 159c0 91 69 158 163 158c95 0 151 -66 151 -159zM686 131c0 89 -37 149 -94 149
c-36 0 -70 -56 -70 -112c0 -83 35 -150 92 -150c41 0 72 54 72 113zM273 446c0 88 -36 149 -94 149c-36 0 -70 -56 -70 -113c0 -83 36 -150 92 -150c41 0 72 54 72 114z" />
    <glyph glyph-name="ordfeminine.oldstyle" horiz-adv-x="402" 
d="M366 369v-21c-17 -18 -53 -40 -76 -40c-34 0 -55 25 -58 42c-24 -25 -68 -42 -94 -42c-37 0 -76 21 -76 61c0 19 3 46 13 61l157 54v41c0 30 -23 68 -56 68c-20 0 -32 -25 -33 -58l-74 -11v9c21 60 105 92 138 92c68 0 95 -35 93 -90l-5 -147c-1 -25 13 -38 28 -38
s26 9 43 19zM328 183v-43h-252v43h252zM230 367l2 94c-19 -9 -72 -30 -90 -41c-5 -10 -8 -23 -8 -37c0 -18 12 -36 32 -36c28 0 45 7 64 20z" />
    <glyph glyph-name="ordmasculine.oldstyle" horiz-adv-x="431" 
d="M372 467c0 -92 -65 -159 -160 -159c-96 0 -153 62 -153 160c0 89 67 157 161 157c97 0 152 -66 152 -158zM341 183v-43h-250v43h250zM298 448c0 90 -35 149 -97 149c-38 0 -68 -55 -68 -112c0 -85 34 -149 93 -149c43 0 72 52 72 112z" />
    <glyph glyph-name="plus" unicode="+" horiz-adv-x="597" 
d="M517 266v-52h-192v-192h-53v192h-192v52h192v192h53v-192h192z" />
    <glyph glyph-name="minus" unicode="&#x2212;" horiz-adv-x="597" 
d="M517 266v-53h-437v53h437z" />
    <glyph glyph-name="multiply" unicode="&#xd7;" horiz-adv-x="597" 
d="M334 240l157 -156l-37 -38l-156 157l-156 -157l-37 38l157 156l-157 155l37 38l156 -157l156 157l37 -38z" />
    <glyph glyph-name="divide" unicode="&#xf7;" horiz-adv-x="597" 
d="M354 408c0 -29 -24 -54 -55 -54s-55 25 -55 54c0 30 24 54 55 54s55 -24 55 -54zM517 266v-52h-437v52h437zM353 72c0 -30 -24 -54 -55 -54s-55 24 -55 54c0 29 24 54 55 54s55 -25 55 -54z" />
    <glyph glyph-name="equal" unicode="=" horiz-adv-x="597" 
d="M513 341v-52h-429v52h429zM513 191v-52h-429v52h429z" />
    <glyph glyph-name="less" unicode="&#x3c;" horiz-adv-x="597" 
d="M482 92v-65l-377 196v48l377 196v-65l-303 -155z" />
    <glyph glyph-name="greater" unicode="&#x3e;" horiz-adv-x="597" 
d="M492 271v-48l-377 -196v65l303 155l-303 155v65z" />
    <glyph glyph-name="plusminus" unicode="&#xb1;" horiz-adv-x="597" 
d="M517 346v-52h-192v-187h-53v187h-192v52h192v187h53v-187h192zM517 52v-52h-437v52h437z" />
    <glyph glyph-name="logicalnot" unicode="&#xac;" horiz-adv-x="597" 
d="M507 286v-244h-53v192h-374v52h427z" />
    <glyph glyph-name="mu" unicode="&#xb5;" horiz-adv-x="627" 
d="M601 107c0 -30 -35 -115 -106 -115c-41 0 -77 23 -91 110c-50 -86 -98 -112 -149 -112c-45 0 -87 32 -118 109c-16 -97 -32 -197 -48 -318c-3 -26 -13 -37 -45 -37c-26 0 -32 10 -32 35c0 17 18 107 32 158c27 105 76 333 98 479h88c-21 -90 -60 -266 -60 -289
c0 -53 43 -77 83 -77c61 0 97 59 112 103c30 86 47 185 62 263h87c-30 -113 -52 -195 -73 -291c0 -35 9 -66 53 -66c45 0 66 25 79 49c9 16 12 16 17 16c8 0 11 -3 11 -17z" />
    <glyph glyph-name="uni2070" unicode="&#x2070;" horiz-adv-x="459" 
d="M408 500c0 -110 -74 -195 -182 -195s-176 77 -176 197c0 109 77 192 185 192c109 0 173 -81 173 -194zM326 478c0 108 -36 180 -114 180c-47 0 -79 -64 -79 -134c0 -102 37 -183 110 -183c54 0 83 62 83 137z" />
    <glyph glyph-name="onesuperior" unicode="&#xb9;" horiz-adv-x="308" 
d="M284 334v-19h-242v19c41 3 77 17 86 32v226c0 36 -17 40 -82 40v18l159 45h14v-12l-16 -29v-291c9 -18 37 -25 81 -29z" />
    <glyph glyph-name="twosuperior" unicode="&#xb2;" horiz-adv-x="368" 
d="M131 379h231l-24 -66h-304l-6 19c174 117 199 172 199 233c0 46 -30 70 -79 70c-50 0 -78 -40 -95 -69l-14 8c14 57 53 120 143 120c73 0 125 -46 125 -110c0 -74 -39 -124 -176 -205z" />
    <glyph glyph-name="threesuperior" unicode="&#xb3;" horiz-adv-x="356" 
d="M311 427c0 -55 -34 -91 -92 -115c-44 -18 -84 -25 -121 -25c-29 0 -59 17 -59 39c0 14 8 35 32 36c19 -11 48 -38 84 -38c47 0 80 30 80 72c0 53 -28 81 -91 81c-18 0 -47 -6 -61 -8l-8 27c34 7 65 18 73 22c45 23 59 36 59 75c0 29 -20 51 -66 51c-38 0 -62 -30 -74 -50
l-19 6c7 33 45 94 130 94c68 0 110 -34 110 -77c0 -44 -24 -65 -79 -92c55 -8 102 -42 102 -98z" />
    <glyph glyph-name="uni2074" unicode="&#x2074;" horiz-adv-x="378" 
d="M271 471h96l-21 -47h-75v-136h-73v136h-190l-5 18l238 253l32 -4c-1 -33 -2 -54 -2 -69v-151zM79 471h119v132z" />
    <glyph glyph-name="uni2075" unicode="&#x2075;" horiz-adv-x="322" 
d="M118 686h194l-33 -66h-158l-20 -36c17 -7 33 -14 48 -21c18 -7 35 -16 53 -28c37 -23 73 -54 73 -102c0 -101 -127 -146 -199 -146c-23 0 -45 13 -45 32c0 15 12 33 28 37c21 -10 42 -27 60 -27c47 0 82 20 82 74c0 56 -63 89 -168 129z" />
    <glyph glyph-name="uni2076" unicode="&#x2076;" horiz-adv-x="406" 
d="M369 440c0 -81 -84 -135 -178 -135c-92 0 -147 61 -147 140c0 130 127 222 239 271l20 -23c-61 -43 -122 -92 -158 -158c25 13 52 26 92 26c73 0 132 -53 132 -121zM289 423c0 54 -35 97 -94 97c-16 0 -29 -4 -40 -8c-10 -4 -18 -8 -23 -11c-5 -17 -7 -35 -7 -54
c0 -56 35 -108 92 -108c44 0 72 31 72 84z" />
    <glyph glyph-name="uni2077" unicode="&#x2077;" horiz-adv-x="349" 
d="M346 686l5 -18c-46 -59 -92 -126 -130 -185c-41 -64 -76 -119 -125 -195l-47 16l216 315h-245l31 67h295z" />
    <glyph glyph-name="uni2078" unicode="&#x2078;" horiz-adv-x="401" 
d="M355 415c0 -64 -72 -110 -158 -110c-84 0 -152 39 -152 96c0 50 37 77 105 106c-51 28 -90 54 -90 101c0 57 61 103 147 103c82 0 138 -39 138 -88c0 -45 -33 -74 -88 -99c59 -32 98 -61 98 -109zM270 617c0 36 -26 62 -68 62c-40 0 -68 -19 -68 -45c0 -35 23 -55 70 -81
l30 -16c21 21 36 50 36 80zM282 392c0 33 -18 52 -61 76l-46 26c-35 -23 -50 -54 -50 -81c0 -51 33 -76 78 -76c42 0 79 25 79 55z" />
    <glyph glyph-name="uni2079" unicode="&#x2079;" horiz-adv-x="406" 
d="M364 549c0 -102 -79 -197 -227 -265l-20 21c89 58 163 137 163 239c0 62 -36 117 -95 117c-40 0 -70 -29 -70 -78c0 -60 32 -106 97 -106c2 0 17 1 22 3l-1 -23c-24 -11 -43 -20 -68 -20c-72 0 -127 49 -127 124c0 80 89 133 175 133c92 0 151 -61 151 -145z" />
    <glyph glyph-name="zero.numerator" horiz-adv-x="459" 
d="M418 455c0 -110 -74 -195 -182 -195s-176 77 -176 197c0 109 77 192 185 192c109 0 173 -81 173 -194zM336 433c0 108 -36 180 -114 180c-47 0 -79 -64 -79 -134c0 -102 37 -183 110 -183c54 0 83 62 83 137z" />
    <glyph glyph-name="one.numerator" horiz-adv-x="308" 
d="M294 288v-19h-242v19c41 3 77 17 86 32v226c0 36 -17 40 -82 40v18l159 45h14v-12l-16 -29v-291c9 -18 37 -25 81 -29z" />
    <glyph glyph-name="two.numerator" horiz-adv-x="368" 
d="M141 334h221l-24 -66h-294l-6 19c174 117 199 172 199 233c0 46 -30 70 -79 70c-50 0 -78 -40 -95 -69l-14 8c14 57 53 120 143 120c73 0 125 -46 125 -110c0 -74 -39 -124 -176 -205z" />
    <glyph glyph-name="three.numerator" horiz-adv-x="356" 
d="M321 382c0 -55 -34 -91 -92 -115c-44 -18 -84 -25 -121 -25c-29 0 -59 17 -59 39c0 14 8 35 32 36c19 -11 48 -38 84 -38c47 0 80 30 80 72c0 53 -28 81 -91 81c-18 0 -47 -6 -61 -8l-8 27c34 7 65 18 73 22c45 23 59 36 59 75c0 29 -20 51 -66 51c-38 0 -62 -30 -74 -50
l-19 6c7 33 45 94 130 94c68 0 110 -34 110 -77c0 -44 -24 -65 -79 -92c55 -8 102 -42 102 -98z" />
    <glyph glyph-name="four.numerator" horiz-adv-x="378" 
d="M281 426h96l-21 -47h-75v-136h-72v136h-191l-5 18l238 253l32 -4c-1 -33 -2 -54 -2 -69v-151zM89 426h120v132z" />
    <glyph glyph-name="five.numerator" horiz-adv-x="322" 
d="M128 641h194l-33 -66h-158l-20 -36c17 -7 33 -14 48 -21c18 -7 35 -16 53 -28c37 -23 73 -54 73 -102c0 -101 -127 -146 -199 -146c-23 0 -45 13 -45 32c0 15 12 33 28 37c21 -10 42 -27 60 -27c47 0 82 20 82 74c0 56 -63 89 -168 129z" />
    <glyph glyph-name="six.numerator" horiz-adv-x="406" 
d="M379 395c0 -81 -84 -135 -178 -135c-92 0 -147 61 -147 140c0 130 127 222 239 271l20 -23c-61 -43 -122 -92 -158 -158c25 13 52 26 92 26c73 0 132 -53 132 -121zM299 378c0 54 -35 97 -94 97c-16 0 -29 -4 -40 -8c-10 -4 -18 -8 -23 -11c-5 -17 -7 -35 -7 -54
c0 -56 35 -108 92 -108c44 0 72 31 72 84z" />
    <glyph glyph-name="seven.numerator" horiz-adv-x="345" 
d="M356 641l5 -18c-46 -59 -92 -126 -130 -185c-41 -64 -76 -119 -125 -195l-47 16l216 315h-245l31 67h295z" />
    <glyph glyph-name="eight.numerator" horiz-adv-x="401" 
d="M365 370c0 -64 -72 -110 -158 -110c-84 0 -152 39 -152 96c0 50 37 77 105 106c-51 28 -90 54 -90 101c0 57 61 103 147 103c82 0 138 -39 138 -88c0 -45 -33 -74 -88 -99c59 -32 98 -61 98 -109zM280 572c0 36 -26 62 -68 62c-40 0 -68 -19 -68 -45c0 -35 23 -55 70 -81
l30 -16c21 21 36 50 36 80zM292 347c0 33 -18 52 -61 76l-46 26c-35 -23 -50 -54 -50 -81c0 -51 33 -76 78 -76c42 0 79 25 79 55z" />
    <glyph glyph-name="nine.numerator" horiz-adv-x="406" 
d="M374 504c0 -102 -79 -197 -227 -265l-20 21c89 58 163 137 163 239c0 62 -36 117 -95 117c-40 0 -70 -29 -70 -78c0 -60 32 -106 97 -106c2 0 17 1 22 3l-1 -23c-24 -11 -43 -20 -68 -20c-72 0 -127 49 -127 124c0 80 89 133 175 133c92 0 151 -61 151 -145z" />
    <glyph glyph-name="zero.denominator" horiz-adv-x="459" 
d="M418 158c0 -110 -74 -195 -182 -195s-176 77 -176 197c0 109 77 192 185 192c109 0 173 -81 173 -194zM336 136c0 108 -36 180 -114 180c-47 0 -79 -64 -79 -134c0 -102 37 -183 110 -183c54 0 83 62 83 137z" />
    <glyph glyph-name="one.denominator" horiz-adv-x="308" 
d="M294 -8v-19h-242v19c41 3 77 17 86 32v226c0 36 -17 40 -82 40v18l159 45h14v-12l-16 -29v-291c9 -18 37 -25 81 -29z" />
    <glyph glyph-name="two.denominator" horiz-adv-x="368" 
d="M141 37h221l-24 -66h-294l-6 19c174 117 199 172 199 233c0 46 -31 70 -79 70c-50 0 -78 -40 -95 -69l-14 8c14 57 53 120 143 120c73 0 125 -46 125 -110c0 -74 -39 -124 -176 -205z" />
    <glyph glyph-name="three.denominator" horiz-adv-x="356" 
d="M321 85c0 -55 -34 -91 -92 -115c-44 -18 -84 -25 -121 -25c-29 0 -59 17 -59 39c0 14 8 35 32 36c19 -11 48 -38 84 -38c47 0 80 30 80 72c0 53 -28 81 -91 81c-18 0 -47 -6 -61 -8l-8 27c34 7 65 18 73 22c45 23 59 36 59 75c0 29 -20 51 -66 51c-38 0 -62 -30 -74 -50
l-19 6c7 33 45 94 130 94c68 0 110 -34 110 -77c0 -44 -24 -65 -79 -92c55 -8 102 -42 102 -98z" />
    <glyph glyph-name="four.denominator" horiz-adv-x="378" 
d="M281 129h96l-21 -47h-75v-136h-72v136h-191l-5 18l238 253l32 -4c-1 -33 -2 -54 -2 -69v-151zM89 129h120v132z" />
    <glyph glyph-name="five.denominator" horiz-adv-x="322" 
d="M128 344h194l-33 -66h-158l-20 -36c17 -7 33 -14 48 -21c18 -7 35 -16 53 -28c37 -23 73 -54 73 -102c0 -101 -127 -146 -199 -146c-23 0 -45 13 -45 32c0 15 12 33 28 37c21 -10 42 -27 60 -27c47 0 82 20 82 74c0 56 -63 89 -168 129z" />
    <glyph glyph-name="six.denominator" horiz-adv-x="406" 
d="M379 98c0 -81 -84 -135 -178 -135c-92 0 -147 61 -147 140c0 130 127 222 239 271l20 -23c-61 -43 -122 -92 -158 -158c25 13 52 26 92 26c73 0 132 -53 132 -121zM299 81c0 54 -35 97 -94 97c-16 0 -29 -4 -40 -8c-10 -4 -18 -8 -23 -11c-5 -17 -7 -35 -7 -54
c0 -56 35 -108 92 -108c44 0 72 31 72 84z" />
    <glyph glyph-name="seven.denominator" horiz-adv-x="345" 
d="M356 344l5 -18c-46 -59 -92 -126 -130 -185c-41 -64 -76 -119 -125 -195l-47 16l216 315h-245l31 67h295z" />
    <glyph glyph-name="eight.denominator" horiz-adv-x="401" 
d="M365 73c0 -64 -72 -110 -158 -110c-84 0 -152 39 -152 96c0 50 37 77 105 106c-51 28 -90 54 -90 101c0 57 61 103 147 103c82 0 138 -39 138 -88c0 -45 -33 -74 -88 -99c59 -32 98 -61 98 -109zM280 275c0 36 -26 62 -68 62c-40 0 -68 -19 -68 -45c0 -35 23 -55 70 -81
l30 -16c21 21 36 50 36 80zM292 50c0 33 -18 52 -61 76l-46 26c-35 -23 -50 -54 -50 -81c0 -51 33 -76 78 -76c42 0 79 25 79 55z" />
    <glyph glyph-name="nine.denominator" horiz-adv-x="406" 
d="M374 207c0 -102 -79 -197 -227 -265l-20 21c89 58 163 137 163 239c0 62 -36 117 -95 117c-40 0 -70 -29 -70 -78c0 -60 32 -106 97 -106c2 0 17 1 22 3l-1 -23c-24 -11 -43 -20 -68 -20c-72 0 -127 49 -127 124c0 80 89 133 175 133c92 0 151 -61 151 -145z" />
    <glyph glyph-name="fraction" unicode="&#x2044;" horiz-adv-x="66" 
d="M226 633h52l-419 -654h-50z" />
    <glyph glyph-name="space.frac" horiz-adv-x="40" 
 />
    <glyph glyph-name="onequarter" unicode="&#xbc;" horiz-adv-x="742" 
d="M645 129h96l-21 -47h-75v-136h-72v136h-191l-5 18l238 253l32 -4c-1 -33 -2 -54 -2 -69v-151zM554 633h52l-419 -654h-50zM294 288v-19h-242v19c41 3 77 17 86 32v226c0 36 -17 40 -82 40v18l159 45h14v-12l-16 -29v-291c9 -18 37 -25 81 -29zM453 129h120v132z" />
    <glyph glyph-name="onehalf" unicode="&#xbd;" horiz-adv-x="762" 
d="M535 37h221l-24 -66h-294l-6 19c174 117 199 172 199 233c0 46 -31 70 -79 70c-50 0 -78 -40 -95 -69l-14 8c14 57 53 120 143 120c73 0 125 -46 125 -110c0 -74 -39 -124 -176 -205zM554 633h52l-419 -654h-50zM294 288v-19h-242v19c41 3 77 17 86 32v226
c0 36 -17 40 -82 40v18l159 45h14v-12l-16 -29v-291c9 -18 37 -25 81 -29z" />
    <glyph glyph-name="threequarters" unicode="&#xbe;" horiz-adv-x="770" 
d="M673 129h96l-21 -47h-75v-136h-72v136h-191l-5 18l238 253l32 -4c-1 -33 -2 -54 -2 -69v-151zM582 633h52l-419 -654h-50zM321 382c0 -55 -34 -91 -92 -115c-44 -18 -84 -25 -121 -25c-29 0 -59 17 -59 39c0 14 8 35 32 36c19 -11 48 -38 84 -38c47 0 80 30 80 72
c0 53 -28 81 -91 81c-18 0 -47 -6 -61 -8l-8 27c34 7 65 18 73 22c45 23 59 36 59 75c0 29 -20 51 -66 51c-38 0 -62 -30 -74 -50l-19 6c7 33 45 94 130 94c68 0 110 -34 110 -77c0 -44 -24 -65 -79 -92c55 -8 102 -42 102 -98zM481 129h120v132z" />
    <glyph glyph-name="onethird" unicode="&#x2153;" horiz-adv-x="751" 
d="M715 85c0 -55 -34 -91 -92 -115c-44 -18 -84 -25 -121 -25c-29 0 -59 17 -59 39c0 14 8 35 32 36c19 -11 48 -38 84 -38c47 0 80 30 80 72c0 53 -28 81 -91 81c-18 0 -47 -6 -61 -8l-8 27c34 7 65 18 73 22c45 23 59 36 59 75c0 29 -20 51 -66 51c-38 0 -62 -30 -74 -50
l-19 6c7 33 45 94 130 94c68 0 110 -34 110 -77c0 -44 -24 -65 -79 -92c55 -8 102 -42 102 -98zM554 633h52l-419 -654h-50zM294 288v-19h-242v19c41 3 77 17 86 32v226c0 36 -17 40 -82 40v18l159 45h14v-12l-16 -29v-291c9 -18 37 -25 81 -29z" />
    <glyph glyph-name="twothirds" unicode="&#x2154;" horiz-adv-x="790" 
d="M754 85c0 -55 -34 -91 -92 -115c-44 -18 -84 -25 -121 -25c-29 0 -59 17 -59 39c0 14 8 35 32 36c19 -11 48 -38 84 -38c47 0 80 30 80 72c0 53 -28 81 -91 81c-18 0 -47 -6 -61 -8l-8 27c34 7 65 18 73 22c45 23 59 36 59 75c0 29 -20 51 -66 51c-38 0 -62 -30 -74 -50
l-19 6c7 33 45 94 130 94c68 0 110 -34 110 -77c0 -44 -24 -65 -79 -92c55 -8 102 -42 102 -98zM593 633h52l-419 -654h-50zM141 334h221l-24 -66h-294l-6 19c174 117 199 172 199 233c0 46 -31 70 -79 70c-50 0 -78 -40 -95 -69l-14 8c14 57 53 120 143 120
c73 0 125 -46 125 -110c0 -74 -39 -124 -176 -205z" />
    <glyph glyph-name="oneeighth" unicode="&#x215b;" horiz-adv-x="795" 
d="M759 73c0 -64 -72 -110 -158 -110c-84 0 -152 39 -152 96c0 50 37 77 105 106c-51 28 -90 54 -90 101c0 57 61 103 147 103c82 0 138 -39 138 -88c0 -45 -33 -74 -88 -99c59 -32 98 -61 98 -109zM554 633h52l-419 -654h-50zM294 288v-19h-242v19c41 3 77 17 86 32v226
c0 36 -17 40 -82 40v18l159 45h14v-12l-16 -29v-291c9 -18 37 -25 81 -29zM674 275c0 36 -26 62 -68 62c-40 0 -68 -19 -68 -45c0 -35 23 -55 70 -81l30 -16c21 21 36 50 36 80zM686 50c0 33 -18 52 -61 76l-46 26c-35 -23 -50 -54 -50 -81c0 -51 33 -76 78 -76
c42 0 79 25 79 55z" />
    <glyph glyph-name="threeeighths" unicode="&#x215c;" horiz-adv-x="824" 
d="M787 73c0 -64 -72 -110 -158 -110c-84 0 -152 39 -152 96c0 50 37 77 105 106c-51 28 -90 54 -90 101c0 57 61 103 147 103c82 0 138 -39 138 -88c0 -45 -33 -74 -88 -99c59 -32 98 -61 98 -109zM582 633h52l-419 -654h-50zM321 382c0 -55 -34 -91 -92 -115
c-44 -18 -84 -25 -121 -25c-29 0 -59 17 -59 39c0 14 8 35 32 36c19 -11 48 -38 84 -38c47 0 80 30 80 72c0 53 -28 81 -91 81c-18 0 -47 -6 -61 -8l-8 27c34 7 65 18 73 22c45 23 59 36 59 75c0 29 -20 51 -66 51c-38 0 -62 -30 -74 -50l-19 6c7 33 45 94 130 94
c68 0 110 -34 110 -77c0 -44 -24 -65 -79 -92c55 -8 102 -42 102 -98zM702 275c0 36 -26 62 -68 62c-40 0 -68 -19 -68 -45c0 -35 23 -55 70 -81l30 -16c21 21 36 50 36 80zM714 50c0 33 -18 52 -61 76l-46 26c-35 -23 -50 -54 -50 -81c0 -51 33 -76 78 -76
c42 0 79 25 79 55z" />
    <glyph glyph-name="fiveeighths" unicode="&#x215d;" horiz-adv-x="789" 
d="M753 73c0 -64 -72 -110 -158 -110c-84 0 -152 39 -152 96c0 50 37 77 105 106c-51 28 -90 54 -90 101c0 57 61 103 147 103c82 0 138 -39 138 -88c0 -45 -33 -74 -88 -99c59 -32 98 -61 98 -109zM548 633h52l-419 -654h-50zM128 641h194l-33 -66h-158l-20 -36
c17 -7 33 -14 48 -21c18 -7 35 -16 53 -28c37 -23 73 -54 73 -102c0 -101 -127 -146 -199 -146c-23 0 -45 13 -45 32c0 15 12 33 28 37c21 -10 42 -27 60 -27c47 0 82 20 82 74c0 56 -63 89 -168 129zM668 275c0 36 -26 62 -68 62c-40 0 -68 -19 -68 -45
c0 -35 23 -55 70 -81l30 -16c21 21 36 50 36 80zM680 50c0 33 -18 52 -61 76l-46 26c-35 -23 -50 -54 -50 -81c0 -51 33 -76 78 -76c42 0 79 25 79 55z" />
    <glyph glyph-name="seveneighths" unicode="&#x215e;" horiz-adv-x="782" 
d="M746 73c0 -64 -72 -110 -158 -110c-84 0 -152 39 -152 96c0 50 37 77 105 106c-51 28 -90 54 -90 101c0 57 61 103 147 103c82 0 138 -39 138 -88c0 -45 -33 -74 -88 -99c59 -32 98 -61 98 -109zM536 633h52l-419 -654h-50zM366 641l5 -18c-46 -59 -92 -126 -130 -185
c-41 -64 -76 -119 -125 -195l-47 16l216 315h-245l31 67h295zM661 275c0 36 -26 62 -68 62c-40 0 -68 -19 -68 -45c0 -35 23 -55 70 -81l30 -16c21 21 36 50 36 80zM673 50c0 33 -18 52 -61 76l-46 26c-35 -23 -50 -54 -50 -81c0 -51 33 -76 78 -76c42 0 79 25 79 55z" />
    <glyph glyph-name="alpha" unicode="&#x3b1;" horiz-adv-x="564" 
d="M541 118c0 -47 -37 -123 -99 -123c-35 0 -71 32 -87 105c-45 -67 -112 -107 -173 -107c-81 0 -144 67 -144 181c0 116 104 253 211 253c53 0 98 -33 117 -106l32 94h80c-37 -113 -64 -187 -87 -286c1 -32 18 -59 58 -59c28 0 57 20 68 47c5 14 13 16 17 16
c6 0 7 -8 7 -15zM347 290c0 49 -36 100 -81 100c-78 0 -144 -143 -144 -254c0 -51 9 -112 71 -112c95 0 154 167 154 266z" />
    <glyph glyph-name="beta" unicode="&#x3b2;" horiz-adv-x="545" 
d="M521 510c0 -72 -48 -135 -139 -168c68 -35 118 -99 118 -167c0 -108 -82 -186 -201 -186c-76 0 -137 52 -175 122c-10 -82 -16 -172 -25 -277c-2 -25 -12 -38 -43 -38c-26 0 -34 14 -34 37c0 16 8 83 13 118c13 89 60 383 84 493c43 198 148 234 230 234
c95 0 172 -67 172 -168zM439 517c0 61 -22 131 -104 131c-72 0 -121 -85 -148 -211c-20 -93 -40 -207 -40 -244c0 -82 49 -154 140 -154c88 0 127 76 127 164c0 81 -58 128 -106 128c-5 0 -34 -12 -47 -12c-18 0 -46 6 -46 32c0 17 15 33 45 33c32 0 45 -21 86 -21
c64 0 93 94 93 154z" />
    <glyph glyph-name="gamma" unicode="&#x3b3;" horiz-adv-x="583" 
d="M576 394c0 -7 -12 -29 -33 -63c-21 -32 -48 -73 -76 -115c-58 -88 -134 -218 -139 -236c-10 -35 -56 -159 -68 -188c-5 -13 -10 -27 -18 -38c-7 -10 -18 -17 -36 -17c-22 0 -42 18 -42 41c0 50 71 150 128 227c2 26 3 49 3 61c0 146 -64 285 -151 285
c-78 0 -84 -80 -84 -111c0 -4 -10 -6 -15 -6c-15 0 -19 22 -19 43c0 83 60 150 138 150c90 0 179 -86 180 -333c63 108 147 261 174 307c12 21 21 26 35 26c16 0 23 -11 23 -33z" />
    <glyph glyph-name="delta" unicode="&#x3b4;" horiz-adv-x="471" 
d="M441 540c0 -7 -6 -15 -14 -15c-12 0 -17 5 -26 17c-7 10 -80 105 -178 105c-33 0 -60 -13 -60 -48c0 -44 49 -74 108 -120c89 -69 163 -133 163 -263c0 -121 -102 -225 -224 -225c-91 0 -173 74 -173 183c0 118 100 222 244 222c-96 62 -170 120 -170 197
c0 67 53 118 120 118c146 0 198 -112 208 -155c1 -5 2 -11 2 -16zM353 231c0 63 -31 133 -71 133c-79 0 -153 -84 -153 -212c0 -82 29 -132 88 -132c77 0 136 99 136 211z" />
    <glyph glyph-name="epsilon" unicode="&#x3b5;" horiz-adv-x="424" 
d="M407 376c0 -19 -11 -38 -35 -38c-5 0 -10 2 -16 6c-7 5 -13 11 -21 17c-16 13 -37 26 -69 26c-84 0 -123 -58 -138 -149h215l-8 -41l-213 4c0 -12 -1 -19 -1 -25c0 -79 50 -142 135 -142c25 0 43 5 57 10c7 2 12 4 17 6s8 3 10 3c10 0 14 -9 14 -17c0 -11 -3 -15 -14 -21
c-8 -6 -47 -22 -91 -22c-106 0 -211 51 -211 187c0 178 172 246 245 246c75 0 124 -16 124 -50z" />
    <glyph glyph-name="zeta" unicode="&#x3b6;" horiz-adv-x="355" 
d="M454 628c0 -47 -114 -95 -179 -104c-53 -57 -151 -212 -151 -357c0 -71 42 -87 88 -98c22 -5 47 -8 70 -14c48 -12 76 -43 76 -83c0 -89 -99 -155 -171 -152c-22 1 -37 11 -37 30c0 15 9 29 33 32c32 4 58 3 76 7c31 7 60 18 60 55c0 22 -23 38 -51 44
c-26 6 -60 10 -101 19c-65 14 -126 59 -126 139c0 156 110 288 195 380c-59 14 -101 37 -101 91c0 45 41 67 79 67c14 0 24 -5 23 -12c0 -10 -7 -13 -16 -18c-8 -4 -24 -23 -24 -40c0 -18 10 -51 60 -66c66 57 132 108 166 108c19 0 31 -13 31 -28z" />
    <glyph glyph-name="eta" unicode="&#x3b7;" horiz-adv-x="584" 
d="M521 311c1 -32 -10 -93 -20 -156c-21 -119 -54 -262 -73 -373c-5 -31 -15 -34 -50 -34c-27 0 -34 4 -34 32c0 18 12 72 25 124c8 30 33 136 55 241c7 33 15 66 20 95s9 55 9 73c-1 57 -23 78 -68 78c-51 0 -100 -72 -119 -136c-18 -58 -39 -151 -58 -255h-90
c25 104 57 233 68 299c-1 30 -18 72 -59 72c-32 0 -65 -26 -69 -76c-1 -19 -12 -21 -17 -21s-12 8 -12 30c0 49 26 126 101 126c59 0 90 -50 98 -121c59 84 114 119 180 119c64 0 113 -40 113 -117z" />
    <glyph glyph-name="theta" unicode="&#x3b8;" horiz-adv-x="444" 
d="M444 480c0 -296 -168 -489 -271 -489c-98 0 -125 113 -125 207c0 231 142 495 265 495c110 0 131 -111 131 -213zM365 536c0 79 -13 128 -51 128c-54 0 -116 -121 -155 -291h191c7 43 15 104 15 163zM344 338h-193c-12 -62 -23 -123 -23 -188c0 -49 3 -129 52 -129
c59 0 129 135 164 317z" />
    <glyph glyph-name="iota" unicode="&#x3b9;" horiz-adv-x="306" 
d="M275 131c0 -49 -45 -136 -127 -136c-64 0 -100 36 -100 110c0 12 5 47 18 98c18 73 33 133 52 212h86c-24 -81 -42 -153 -56 -208c-14 -57 -20 -86 -20 -103c0 -30 14 -48 41 -48c39 0 69 48 78 78c2 10 10 19 19 19s9 -10 9 -22z" />
    <glyph glyph-name="kappa" unicode="&#x3ba;" horiz-adv-x="505" 
d="M481 378c0 -44 -33 -55 -59 -55c-10 0 -38 -6 -47 -10c-12 -5 -22 -9 -33 -16c-13 -9 -29 -23 -55 -53c33 -75 82 -157 96 -182c14 -26 28 -33 55 -35c16 -2 27 -4 27 -18s-19 -18 -62 -18c-45 0 -87 9 -97 36c-15 36 -45 101 -87 174l-67 -31c-14 -66 -24 -129 -32 -170
h-85c24 94 76 338 93 415h88c-11 -41 -32 -120 -50 -200c66 22 101 47 145 101c16 20 30 40 42 56c21 28 42 50 80 50c30 0 48 -23 48 -44z" />
    <glyph glyph-name="lambda" unicode="&#x3bb;" horiz-adv-x="473" 
d="M494 53c0 -36 -46 -62 -85 -62c-34 0 -82 18 -110 121c-21 78 -37 175 -55 260l-169 -372h-82l236 411c-13 54 -30 101 -47 142c-13 32 -48 101 -95 125c-3 2 -7 4 -10 6c-2 2 -4 5 -4 10c0 7 5 13 30 13c39 0 111 -37 158 -151c16 -42 47 -149 63 -217
c22 -92 40 -175 54 -220c14 -50 34 -81 60 -81c21 0 29 9 35 18c1 3 3 7 5 10c1 1 2 2 4 2c11 0 12 -5 12 -15z" />
    <glyph glyph-name="uni03BC" unicode="&#x3bc;" horiz-adv-x="597" 
d="M581 107c0 -30 -35 -115 -106 -115c-41 0 -77 23 -91 110c-50 -86 -98 -112 -149 -112c-45 0 -87 32 -118 109c-16 -97 -32 -197 -48 -318c-3 -26 -13 -37 -45 -37c-26 0 -32 10 -32 35c0 17 18 107 32 158c27 105 76 333 98 479h88c-21 -90 -60 -266 -60 -289
c0 -53 43 -77 83 -77c61 0 97 59 112 103c30 86 47 185 62 263h87c-30 -113 -52 -195 -73 -291c0 -35 9 -66 53 -66c45 0 66 25 79 49c9 16 12 16 17 16c8 0 11 -3 11 -17z" />
    <glyph glyph-name="nu" unicode="&#x3bd;" horiz-adv-x="487" 
d="M474 371c3 -54 -28 -120 -90 -198c-77 -96 -223 -185 -257 -185c-8 0 -16 3 -16 13c-1 9 1 29 4 51c2 22 5 45 6 58c5 53 9 132 18 271h-115l11 34h99c37 0 66 1 92 3l-33 -365c141 85 204 203 200 252c-1 12 -4 21 -8 32c-4 10 -6 21 -7 36c-2 29 12 55 44 55
c33 0 50 -29 52 -57z" />
    <glyph glyph-name="xi" unicode="&#x3be;" horiz-adv-x="418" 
d="M454 611c0 -12 -13 -38 -42 -38c-21 0 -45 3 -81 3c-40 0 -130 -51 -130 -165c0 -56 21 -72 50 -77c56 16 89 31 118 31c23 0 45 -11 45 -34c0 -29 -36 -40 -82 -40c-18 0 -57 8 -77 8c-25 0 -134 -42 -134 -146c0 -85 45 -94 76 -101c22 -5 46 -7 73 -12
c42 -8 78 -40 78 -85c0 -90 -98 -153 -172 -153c-21 0 -38 10 -38 30c0 15 7 27 31 32c23 5 60 5 78 9c33 7 63 25 63 58c0 17 -20 34 -52 40c-31 5 -74 11 -114 20c-41 9 -111 48 -111 137c0 93 69 141 182 188c-55 24 -103 55 -103 119c0 65 66 126 159 150
c-38 18 -62 36 -62 65c0 39 31 61 68 61c8 0 27 -2 36 -17v-14c-28 -1 -53 -16 -53 -35c0 -20 18 -43 40 -44c30 11 75 40 117 40c18 0 37 -12 37 -30z" />
    <glyph glyph-name="omicron" unicode="&#x3bf;" horiz-adv-x="493" 
d="M456 230c-4 -130 -110 -241 -241 -241c-110 0 -180 89 -177 193c5 128 96 246 244 246c97 0 178 -86 174 -198zM368 266c3 84 -25 132 -96 132c-93 0 -142 -134 -146 -251c-3 -76 25 -127 98 -127c95 0 141 138 144 246z" />
    <glyph glyph-name="pi" unicode="&#x3c0;" horiz-adv-x="611" 
d="M449 415h174l-13 -48c-6 -21 -15 -26 -28 -26h-115c-6 -53 -14 -102 -16 -152c-3 -48 -4 -80 -7 -114c-5 -68 -27 -84 -54 -84c-28 0 -44 18 -44 47c0 31 13 71 38 130c24 58 36 110 55 173l-167 -1c-14 -50 -26 -83 -33 -125c-8 -49 -15 -105 -20 -140
c-8 -55 -31 -84 -59 -84s-40 17 -40 46c0 31 17 71 50 134c31 62 46 91 72 169h-64c-70 0 -99 -48 -127 -94c-2 -3 -7 -5 -14 -5c-5 0 -9 2 -9 11c0 16 56 164 167 164c64 0 169 -1 254 -1z" />
    <glyph glyph-name="rho" unicode="&#x3c1;" horiz-adv-x="510" 
d="M470 228c0 -122 -89 -238 -217 -238c-47 0 -87 11 -137 57c-15 -109 -21 -143 -31 -266c-2 -25 -10 -33 -44 -33c-26 0 -31 8 -31 31c0 19 11 115 16 153c11 74 23 173 33 235c20 133 88 261 237 261c90 0 174 -85 174 -200zM381 274c0 79 -26 122 -90 122
c-91 0 -151 -152 -151 -259c0 -74 38 -117 101 -117c96 0 140 152 140 254z" />
    <glyph glyph-name="sigma1" unicode="&#x3c2;" horiz-adv-x="429" 
d="M411 327c0 -27 -19 -42 -42 -42c-13 0 -27 6 -40 26c-11 19 -25 36 -41 51c-18 16 -42 29 -73 29c-56 0 -98 -38 -98 -88c0 -40 17 -74 56 -104c39 -29 66 -45 101 -69c41 -28 67 -68 67 -105c0 -67 -68 -118 -141 -118c-68 0 -90 23 -90 38c0 13 5 21 23 21
c11 0 20 -6 29 -11c11 -6 25 -16 42 -16c37 0 69 23 69 61c0 34 -28 56 -74 86c-13 8 -27 17 -42 27c-14 9 -29 20 -43 33c-27 25 -57 56 -57 111c0 101 82 171 206 171c99 0 148 -65 148 -101z" />
    <glyph glyph-name="sigma" unicode="&#x3c3;" horiz-adv-x="607" 
d="M380 413h250l-8 -27c-8 -28 -20 -41 -48 -40l-164 7c31 -40 51 -90 51 -124c0 -124 -108 -240 -236 -240c-107 0 -187 83 -187 186c0 121 99 242 245 242c27 0 83 -4 97 -4zM371 249c0 45 -3 69 -5 106c-24 3 -50 4 -73 4c-120 0 -168 -107 -168 -215
c0 -73 40 -125 107 -125c97 0 139 132 139 230z" />
    <glyph glyph-name="tau" unicode="&#x3c4;" horiz-adv-x="444" 
d="M168 415h302l-15 -54c-5 -18 -13 -24 -27 -24h-143c-12 -50 -17 -80 -22 -123c-5 -49 -10 -110 -12 -144c-3 -54 -35 -81 -69 -81c-24 0 -40 16 -40 46s17 75 48 139c29 61 38 85 64 163h-98c-43 0 -72 -22 -90 -59c-3 -8 -6 -15 -7 -19c-1 -3 -10 -7 -16 -7
c-5 0 -10 6 -10 14c0 15 40 149 135 149z" />
    <glyph glyph-name="upsilon" unicode="&#x3c5;" horiz-adv-x="508" 
d="M473 354c0 -137 -99 -364 -275 -364c-46 0 -110 37 -110 111c0 34 11 72 21 110c5 19 11 38 14 55c4 18 7 35 7 50c0 40 -28 52 -45 52c-19 0 -32 -15 -39 -25l-5 -7c-3 -4 -7 -10 -12 -10c-11 0 -14 6 -14 15c0 2 5 14 8 18c23 40 57 62 114 62c40 0 79 -38 79 -77
c0 -42 -11 -85 -21 -129s-21 -88 -21 -133c0 -32 19 -49 55 -49c88 0 167 98 167 224c0 26 -6 46 -11 64c-4 18 -9 33 -9 51c0 32 15 55 41 55c31 0 56 -21 56 -73z" />
    <glyph glyph-name="phi" unicode="&#x3c6;" horiz-adv-x="664" 
d="M624 230c0 -155 -105 -237 -299 -244l-39 -227c-2 -13 -21 -16 -29 -16c-7 0 -17 5 -16 11l35 231c-150 10 -235 97 -235 198c0 125 80 234 297 245l30 226c7 51 26 57 49 57c25 0 37 -16 37 -48c0 -8 -11 -51 -25 -117l-25 -120c125 -16 220 -94 220 -196zM536 242
c0 64 -33 137 -137 157l-70 -388c139 16 207 122 207 231zM278 12l56 390c-148 -15 -205 -130 -205 -232c0 -82 56 -143 149 -158z" />
    <glyph glyph-name="chi" unicode="&#x3c7;" horiz-adv-x="539" 
d="M538 401c0 -12 -11 -28 -35 -56c-45 -53 -117 -137 -208 -238c27 -103 47 -180 63 -223c22 -58 37 -80 72 -80c29 0 39 16 48 29c5 6 8 12 12 17c3 4 9 4 10 4c11 0 12 -5 12 -16c0 -12 -4 -18 -9 -26c-18 -27 -48 -60 -96 -60c-36 0 -93 6 -132 127
c-12 35 -28 98 -48 176c-76 -104 -158 -227 -191 -267c-21 -26 -32 -27 -47 -27c-12 0 -21 11 -21 21c0 15 9 30 35 60c47 52 124 144 215 245c-25 89 -38 141 -57 202c-16 51 -43 82 -68 82c-23 0 -30 -14 -38 -26c-3 -4 -6 -10 -9 -14c-3 -3 -9 -3 -12 -3
c-11 0 -11 4 -11 13c0 4 4 29 8 33c18 30 43 49 83 49c41 0 97 -14 132 -131c13 -44 26 -92 39 -151c76 101 154 216 186 256c20 25 30 26 47 26c12 0 20 -9 20 -22z" />
    <glyph glyph-name="psi" unicode="&#x3c8;" horiz-adv-x="674" 
d="M649 372c0 -20 -10 -25 -23 -29c-17 -5 -34 -5 -43 -23c3 -18 7 -28 10 -42c2 -13 4 -30 4 -62c0 -152 -136 -213 -275 -221l-39 -232c-3 -14 -22 -17 -30 -17c-5 0 -17 6 -16 13l37 235c-134 13 -203 106 -203 179c0 40 8 71 17 94c9 24 19 39 24 48
c-4 10 -11 14 -17 17s-13 5 -19 8c-12 6 -23 15 -23 39c0 26 24 40 48 40c44 0 77 -33 77 -89c0 -59 -20 -99 -20 -164c0 -77 20 -133 121 -142l84 630c6 51 23 52 47 52s38 -16 38 -47c0 -4 -3 -21 -8 -46c-5 -24 -12 -53 -17 -79l-95 -509c89 9 128 38 152 79
c12 20 18 41 22 62c5 20 6 39 8 54c3 35 8 81 14 114c8 49 31 83 72 83c38 0 53 -22 53 -45z" />
    <glyph glyph-name="omega" unicode="&#x3c9;" horiz-adv-x="660" 
d="M621 236c0 -132 -76 -246 -191 -246c-60 0 -96 36 -115 94c-31 -66 -85 -93 -128 -93c-79 0 -147 68 -147 159c0 94 54 216 195 267c10 4 20 5 31 5c9 0 13 -6 13 -12c0 -17 -28 -26 -54 -46c-29 -22 -100 -102 -100 -208c0 -72 24 -125 82 -125c72 0 89 77 89 139
c0 15 1 38 1 69c0 22 16 76 61 76c34 0 40 -31 40 -65c0 -38 -37 -97 -44 -109c-7 -11 -9 -23 -9 -35c0 -46 31 -79 67 -79c88 0 128 128 128 220c0 62 -15 98 -29 122c-4 6 -23 31 -23 36c0 10 5 19 9 19c17 0 24 -7 35 -16c44 -36 89 -102 89 -172z" />
    <glyph glyph-name="uni03DD" unicode="&#x3dd;" horiz-adv-x="451" 
d="M442 385c0 -23 -20 -41 -56 -41c-8 0 -17 2 -26 4c-10 2 -20 5 -30 9c-21 6 -51 14 -76 14c-82 0 -102 -136 -119 -256h244l-9 -46l-241 3c-16 -102 -29 -186 -40 -278c-2 -25 -14 -34 -48 -34c-26 0 -29 7 -29 32c0 18 13 102 20 141c12 74 25 173 36 235
c21 123 76 256 293 256c72 0 81 -17 81 -39z" />
    <glyph glyph-name="arrowleft" unicode="&#x2190;" horiz-adv-x="900" 
d="M768 266v-53h-537l199 -119v-65l-297 186v48l297 186v-65l-198 -118h536z" />
    <glyph glyph-name="arrowright" unicode="&#x2192;" horiz-adv-x="900" 
d="M767 263v-48l-297 -186v65l199 119h-537v53h536l-198 118v65z" />
    <glyph glyph-name="arrowup" unicode="&#x2191;" horiz-adv-x="600" 
d="M325 635l186 -297h-65l-119 199v-537h-53v536l-118 -198h-66l187 297h48z" />
    <glyph glyph-name="arrowdown" unicode="&#x2193;" horiz-adv-x="600" 
d="M446 297h65l-186 -297h-48l-187 297h66l118 -198v536h53v-537z" />
    <glyph glyph-name="uni261C" unicode="&#x261c;" horiz-adv-x="945" 
d="M919 122c0 -31 -7 -81 -15 -111h-1c-8 0 -19 3 -27 4c-24 4 -49 9 -73 9c-23 0 -46 15 -68 16c-8 23 -56 21 -75 22c-8 7 -16 13 -24 21c-35 -26 -60 -40 -104 -40c-20 0 -39 3 -58 6c-24 4 -48 5 -72 5c-11 0 -23 -2 -34 -2c-19 0 -58 8 -58 32c0 8 4 19 4 22
c-20 0 -46 9 -46 34c0 12 3 23 6 32c-18 4 -46 20 -46 49c0 25 28 40 38 43c-10 4 -25 3 -36 3c-18 0 -25 -1 -43 -1c-38 0 -75 -10 -113 -10c-23 0 -60 10 -60 39c0 28 27 56 55 58c34 1 68 5 102 5c33 0 57 7 90 10c-13 3 -41 13 -41 41c0 23 8 34 21 50c13 0 25 -3 36 -6
c33 -8 63 -19 97 -22c14 -1 27 -4 41 -4c29 0 58 2 87 2c53 0 99 -33 142 -60c27 -16 56 -30 74 -57c4 -7 15 -22 23 -22c12 0 27 10 39 13c15 4 39 3 55 3c20 0 42 0 61 -5c13 -50 23 -127 23 -179zM763 166c-14 26 -15 67 -17 96c-10 2 -21 1 -31 3c-8 11 -15 22 -24 32
c-26 31 -31 35 -67 52c-12 6 -22 14 -32 21c-26 19 -76 38 -108 33c-8 2 -16 2 -24 2c-17 0 -35 -1 -52 -1c-28 0 -54 8 -82 8c-9 0 -19 0 -28 -2c-11 8 -23 14 -35 21c-14 1 -17 -11 -19 -22c6 -11 53 -34 66 -34c23 -1 45 -5 67 -5c11 0 22 1 33 1c24 0 48 -4 71 -10
c0 -2 -2 -19 -5 -19c-8 0 -16 2 -24 3c-18 2 -37 3 -56 3c-18 0 -36 -1 -54 -3c-7 -2 -17 -3 -24 -3c-10 0 -20 1 -30 1c-23 0 -46 -3 -69 -3c-20 0 -40 -8 -57 -8h-24c-18 0 -37 -2 -55 -2c-25 0 -30 -9 -38 -29c5 -11 9 -22 23 -22c31 0 61 6 90 12c16 -2 30 -1 45 -1
c17 0 35 1 53 1s35 4 52 4c13 0 42 -7 61 -7c16 0 42 9 56 17l5 -30c-21 -3 -42 -8 -64 -8c-13 0 -25 1 -38 1c-21 0 -30 -6 -45 -19c-9 -7 -15 -8 -21 -19c2 -12 5 -31 21 -31c8 0 48 14 55 19h4c30 0 59 10 89 11c-4 -10 -10 -20 -15 -30c-14 -2 -27 -1 -40 -1
c-25 0 -77 -9 -77 -42c0 -11 7 -20 15 -27c17 4 63 13 76 21c17 1 35 2 52 6c-4 -10 -7 -21 -13 -30c-14 0 -28 2 -42 2c-5 0 -32 -11 -42 -13c-1 -4 -1 -8 -1 -12c0 -10 3 -25 17 -25c16 0 32 4 48 4c22 0 44 -8 66 -8c20 -1 40 -2 60 -2c36 0 63 16 87 41
c15 16 31 31 44 49c6 -6 12 -11 19 -18c-14 -8 -29 -16 -29 -34c0 -10 15 -25 25 -26c16 -2 43 -3 57 -11c15 28 14 63 25 93z" />
    <glyph glyph-name="uni261E" unicode="&#x261e;" horiz-adv-x="945" 
d="M932 295c0 -29 -37 -39 -61 -39c-37 0 -74 10 -112 10c-18 0 -26 1 -44 1c-11 0 -26 1 -36 -3c11 -3 38 -18 38 -43c0 -29 -27 -45 -45 -49c3 -9 6 -20 6 -32c0 -25 -27 -34 -46 -34c0 -3 4 -14 4 -22c0 -24 -40 -32 -58 -32c-12 0 -23 2 -34 2c-24 0 -49 -1 -72 -5
c-20 -3 -39 -6 -58 -6c-45 0 -70 14 -105 40c-7 -8 -16 -14 -23 -21c-20 -1 -67 1 -75 -22c-23 -1 -45 -16 -68 -16c-24 0 -50 -5 -73 -9c-9 -1 -19 -4 -28 -4v0c-9 30 -16 80 -16 111c0 52 11 129 24 179c19 5 41 5 60 5c17 0 41 1 56 -3c12 -3 27 -13 38 -13
c9 0 20 15 24 22c17 27 46 41 73 57c44 27 89 60 142 60c29 0 59 -2 88 -2c14 0 26 3 40 4c35 3 64 14 97 22c12 3 24 6 36 6c14 -16 22 -27 22 -50c0 -28 -28 -38 -41 -41c33 -3 57 -10 90 -10c34 0 67 -4 101 -5c29 -2 56 -30 56 -58zM901 301c-9 20 -14 29 -38 29
c-19 0 -37 2 -56 2h-23c-18 0 -38 8 -57 8c-24 0 -47 3 -70 3c-10 0 -20 -1 -30 -1c-7 0 -16 1 -24 3c-18 2 -36 3 -54 3c-19 0 -37 -1 -56 -3c-8 -1 -15 -3 -23 -3c-4 0 -5 17 -5 19c22 6 47 10 70 10c11 0 22 -1 34 -1c22 0 44 4 66 5c13 0 60 23 67 34
c-3 11 -5 23 -20 22c-11 -7 -23 -13 -34 -21c-10 2 -19 2 -29 2c-27 0 -54 -8 -81 -8c-18 0 -35 1 -53 1c-8 0 -16 0 -24 -2c-31 5 -82 -14 -107 -33c-11 -7 -21 -15 -32 -21c-36 -17 -42 -21 -68 -52c-8 -10 -15 -21 -24 -32c-10 -2 -20 -1 -31 -3c-1 -29 -3 -70 -16 -96
c11 -30 9 -65 25 -93c14 8 40 9 57 11c10 1 25 16 25 26c0 18 -16 26 -29 34c6 7 13 12 19 18c12 -18 28 -33 43 -49c25 -25 51 -41 87 -41c20 0 41 1 61 2c22 0 43 8 65 8c16 0 32 -4 49 -4c13 0 17 15 17 25c0 4 0 8 -1 12c-10 2 -37 13 -43 13c-14 0 -28 -2 -42 -2
c-5 9 -8 20 -12 30c17 -4 34 -5 52 -6c13 -8 58 -17 76 -21c8 7 15 16 15 27c0 33 -52 42 -77 42c-13 0 -27 -1 -40 1c-5 10 -11 20 -15 30c29 -1 58 -11 88 -11h5c6 -5 46 -19 54 -19c16 0 19 19 21 31c-6 11 -12 12 -20 19c-16 13 -25 19 -46 19c-12 0 -25 -1 -38 -1
c-21 0 -43 5 -64 8l6 30c13 -8 40 -17 56 -17c19 0 48 7 60 7c18 0 35 -4 52 -4c18 0 36 -1 54 -1c15 0 29 -1 44 1c30 -6 60 -12 91 -12c14 0 18 11 23 22z" />
    <glyph glyph-name="shield" unicode="&#xf800;" horiz-adv-x="1257" 
d="M1095 -19v-3c-21 -5 -48 -28 -72 -33l-3 15c17 6 37 17 52 23c-15 13 -28 29 -42 45c4 16 9 44 15 62c-31 -16 -62 -37 -128 -67v17c37 15 115 55 147 80l3 -1c-5 -15 -16 -59 -20 -86c2 -9 35 -44 48 -52zM988 793v-372c0 -96 -10 -171 -53 -232
c-68 -96 -164 -131 -291 -174c-3 -1 -11 -4 -16 -6c-4 2 -13 5 -16 6c-126 43 -222 78 -291 174c-43 61 -52 136 -52 232v372h719zM1026 -106c-129 -56 -243 -84 -398 -84c-154 0 -268 28 -397 84c14 28 26 104 26 143c93 -57 235 -88 371 -88c138 0 279 31 372 88
c0 -39 12 -115 26 -143zM338 37l-1 -16c-65 28 -96 48 -126 65c6 -17 9 -45 14 -61c-15 -13 -25 -33 -41 -45c16 -4 34 -16 51 -22l-2 -15c-23 7 -51 25 -72 31v3c9 6 46 43 48 51c-4 29 -15 73 -20 88l2 1c40 -31 98 -59 147 -80zM969 775c-19 0 -37 -1 -60 -1h-561
c-24 0 -41 1 -61 1c1 -22 1 -34 1 -57v-283c0 -77 2 -169 49 -235c60 -84 155 -125 258 -158c11 -4 21 -9 33 -12c14 4 23 8 34 12c102 33 198 73 258 158c47 65 48 158 48 235v283c0 21 0 36 1 57zM1007 -98c-7 18 -22 88 -18 114c-93 -54 -240 -82 -361 -82
s-267 28 -360 82c4 -26 -10 -96 -18 -114c110 -51 234 -79 379 -78c145 0 268 27 378 78zM936 631c-6 -29 0 -101 -20 -111c-8 -3 -23 0 -32 1c0 1 -1 5 -1 8c12 -1 32 -5 36 5c1 2 1 6 1 7c-14 0 -27 1 -37 4v7c17 -3 18 5 19 21c1 20 -1 41 -3 59c0 1 0 2 1 2
c3 0 9 -12 19 -12c5 0 10 3 17 9zM931 415c-1 -18 -2 -85 -9 -95c-5 -7 -16 -10 -40 -7l2 9c28 -3 31 0 34 12l-1 2c-14 0 -26 -1 -36 3l2 6c6 -1 12 -1 14 3c3 4 4 18 4 29c0 14 -2 35 -3 43c4 -4 11 -15 16 -15c9 0 12 6 17 10zM876 254h-132c-26 0 -56 -2 -76 3
c4 -7 5 -13 5 -18c0 -19 -21 -23 -44 -23c-36 0 -47 6 -47 22c0 6 1 12 4 19c-17 -7 -48 -3 -71 -3h-135v263c0 35 4 77 -1 110c9 -1 19 0 28 -1c8 10 17 22 23 33c18 -11 39 -17 68 -17c16 0 47 3 68 3c32 0 57 -9 60 -51c7 44 32 51 66 51c18 0 38 -2 59 -2
c40 0 54 7 74 17c7 -12 15 -22 24 -33c7 1 18 1 27 1v-374zM373 527c-1 -2 -1 -7 -1 -8c-8 -1 -18 -4 -28 -2c-25 5 -20 77 -24 106c6 -3 13 -7 17 -7s13 7 18 11c0 -8 -2 -26 -2 -43s2 -33 7 -35c2 -1 8 -1 13 -1c-1 -1 0 -3 0 -6c-12 -2 -24 -3 -38 -4v-5
c11 -9 19 -8 38 -6zM979 -72c0 -13 -16 -22 -30 -22h-6l-8 16h1c6 -3 16 -8 24 -8c5 0 9 3 9 10c0 17 -40 4 -40 28c0 19 19 24 33 24l7 -15l-2 -2c-4 4 -11 9 -18 9c-6 0 -10 -3 -10 -10c0 -17 40 -2 40 -30zM936 -98l-12 -5c-5 9 -12 18 -12 18s-16 -5 -22 -7
c-1 -7 -2 -16 -2 -22l-11 -4c4 23 7 42 9 68l11 3c12 -16 27 -37 39 -51zM871 -71l-2 -2c-4 2 -14 5 -22 4c3 -14 7 -37 13 -53l-13 -4c-4 19 -7 34 -13 54c-10 -2 -13 -6 -18 -13h-2c1 7 1 13 2 16c15 2 32 6 47 11c2 -4 5 -9 8 -13zM371 354l2 -7c-11 -4 -23 -4 -37 -4
l-1 -2c3 -11 6 -14 35 -11l2 -10c-26 -2 -36 0 -40 7c-7 11 -9 76 -10 94c5 -3 9 -9 17 -9c5 0 12 11 17 15c-1 -8 -3 -29 -3 -43c0 -10 1 -25 4 -29c2 -3 8 -2 14 -1zM814 -134l-14 -3c-3 19 -7 43 -12 63l14 3c1 -17 7 -47 12 -63zM792 -138v-2c-22 -2 -30 7 -40 23
l-11 -1c1 -10 1 -11 4 -27l-14 -2c0 18 -4 43 -6 63c10 1 17 4 26 4c15 0 20 -8 20 -14c0 -10 -3 -13 -9 -18c9 -11 17 -18 30 -26zM716 -134l2 -1l-4 -13c-15 -1 -24 0 -42 -2c0 20 0 48 -2 62c10 0 26 2 37 3l5 -12l-2 -1c-8 5 -21 3 -26 4c0 -7 -1 -11 -1 -19l21 2l1 -10
c-4 1 -14 1 -21 1c0 -7 1 -15 2 -22c10 1 23 4 30 8zM647 -90l14 1c-9 -19 -18 -40 -26 -62h-10c-7 18 -16 41 -25 63l15 -1c4 -14 11 -32 16 -46c6 12 13 30 16 45zM576 -88l3 -15l-2 -1c-3 4 -12 10 -20 11c-1 -13 -5 -39 -4 -56l-15 1c4 19 6 35 6 55c-10 1 -15 0 -22 -6
l-1 1c1 3 5 12 6 15c16 -3 32 -5 49 -5zM515 -131l1 -1l-6 -11c-15 2 -24 4 -42 6c4 20 10 49 11 61c10 -2 23 -4 34 -6l2 -14h-2c-3 6 -18 10 -23 11c-2 -6 -3 -12 -4 -20l20 -1l-1 -11c-4 2 -13 4 -20 5c-1 -7 -2 -13 -3 -20c10 -1 26 -2 33 1zM438 -69l10 -2
c-8 -6 -19 -16 -27 -23c6 -19 9 -26 12 -36l-14 3c-1 6 -6 21 -8 28l-21 -20l-11 4c9 7 19 16 28 23c-5 16 -7 23 -11 33l16 -5c1 -6 4 -16 6 -23zM376 -54l10 -3c-2 -7 -4 -15 -7 -23c-5 -15 -10 -29 -27 -29c-8 0 -26 5 -26 20c0 14 10 35 13 48l13 -5
c-3 -8 -13 -37 -13 -43c0 -10 9 -12 14 -12c8 0 13 13 17 27c2 7 4 15 6 20zM317 -83l1 -1c-2 -3 -7 -8 -8 -10c-14 6 -16 8 -33 12c9 21 13 40 17 60l14 -6c-7 -17 -12 -31 -16 -51c10 -3 17 -5 25 -4zM925 615c-4 -4 -6 -6 -8 -6c-3 1 -5 3 -9 8c1 -22 1 -46 -1 -66
c4 -2 8 -3 15 -2c3 19 2 46 3 66zM859 284c-5 34 -3 76 -3 112v211c-13 5 -23 19 -29 31c3 -26 2 -58 2 -86v-160c0 -20 -4 -45 0 -65c1 -8 11 -19 16 -25c5 -7 9 -12 14 -18zM925 401c-6 -4 -8 -7 -10 -7s-4 3 -8 8c-1 -17 -1 -39 -3 -57c5 -2 11 -2 15 0c3 17 4 38 6 56z
M819 401v244h-3c-14 -8 -32 -12 -54 -12c-18 0 -38 2 -59 2c-20 0 -37 -1 -48 -8c-15 -11 -22 -26 -23 -54c-2 -34 -3 -70 -3 -106c0 -59 2 -119 2 -177c28 53 105 21 164 40c7 2 18 4 22 10c3 5 2 48 2 61zM851 272c-12 18 -25 35 -35 54c-13 -5 -25 -11 -43 -13
c-41 -4 -94 7 -120 -11c-13 -9 -21 -25 -22 -43c9 2 16 4 23 8c3 2 7 7 10 7c9 3 25 -2 39 -2c15 1 32 0 50 0s50 2 68 2c11 0 22 0 30 -2zM623 291v212c0 29 3 65 -2 90c-3 12 -9 24 -17 30c-12 10 -30 12 -49 12c-22 0 -37 -3 -68 -3c-25 0 -35 5 -50 12v-243
c0 -13 -4 -54 1 -62c6 -12 43 -17 72 -17c16 0 29 2 40 2c35 0 61 -8 73 -33zM348 547c0 4 -1 9 -1 11v54c-5 -4 -6 -8 -9 -8c-1 0 -3 3 -9 7c3 -21 2 -45 4 -65c5 0 11 0 15 1zM428 637c-7 -12 -12 -24 -29 -32v-213c0 -18 2 -40 2 -62c0 -17 -1 -33 -4 -47l2 -1
c4 1 27 40 28 45c2 21 0 47 0 68v165c0 24 -1 55 1 77zM662 257c-10 -7 -21 -10 -35 -10c-10 0 -24 4 -33 10c1 -6 1 -14 4 -18c4 -6 18 -9 31 -9c10 0 19 1 24 4c6 3 7 16 9 23zM891 -83l16 5l-14 17zM623 259c-1 21 -9 36 -25 45c-12 6 -28 8 -46 8c-16 0 -34 -1 -51 -1
c-35 0 -46 6 -63 13c-10 -21 -23 -39 -35 -57c12 6 31 5 49 5c28 0 58 -3 87 -3c15 0 29 1 42 3c2 0 8 3 9 3c3 0 7 -6 10 -8c6 -3 14 -6 23 -8zM349 353c-1 18 -1 39 -2 57c-5 -6 -6 -9 -9 -9c-2 0 -4 3 -9 8c2 -19 3 -40 5 -56c4 -2 10 -2 15 0zM758 -98c0 5 -3 10 -12 10
h-8l2 -23c11 1 18 4 18 13zM805 515c0 -6 -3 -15 -11 -21h-3c2 4 2 8 2 11c0 13 -17 20 -29 26c-1 -3 -5 -6 -5 -12c0 -3 8 -10 8 -14c0 -15 -14 -12 -25 -11v3l7 4c-1 5 -1 10 -1 14c0 5 1 10 5 13c2 2 4 3 8 5c-8 5 -17 14 -17 27c0 5 2 13 7 17h2c-2 -23 18 -32 33 -39
c11 15 -5 14 -5 26c0 5 6 11 10 15l2 -1c-1 -3 -1 -5 0 -8s5 -5 7 -6c2 -3 3 -6 3 -9c0 -8 -7 -15 -12 -19c-1 1 2 -3 4 -4c7 -4 10 -10 10 -17zM733 508v-2c-3 -7 -7 -10 -11 -13h-2c-1 6 -1 12 -1 17c0 12 1 22 2 34c-16 0 -20 5 -20 18c0 4 1 10 3 15h2c1 -2 2 -6 3 -8
c1 -3 5 -5 10 -5c7 -1 14 -1 14 -8c0 -9 -2 -12 -4 -16c-1 -3 -2 -6 -2 -9c0 -6 0 -16 3 -20c1 -1 1 -2 3 -3zM785 433c0 -3 -5 -14 -8 -21l-3 1c0 3 0 11 -1 12c-1 2 -6 5 -8 7c-4 3 -5 8 -5 12c0 6 6 13 10 18h2c-1 -4 -2 -8 -1 -10c2 -10 14 -8 14 -19zM700 507
c-3 -5 -7 -11 -12 -14h-2c0 5 1 17 1 29c0 11 -1 16 -2 18c-4 7 -15 3 -24 3c-7 0 -16 7 -16 19c0 4 0 9 3 13h2c2 -7 4 -12 9 -12h20s10 -1 11 -3c9 -16 1 -42 10 -53zM753 414c0 -27 -4 -28 -4 -45c-8 2 -17 2 -26 2c-11 0 -23 -2 -33 -2c3 23 1 39 10 55
c-8 3 -10 9 -10 15s4 12 6 17h2c0 -4 1 -11 3 -12c7 -5 28 -4 34 -4c9 0 18 -4 18 -26zM612 509v-2c-4 -8 -6 -10 -13 -13h-3c1 8 2 20 2 29c0 8 1 15 2 22c-17 0 -20 4 -20 17c0 5 1 10 2 16h2c1 -3 2 -7 3 -8c2 -3 6 -5 10 -6c7 -1 15 -2 15 -7c0 -9 -4 -13 -5 -16
c0 -3 -1 -7 -1 -9c0 -7 0 -17 2 -20c1 -2 2 -3 4 -3zM579 507c-2 -5 -6 -11 -11 -14h-2c0 5 1 17 1 29c0 11 -1 21 -5 23c-7 3 -14 0 -21 0c-1 -3 -3 -6 -3 -11c0 -12 8 -25 8 -31c0 -8 -7 -11 -30 -11c2 8 2 12 4 14s4 2 13 5c-1 7 -1 13 -1 18s0 10 2 16
c-10 3 -11 11 -11 20c0 4 1 9 2 14h2c3 -12 7 -15 13 -15c5 0 10 1 16 1c4 0 8 0 12 -2c9 -5 2 -46 11 -56zM517 540c0 -10 -5 -22 -7 -30c-4 -13 -8 -18 -18 -18c-3 0 -7 1 -13 1c-3 0 -7 -1 -9 -1h-3c3 6 4 11 6 17h15s10 0 12 2c4 3 7 12 7 16c0 15 -20 19 -32 25
c-4 -8 -12 -16 -12 -23c0 -4 2 -10 2 -15c0 -12 -7 -18 -11 -23c-3 0 -3 2 -2 2c2 3 2 6 2 10s-2 12 -2 19c0 8 9 17 12 23c-8 4 -12 11 -12 18c0 6 2 13 8 17h2c-3 -12 6 -19 12 -19c3 7 6 12 12 19h3c-1 -13 4 -18 10 -21c9 -5 18 -7 18 -19zM584 428c0 -5 -6 -12 -10 -18
h-2c0 3 0 9 -1 10c-1 2 -3 6 -6 10c-4 4 -5 9 -5 13c0 6 7 13 10 18l2 -1v-9c2 -8 12 -12 12 -23zM553 411c0 -14 -5 -27 -5 -42c-10 2 -19 2 -29 2c-9 0 -20 -1 -29 -2c1 22 0 42 11 55c-8 3 -11 8 -11 14s3 11 6 17h2c2 -10 6 -13 21 -14c20 -2 34 -3 34 -30zM744 386
c0 19 -1 28 -7 33c-5 4 -14 4 -31 4c-3 -9 -5 -18 -5 -24c0 -2 1 -12 1 -13c6 1 13 2 20 2c8 0 15 0 22 -2zM543 385c-2 19 -1 27 -5 31c-4 5 -12 5 -32 7c-4 -10 -6 -22 -6 -38c7 1 15 2 22 2c8 0 14 -1 21 -2z" />
    <glyph glyph-name="yale" unicode="&#xf801;" horiz-adv-x="1610" 
d="M1580 101l15 -23c-57 -52 -104 -86 -186 -86c-105 0 -186 83 -186 199c0 142 87 239 210 239c99 0 154 -56 154 -145v-18l-270 2c-2 -11 -3 -29 -3 -51c0 -102 64 -169 149 -169c51 0 77 18 117 52zM1169 23v-23h-222v23c45 3 58 13 66 30v518c0 34 -5 48 -74 54v20
l183 46l6 -17l-29 -36v-585c10 -20 29 -27 70 -30zM938 77v-29c-22 -26 -61 -57 -96 -57c-54 0 -80 37 -82 63c-34 -36 -78 -63 -120 -63c-54 0 -100 33 -100 90c0 28 7 57 21 80l199 72v74c0 45 -21 88 -66 88c-27 0 -53 -33 -55 -84l-90 -15v10c30 90 129 125 177 125
c91 0 124 -48 123 -122l-3 -210c-1 -41 21 -51 41 -51c16 0 32 10 51 29zM630 636v-26c-54 -2 -89 -20 -116 -66l-165 -278v-187c19 -45 67 -51 113 -53v-26h-323v26c46 2 102 9 117 39v193l-168 284c-29 48 -57 64 -113 68v26h281v-26c-53 -3 -70 -13 -85 -25l156 -270
l153 269c-16 12 -37 23 -90 26v26h240zM1321 296l176 2c0 53 -33 101 -79 101c-50 0 -85 -40 -97 -103zM759 73l1 135c-26 -12 -90 -40 -118 -54c-4 -16 -7 -30 -7 -52c0 -30 17 -60 50 -60c30 0 47 10 74 31z" />
    <glyph glyph-name="univ" unicode="&#xf802;" horiz-adv-x="4147" 
d="M4158 416v-23c-43 -2 -66 -30 -77 -56l-125 -296c-21 -50 -62 -163 -99 -250c-12 -28 -31 -43 -60 -43c-33 0 -52 25 -52 49c0 26 18 48 52 48c9 0 27 -4 37 -9l64 146l-143 366c-10 25 -27 43 -67 45v23h217v-23c-35 -2 -52 -10 -66 -18l108 -280l101 263
c-6 15 -30 33 -70 35v23h180zM3289 602c0 -25 -23 -53 -56 -53c-34 0 -57 28 -57 53c0 26 23 55 57 55c33 0 56 -29 56 -55zM3701 62v-20c-26 -21 -95 -50 -131 -50c-91 0 -120 49 -120 129c0 95 4 155 6 250l-56 -1v21l120 118h19l-1 -93h139v-47l-138 1
c-2 -101 -2 -147 -2 -236c0 -56 37 -91 96 -91c23 0 58 15 68 19zM3360 24v-24h-218v24c49 4 57 13 67 30v259c0 23 -13 41 -64 54v18l136 47h12v-378c11 -20 17 -25 67 -30zM3073 121c0 -70 -63 -131 -152 -131c-77 0 -121 16 -146 27l-12 108h25c31 -56 79 -106 100 -106
c84 0 104 38 104 74c0 41 -38 60 -93 82c-84 33 -123 66 -123 133s69 122 160 122c55 0 99 -15 125 -26l5 -103h-22c-30 56 -71 102 -94 102c-81 0 -94 -42 -94 -67c0 -41 18 -59 94 -90c78 -31 123 -61 123 -125zM2739 407l-43 -88h-10c-31 18 -51 30 -77 30
s-37 -15 -60 -36v-257c11 -20 49 -25 92 -31v-25h-239v24c49 4 54 13 63 30v262c0 20 -13 37 -63 49v19l133 47h10l2 -95c45 48 85 90 121 90c25 0 48 -8 71 -19zM2339 101l15 -23c-57 -52 -104 -86 -186 -86c-105 0 -186 83 -186 199c0 142 87 239 210 239
c99 0 154 -56 154 -145v-18l-270 2c-2 -11 -3 -29 -3 -51c0 -102 64 -169 149 -169c51 0 77 18 117 52zM1431 602c0 -25 -23 -53 -56 -53c-34 0 -57 28 -57 53c0 26 23 55 57 55c33 0 56 -29 56 -55zM1967 416v-23c-43 -2 -64 -31 -75 -56l-148 -337l-38 -8l-142 356
c-10 26 -32 43 -76 45v23h223v-23c-35 -2 -50 -10 -64 -18l109 -276l103 259c-8 15 -33 33 -73 35v23h181zM1489 24v-24h-218v24c49 4 57 13 67 30v259c0 23 -13 41 -64 54v18l136 47h12v-378c11 -20 17 -25 67 -30zM1243 27v-27h-233v24c48 4 54 13 61 30v216
c0 54 -36 100 -87 100c-26 0 -67 -16 -94 -32v-285c11 -20 16 -25 66 -30v-23h-215v23c49 3 56 13 65 30v257c0 20 -16 43 -63 55v19l133 47h14v-71c44 33 117 70 153 70c89 0 115 -55 115 -136v-247c20 -15 40 -16 85 -20zM721 636v-26c-45 -2 -83 -24 -93 -44v-317
c0 -184 -113 -265 -264 -265c-155 0 -250 90 -250 247v343c-10 20 -48 34 -93 36v26h283v-26c-46 -2 -86 -16 -96 -36v-326c0 -127 63 -201 182 -201c125 0 187 77 187 221v128c0 57 -4 139 -5 170c-10 20 -64 42 -111 44v26h260zM2080 296l176 2c0 53 -33 101 -79 101
c-50 0 -85 -40 -97 -103z" />
    <glyph glyph-name="coll" unicode="&#xf803;" horiz-adv-x="2998" 
d="M2970 101l15 -23c-57 -52 -104 -86 -186 -86c-105 0 -186 83 -186 199c0 142 87 239 210 239c99 0 154 -56 154 -145v-18l-270 2c-2 -11 -3 -29 -3 -51c0 -102 64 -169 149 -169c51 0 77 18 117 52zM2592 397v-47l-124 2c10 -14 22 -42 22 -64c0 -98 -89 -155 -183 -155
c-21 0 -37 3 -47 6c-15 -15 -25 -29 -32 -46c2 -29 43 -45 84 -46c29 -1 85 -2 141 -6c73 -6 117 -48 117 -109c0 -45 -22 -81 -69 -117c-58 -46 -125 -67 -185 -67c-108 0 -184 42 -184 116c0 54 71 90 120 112v1c-32 7 -103 33 -103 99v11c25 17 53 36 90 58
c-54 23 -97 61 -97 132c0 93 85 153 183 153c51 0 88 -13 125 -33h142zM2058 101l15 -23c-57 -52 -104 -86 -186 -86c-105 0 -186 83 -186 199c0 142 87 239 210 239c99 0 154 -56 154 -145v-18l-270 2c-2 -11 -3 -29 -3 -51c0 -102 64 -169 149 -169c51 0 77 18 117 52z
M1647 23v-23h-222v23c45 3 58 13 66 30v518c0 34 -5 48 -74 54v20l183 46l6 -17l-29 -36v-585c10 -20 29 -27 70 -30zM1378 23v-23h-222v23c45 3 58 13 66 30v518c0 34 -5 48 -74 54v20l183 46l6 -17l-29 -36v-585c10 -20 29 -27 70 -30zM1099 210
c0 -128 -94 -219 -221 -219c-131 0 -209 85 -209 223c0 127 93 216 222 216c130 0 208 -88 208 -220zM601 183l27 -6l-34 -155c-73 -23 -98 -35 -212 -35c-199 0 -343 147 -343 336c0 192 153 325 345 325c95 0 150 -18 223 -36v-165h-24c-4 45 -21 96 -59 120
c-18 11 -60 43 -154 43c-141 0 -221 -121 -221 -263c0 -188 103 -322 267 -322c54 0 91 18 108 32c39 32 67 79 77 126zM2711 296l176 2c0 53 -33 101 -79 101c-50 0 -85 -40 -97 -103zM2401 273c0 71 -30 129 -89 129c-45 0 -82 -42 -82 -112c0 -76 44 -129 90 -129
s81 46 81 112zM2503 -105c0 42 -25 66 -60 71c-46 7 -79 7 -154 8c-25 -12 -67 -37 -72 -95c8 -52 64 -79 146 -79c55 0 97 16 119 42c11 13 21 35 21 53zM1799 296l176 2c0 53 -33 101 -79 101c-50 0 -85 -40 -97 -103zM1005 185c0 126 -51 213 -140 213
c-57 0 -101 -79 -101 -159c0 -121 49 -216 135 -216c64 0 106 76 106 162z" />
    <glyph glyph-name="apple" unicode="&#xf8ff;" horiz-adv-x="735" 
d="M422 320l257 -22l-4 -41l-260 22l169 -202l-31 -24l-168 200l-23 -260l-41 4l23 257l-200 -167l-24 30l200 170l-264 24l4 42l260 -24l-165 198l30 26l167 -199l23 262l41 -4l-23 -264l201 169l25 -31z" />
    <glyph glyph-name="acute" unicode="&#xb4;" 
d="M269 665l-153 -170l-22 13l98 202c3 1 7 1 10 1c27 0 57 -12 67 -46z" />
    <glyph glyph-name="grave" unicode="`" 
d="M135 710l98 -202l-21 -13l-154 170c11 34 40 46 67 46c3 0 7 0 10 -1z" />
    <glyph glyph-name="circumflex" unicode="&#x2c6;" 
d="M176 711l126 -203l-23 -13l-121 129l-122 -129l-22 13l125 203h37z" />
    <glyph glyph-name="caron" unicode="&#x2c7;" 
d="M280 712l22 -13l-125 -203h-38l-125 203l23 13l121 -129z" />
    <glyph glyph-name="tilde" unicode="&#x2dc;" 
d="M290 673h23c-6 -29 -42 -119 -102 -119c-28 0 -57 12 -73 19c-13 5 -45 18 -67 18c-23 -13 -36 -32 -46 -57h-23c6 30 42 120 101 120c29 0 61 -15 73 -20c15 -6 44 -17 68 -17c24 13 35 31 46 56z" />
    <glyph glyph-name="dieresis" unicode="&#xa8;" 
d="M313 587c0 -25 -21 -50 -52 -50s-53 25 -53 50c0 26 22 52 53 52s52 -26 52 -52zM106 587c0 -25 -21 -50 -52 -50c-30 0 -53 25 -53 50c0 26 23 52 53 52c31 0 52 -26 52 -52z" />
    <glyph glyph-name="ring" unicode="&#x2da;" 
d="M269 605c0 -62 -51 -108 -117 -108c-69 0 -115 41 -115 108c0 62 51 106 118 106c68 0 114 -42 114 -106zM213 594c0 55 -23 95 -70 95c-30 0 -48 -39 -48 -73c0 -52 23 -97 67 -97c33 0 51 37 51 75z" />
    <glyph glyph-name="breve" unicode="&#x2d8;" 
d="M262 693h30c0 -51 -9 -106 -37 -142c-20 -26 -57 -43 -95 -43c-42 0 -69 15 -90 37c-31 33 -43 94 -43 148h30c4 -74 46 -118 101 -118c56 0 100 45 104 118z" />
    <glyph glyph-name="macron" unicode="&#xaf;" 
d="M308 616v-53h-302v53h302z" />
    <glyph glyph-name="dotaccent" unicode="&#x2d9;" 
d="M212 587c0 -24 -22 -50 -53 -50c-32 0 -54 26 -54 50c0 25 22 52 54 52c31 0 53 -27 53 -52z" />
    <glyph glyph-name="hungarumlaut" unicode="&#x2dd;" 
d="M364 665l-151 -166l-22 12l104 199h11c26 0 50 -11 58 -45zM184 665l-142 -165l-23 12l95 198h10c27 0 52 -11 60 -45z" />
    <glyph glyph-name="cedilla" unicode="&#xb8;" 
d="M251 -151c0 -14 -12 -41 -32 -62c-22 -24 -55 -48 -84 -48c-40 0 -71 17 -71 42c0 19 14 34 29 34c10 0 16 -4 26 -11c15 -11 30 -25 50 -25c18 0 34 18 34 35c0 19 -16 28 -48 53c-19 16 -34 26 -34 43c0 22 36 64 88 102h28c-42 -30 -61 -61 -61 -66
c0 -15 18 -21 37 -37c27 -23 38 -35 38 -60z" />
    <glyph glyph-name="ogonek" unicode="&#x2db;" 
d="M273 -153l13 -19c-25 -28 -66 -72 -124 -72c-51 0 -92 33 -92 86c0 78 67 134 115 170h25v-2c-34 -29 -70 -87 -70 -138c0 -32 14 -65 53 -65c37 0 60 20 80 40z" />
    <glyph glyph-name="acute.cap" 
d="M273 871l-163 -170l-21 13l109 202c3 1 7 1 9 1c28 0 56 -12 66 -46z" />
    <glyph glyph-name="grave.cap" 
d="M129 916l109 -202l-21 -13l-163 170c10 34 38 46 66 46c2 0 6 0 9 -1z" />
    <glyph glyph-name="circumflex.cap" 
d="M176 917l135 -203l-23 -13l-131 129l-132 -129l-22 13l135 203h38z" />
    <glyph glyph-name="caron.cap" 
d="M290 917l22 -13l-135 -203h-38l-135 203l23 13l131 -129z" />
    <glyph glyph-name="tilde.cap" 
d="M301 859h24c-8 -28 -48 -117 -113 -117c-30 0 -59 12 -76 18c-14 7 -48 18 -70 18c-24 -12 -42 -32 -52 -56h-24c5 30 47 119 110 119c31 0 64 -15 77 -20c16 -7 47 -16 71 -16c25 12 40 30 53 54z" />
    <glyph glyph-name="dieresis.cap" 
d="M322 780c0 -25 -22 -51 -54 -51c-31 0 -53 26 -53 51c0 26 22 53 53 53c32 0 54 -27 54 -53zM98 780c0 -25 -21 -51 -52 -51s-54 26 -54 51c0 26 23 53 54 53s52 -27 52 -53z" />
    <glyph glyph-name="ring.cap" 
d="M276 787c0 -62 -53 -108 -121 -108c-71 0 -119 41 -119 108c0 62 53 106 122 106c70 0 118 -42 118 -106zM216 776c0 55 -23 95 -70 95c-30 0 -48 -39 -48 -73c0 -52 23 -97 67 -97c33 0 51 37 51 75z" />
    <glyph glyph-name="breve.cap" 
d="M260 885h30c0 -51 -9 -106 -37 -142c-20 -26 -57 -43 -95 -43c-42 0 -69 15 -90 37c-31 33 -43 94 -43 148h30c4 -74 46 -118 101 -118c56 0 100 45 104 118z" />
    <glyph glyph-name="macron.cap" 
d="M315 809v-53h-316v53h316z" />
    <glyph glyph-name="dotaccent.cap" 
d="M211 780c0 -24 -22 -50 -53 -50c-32 0 -54 26 -54 50c0 25 22 52 54 52c31 0 53 -27 53 -52z" />
    <glyph glyph-name="hungarumlaut.cap" 
d="M364 871l-151 -166l-22 12l104 199h11c26 0 50 -11 58 -45zM184 871l-142 -165l-23 12l95 198h10c27 0 52 -11 60 -45z" />
    <glyph glyph-name="cedilla.cap" 
d="M255 -160c0 -16 -13 -43 -33 -64c-24 -24 -58 -49 -89 -49c-42 0 -74 18 -74 44c0 18 14 34 29 34c11 0 18 -4 28 -12c16 -11 32 -24 53 -24c19 0 36 16 36 33c0 19 -18 28 -51 54c-21 16 -35 27 -35 44c0 26 26 57 99 112c2 -1 31 0 31 1c-52 -45 -67 -65 -67 -76
c0 -14 15 -21 35 -38c28 -22 38 -34 38 -59z" />
    <glyph glyph-name="ogonek.cap" 
d="M273 -153l13 -19c-25 -28 -66 -72 -124 -72c-51 0 -92 33 -92 86c0 78 67 134 115 170h25v-2c-34 -29 -70 -87 -70 -138c0 -32 14 -65 53 -65c37 0 60 20 80 40z" />
    <glyph glyph-name="acute.sc" 
d="M273 719l-163 -170l-21 13l109 202c3 1 7 1 9 1c28 0 56 -12 66 -46z" />
    <glyph glyph-name="grave.sc" 
d="M129 764l109 -202l-21 -13l-163 170c10 34 38 46 66 46c2 0 6 0 9 -1z" />
    <glyph glyph-name="circumflex.sc" 
d="M176 755l135 -201l-23 -13l-131 127l-132 -127l-22 13l135 201h38z" />
    <glyph glyph-name="caron.sc" 
d="M290 761l22 -13l-135 -203h-38l-135 203l23 13l131 -129z" />
    <glyph glyph-name="tilde.sc" 
d="M301 715h24c-8 -28 -48 -117 -113 -117c-30 0 -59 12 -76 18c-14 7 -48 18 -70 18c-24 -12 -42 -32 -52 -56h-24c5 30 47 119 110 119c31 0 64 -15 77 -20c16 -7 47 -16 71 -16c25 12 40 30 53 54z" />
    <glyph glyph-name="dieresis.sc" 
d="M322 635c0 -25 -22 -51 -54 -51c-31 0 -53 26 -53 51c0 26 22 53 53 53c32 0 54 -27 54 -53zM98 635c0 -25 -21 -51 -52 -51s-54 26 -54 51c0 26 23 53 54 53s52 -27 52 -53z" />
    <glyph glyph-name="ring.sc" 
d="M279 639c0 -62 -53 -108 -121 -108c-71 0 -119 41 -119 108c0 62 53 106 122 106c70 0 118 -42 118 -106zM219 628c0 55 -23 95 -70 95c-30 0 -48 -39 -48 -73c0 -52 23 -97 67 -97c33 0 51 37 51 75z" />
    <glyph glyph-name="breve.sc" 
d="M260 741h30c0 -51 -9 -106 -37 -142c-20 -26 -57 -43 -95 -43c-42 0 -69 15 -90 37c-31 33 -43 94 -43 148h30c4 -74 46 -118 101 -118c56 0 100 45 104 118z" />
    <glyph glyph-name="macron.sc" 
d="M308 662v-53h-302v53h302z" />
    <glyph glyph-name="dotaccent.sc" 
d="M210 635c0 -24 -22 -50 -53 -50c-32 0 -54 26 -54 50c0 25 22 52 54 52c31 0 53 -27 53 -52z" />
    <glyph glyph-name="hungarumlaut.sc" 
d="M364 719l-151 -166l-22 12l104 199h11c26 0 50 -11 58 -45zM184 719l-142 -165l-23 12l95 198h10c27 0 52 -11 60 -45z" />
    <glyph glyph-name="cedilla.sc" 
d="M255 -157c0 -16 -13 -43 -33 -64c-24 -24 -58 -49 -89 -49c-42 0 -74 18 -74 44c0 18 14 34 29 34c11 0 18 -4 28 -12c16 -11 32 -24 53 -24c19 0 36 16 36 33c0 19 -18 28 -51 54c-21 16 -35 27 -35 44c0 26 24 54 97 109c2 -1 31 0 31 1c-52 -45 -65 -62 -65 -73
c0 -14 15 -21 35 -38c28 -22 38 -34 38 -59z" />
    <glyph glyph-name="ogonek.sc" 
d="M273 -153l13 -19c-25 -28 -66 -72 -124 -72c-51 0 -92 33 -92 86c0 78 67 134 115 170h25v-2c-34 -29 -70 -87 -70 -138c0 -32 14 -65 53 -65c37 0 60 20 80 40z" />
    </font>
</defs>
</svg>
